<svg width="18" height="44" viewBox="0 0 18 44" fill="none" xmlns="http://www.w3.org/2000/svg">
<path d="M14.046 29.406V5.331C14.046 2.548 11.782 0.283997 8.99998 0.283997C6.21798 0.283997 3.95398 2.548 3.95398 5.331V29.406C2.06598 30.929 0.953979 33.232 0.953979 35.668C0.953979 40.106 4.56398 43.715 9.00098 43.715C13.438 43.715 17.048 40.106 17.048 35.668C17.047 33.232 15.935 30.93 14.046 29.406ZM8.99998 40.061C6.57798 40.061 4.60698 38.09 4.60698 35.668C4.60698 33.684 5.93898 32.022 7.74998 31.479V18.247C7.74998 17.557 8.30998 16.997 8.99998 16.997C9.68998 16.997 10.25 17.557 10.25 18.247V31.478C12.061 32.021 13.393 33.683 13.393 35.667C13.393 38.09 11.422 40.061 8.99998 40.061Z" fill="black"/>
</svg>
