<svg width="52" height="58" viewBox="0 0 52 58" fill="none" xmlns="http://www.w3.org/2000/svg">
<path d="M51.125 55.016L40.33 36.561C41.604 35.683 42.81 34.688 43.928 33.571C44.634 32.865 44.634 31.72 43.928 31.014C43.223 30.307 42.076 30.307 41.371 31.014C40.475 31.91 39.505 32.701 38.49 33.416L31.225 20.996C32.619 19.636 33.488 17.74 33.488 15.643C33.488 12.139 31.065 9.19799 27.808 8.38499V2.07099C27.808 1.07299 26.997 0.261993 25.999 0.261993C25.001 0.261993 24.19 1.07299 24.19 2.07099V8.38499C20.934 9.19799 18.51 12.139 18.51 15.643C18.51 17.74 19.379 19.635 20.773 20.997L13.51 33.416C12.496 32.7 11.526 31.909 10.631 31.014C9.92401 30.307 8.77901 30.307 8.07301 31.014C7.36701 31.72 7.36701 32.865 8.07201 33.571C9.19001 34.688 10.396 35.683 11.671 36.56L0.875012 55.016C0.371012 55.878 0.660012 56.986 1.52201 57.49C1.80901 57.658 2.12301 57.738 2.43301 57.738C3.05401 57.738 3.66001 57.418 3.99601 56.842L14.789 38.39C17.705 39.83 20.885 40.695 24.191 40.927V42.099C24.191 43.098 25.002 43.908 26 43.908C26.998 43.908 27.809 43.098 27.809 42.099V40.927C31.116 40.695 34.296 39.831 37.211 38.391L48.004 56.842C48.34 57.417 48.944 57.738 49.567 57.738C49.877 57.738 50.191 57.658 50.478 57.49C51.34 56.985 51.63 55.878 51.125 55.016ZM26 11.772C28.135 11.772 29.871 13.508 29.871 15.643C29.871 17.778 28.135 19.515 26 19.515C23.865 19.515 22.129 17.779 22.129 15.644C22.129 13.509 23.865 11.772 26 11.772ZM27.809 37.293V36.279C27.809 35.28 26.998 34.47 26 34.47C25.002 34.47 24.191 35.28 24.191 36.279V37.293C21.538 37.075 18.99 36.372 16.63 35.242L23.894 22.825C24.562 23.02 25.268 23.132 25.999 23.132C26.73 23.132 27.437 23.021 28.105 22.825L35.368 35.242C33.011 36.372 30.462 37.075 27.809 37.293Z" fill="black"/>
</svg>
