<svg width="36" height="32" viewBox="0 0 36 32" fill="none" xmlns="http://www.w3.org/2000/svg">
<path d="M35.733 7.134C35.665 6.969 34.006 3.076 30.428 2.572C28.725 2.334 27.228 2.961 26.112 3.693C26.253 2.692 26.198 1.721 25.931 0.794003C25.817 0.396003 25.402 0.159003 25.003 0.280003C24.606 0.394003 24.375 0.809004 24.489 1.208C24.644 1.751 24.685 2.322 24.66 2.909C22.087 1.192 19.069 0.251003 15.958 0.251003C7.27301 0.251003 0.208008 7.316 0.208008 16.001C0.208008 24.686 7.27301 31.751 15.958 31.751C24.643 31.751 31.708 24.686 31.708 16.001C31.708 14.212 31.394 12.47 30.806 10.799C33.591 10.392 35.537 8.001 35.626 7.89C35.798 7.676 35.839 7.387 35.733 7.134ZM15.959 30.251C8.10201 30.251 1.70901 23.858 1.70901 16.001C1.70901 8.144 8.10201 1.751 15.959 1.751C19.001 1.751 21.952 2.732 24.395 4.535C24.285 4.901 24.149 5.27201 23.976 5.65001C23.487 6.72101 22.742 7.826 21.783 8.938C21.412 8.35 21.189 7.66 21.189 6.915C21.189 6.501 20.853 6.165 20.439 6.165C20.025 6.165 19.689 6.501 19.689 6.915C19.689 9.847 22.074 12.231 25.004 12.231C25.418 12.231 25.754 11.895 25.754 11.481C25.754 11.067 25.418 10.731 25.004 10.731C24.19 10.731 23.439 10.47 22.818 10.034C23.548 9.198 24.167 8.361 24.665 7.53C25.459 8.753 26.943 10.452 29.209 10.799C29.863 12.46 30.209 14.204 30.209 16.001C30.209 23.858 23.816 30.251 15.959 30.251ZM29.479 9.325C27.349 9.026 26.034 6.98001 25.554 6.08801C26.261 5.36001 28.077 3.751 30.219 4.059C32.35 4.358 33.666 6.406 34.144 7.298C33.443 8.024 31.627 9.633 29.479 9.325ZM15.959 27.001C9.89401 27.001 4.95901 22.066 4.95901 16.001C4.95901 15.587 4.62301 15.251 4.20901 15.251C3.79501 15.251 3.45901 15.587 3.45901 16.001C3.45901 22.894 9.06601 28.501 15.959 28.501C16.373 28.501 16.709 28.165 16.709 27.751C16.709 27.337 16.373 27.001 15.959 27.001Z" fill="black"/>
</svg>
