<svg width="72" height="56" viewBox="0 0 72 56" fill="none" xmlns="http://www.w3.org/2000/svg">
<path d="M21.216 43.23C20.507 42.803 19.584 43.033 19.157 43.741L16.981 47.352C16.553 48.062 16.782 48.984 17.492 49.412C17.734 49.558 18.001 49.627 18.264 49.627C18.773 49.627 19.269 49.368 19.55 48.901L21.726 45.29C22.155 44.58 21.926 43.658 21.216 43.23ZM70.962 53.063L58.883 26.563C58.679 26.117 58.271 25.798 57.788 25.71C57.307 25.621 56.81 25.774 56.463 26.119L52.663 29.877L36.957 3.79699C36.686 3.34599 36.198 3.07099 35.672 3.07099C35.146 3.07099 34.658 3.34599 34.387 3.79699L25.63 18.342C25.629 18.344 25.628 18.346 25.626 18.348L21.466 25.258L17.162 21.18C16.81 20.847 16.32 20.702 15.845 20.796C15.37 20.888 14.968 21.204 14.767 21.645L0.294018 53.267C0.0810181 53.731 0.120017 54.272 0.396017 54.702C0.672017 55.132 1.14702 55.391 1.65802 55.391H69.71C70.539 55.391 71.21 54.719 71.21 53.891C71.21 53.585 71.119 53.3 70.962 53.063ZM35.672 7.47899L42.933 19.536H40.567C40.047 19.536 39.564 19.805 39.292 20.247L38.103 22.169L35.43 17.73C35.159 17.281 34.674 17.005 34.15 17.004H34.145C33.623 17.004 33.137 17.276 32.865 17.723L30.454 21.675L28.678 19.096L35.672 7.47899ZM26.978 21.918L28.743 24.479L27.568 26.405C27.136 27.112 27.36 28.035 28.067 28.467C28.311 28.616 28.581 28.687 28.847 28.687C29.353 28.687 29.847 28.432 30.129 27.968L34.137 21.399L36.801 25.824C37.071 26.272 37.554 26.547 38.077 26.55C38.61 26.596 39.086 26.284 39.361 25.839L41.403 22.537H44.74L53.784 37.556H50.329C50.315 37.556 50.304 37.56 50.29 37.56C50.238 37.561 50.187 37.569 50.136 37.576C50.089 37.582 50.041 37.587 49.995 37.597C49.949 37.608 49.905 37.624 49.861 37.639C49.813 37.655 49.765 37.668 49.72 37.689C49.676 37.709 49.635 37.734 49.593 37.757C49.552 37.78 49.509 37.802 49.471 37.829C49.43 37.857 49.393 37.892 49.355 37.924C49.32 37.955 49.283 37.984 49.251 38.018C49.219 38.051 49.192 38.088 49.163 38.124C49.129 38.166 49.096 38.208 49.066 38.254C49.059 38.264 49.05 38.273 49.044 38.283L47.263 41.245L45.016 37.514C45.005 37.496 44.991 37.482 44.979 37.465C44.951 37.42 44.917 37.378 44.884 37.337C44.853 37.299 44.821 37.263 44.787 37.229C44.754 37.197 44.719 37.166 44.683 37.136C44.64 37.101 44.598 37.068 44.552 37.038C44.535 37.026 44.522 37.013 44.504 37.002C44.483 36.989 44.459 36.982 44.438 36.971C44.39 36.946 44.341 36.922 44.292 36.902C44.249 36.884 44.205 36.87 44.161 36.856C44.113 36.842 44.066 36.831 44.018 36.821C43.97 36.812 43.922 36.804 43.874 36.8C43.826 36.796 43.778 36.794 43.73 36.794C43.682 36.794 43.634 36.796 43.586 36.8C43.538 36.805 43.49 36.813 43.443 36.821C43.394 36.831 43.346 36.842 43.298 36.856C43.254 36.87 43.212 36.884 43.169 36.902C43.117 36.923 43.068 36.946 43.02 36.972C42.999 36.983 42.976 36.99 42.956 37.002C42.939 37.012 42.926 37.026 42.909 37.037C42.862 37.067 42.818 37.101 42.774 37.138C42.74 37.167 42.706 37.196 42.674 37.227C42.638 37.263 42.606 37.3 42.573 37.339C42.541 37.38 42.509 37.42 42.481 37.463C42.469 37.482 42.454 37.495 42.443 37.514L38.37 44.28L32.14 33.934C31.852 33.455 31.339 33.203 30.818 33.215C30.297 33.202 29.783 33.455 29.495 33.934L25.945 39.83L25.013 38.283C25.007 38.272 24.998 38.264 24.992 38.254C24.963 38.208 24.929 38.167 24.895 38.124C24.866 38.089 24.839 38.052 24.808 38.019C24.775 37.985 24.738 37.956 24.701 37.924C24.664 37.892 24.628 37.859 24.588 37.83C24.548 37.801 24.504 37.78 24.461 37.756C24.42 37.734 24.382 37.708 24.34 37.69C24.292 37.669 24.241 37.655 24.192 37.638C24.15 37.624 24.109 37.609 24.066 37.599C24.018 37.588 23.968 37.583 23.919 37.577C23.869 37.571 23.82 37.564 23.771 37.562C23.757 37.562 23.745 37.558 23.731 37.558H17.565L26.978 21.918ZM3.99402 52.391L16.621 24.801L19.881 27.89L13.753 38.068C13.633 38.205 13.538 38.36 13.473 38.533L5.12902 52.391H3.99402ZM8.63002 52.391L15.756 40.555H22.88L24.66 43.509C24.668 43.523 24.681 43.532 24.689 43.546C24.744 43.631 24.807 43.71 24.879 43.783C24.893 43.797 24.903 43.812 24.917 43.826C24.993 43.897 25.077 43.963 25.17 44.019C25.178 44.024 25.187 44.025 25.194 44.03C25.273 44.075 25.358 44.106 25.444 44.136C25.483 44.15 25.521 44.172 25.561 44.183C25.668 44.211 25.779 44.223 25.891 44.227C25.908 44.228 25.926 44.234 25.943 44.234H25.946C25.964 44.234 25.981 44.227 25.998 44.227C26.109 44.223 26.22 44.211 26.328 44.183C26.369 44.171 26.408 44.15 26.448 44.135C26.532 44.105 26.616 44.074 26.695 44.03C26.703 44.025 26.712 44.024 26.719 44.019C26.813 43.962 26.897 43.896 26.973 43.825C26.985 43.813 26.995 43.799 27.007 43.787C27.081 43.712 27.146 43.631 27.202 43.544C27.21 43.53 27.223 43.522 27.23 43.508L30.817 37.55L37.085 47.959C37.094 47.973 37.106 47.982 37.115 47.996C37.17 48.081 37.232 48.161 37.305 48.234C37.318 48.248 37.328 48.263 37.342 48.276C37.418 48.348 37.502 48.414 37.596 48.47C37.604 48.475 37.612 48.476 37.619 48.48C37.7 48.527 37.788 48.559 37.876 48.59C37.913 48.603 37.948 48.623 37.985 48.633C38.098 48.663 38.215 48.677 38.333 48.68C38.345 48.68 38.356 48.685 38.368 48.685H38.37C38.382 48.685 38.393 48.681 38.405 48.68C38.522 48.677 38.639 48.663 38.753 48.633C38.79 48.624 38.823 48.604 38.859 48.591C38.949 48.56 39.037 48.528 39.12 48.48C39.127 48.476 39.136 48.474 39.142 48.47C39.235 48.414 39.319 48.349 39.395 48.277C39.411 48.263 39.422 48.245 39.437 48.23C39.508 48.158 39.57 48.08 39.624 47.997C39.633 47.983 39.645 47.974 39.654 47.959L43.727 41.193L45.975 44.925C45.983 44.939 45.995 44.947 46.003 44.96C46.059 45.047 46.123 45.129 46.197 45.204C46.21 45.216 46.219 45.23 46.231 45.242C46.308 45.314 46.392 45.38 46.486 45.436C46.494 45.441 46.502 45.442 46.509 45.446C46.59 45.493 46.678 45.525 46.766 45.556C46.803 45.569 46.838 45.589 46.875 45.599C46.988 45.629 47.105 45.643 47.223 45.646C47.235 45.646 47.246 45.651 47.258 45.651H47.26C47.272 45.651 47.283 45.647 47.295 45.646C47.412 45.643 47.529 45.629 47.643 45.599C47.68 45.59 47.713 45.57 47.749 45.557C47.839 45.526 47.927 45.494 48.01 45.446C48.017 45.442 48.026 45.44 48.032 45.436C48.125 45.38 48.209 45.315 48.285 45.243C48.301 45.229 48.312 45.211 48.327 45.196C48.398 45.124 48.46 45.046 48.514 44.963C48.523 44.949 48.535 44.94 48.544 44.925L51.173 40.554H55.586L62.714 52.39L8.63002 52.391ZM66.22 52.391L54.256 32.522L57.044 29.764L67.358 52.39L66.22 52.391ZM40.932 32.686C41.214 33.154 41.71 33.413 42.218 33.413C42.482 33.413 42.748 33.344 42.99 33.198C43.7 32.77 43.928 31.848 43.502 31.139L41.743 28.218C41.315 27.509 40.393 27.281 39.684 27.707C38.974 28.135 38.746 29.056 39.172 29.766L40.932 32.686ZM52.579 12.849C55.922 12.849 58.642 10.129 58.642 6.78599C58.642 3.44299 55.922 0.722992 52.579 0.722992C49.236 0.722992 46.516 3.44299 46.516 6.78599C46.516 10.129 49.236 12.849 52.579 12.849ZM52.579 3.72399C54.267 3.72399 55.642 5.09799 55.642 6.78699C55.642 8.47599 54.268 9.84999 52.579 9.84999C50.89 9.84999 49.516 8.47599 49.516 6.78699C49.516 5.09799 50.891 3.72399 52.579 3.72399Z" fill="black"/>
</svg>
