<svg width="50" height="48" viewBox="0 0 50 48" fill="none" xmlns="http://www.w3.org/2000/svg">
<path d="M10.1251 14.509C10.1251 11.816 7.93205 9.62402 5.23705 9.62402C2.54505 9.62402 0.352051 11.815 0.352051 14.509C0.352051 17.203 2.54205 19.396 5.23705 19.396C7.93205 19.396 10.1251 17.204 10.1251 14.509ZM1.85305 14.509C1.85305 12.643 3.37205 11.124 5.23805 11.124C7.10605 11.124 8.62605 12.644 8.62605 14.509C8.62605 16.376 7.10605 17.896 5.23805 17.896C3.37105 17.896 1.85305 16.376 1.85305 14.509ZM37.9631 39.455C35.7341 39.455 33.9201 41.269 33.9201 43.498C33.9201 45.728 35.7331 47.541 37.9631 47.541C40.1921 47.541 42.0061 45.728 42.0061 43.498C42.0061 41.27 40.1911 39.455 37.9631 39.455ZM37.9631 46.041C36.5611 46.041 35.4201 44.9 35.4201 43.498C35.4201 42.096 36.5611 40.955 37.9631 40.955C39.3641 40.955 40.5061 42.096 40.5061 43.498C40.5061 44.9 39.3641 46.041 37.9631 46.041ZM13.517 29.561C11.992 29.561 10.7501 30.801 10.7501 32.327C10.7501 33.854 11.99 35.093 13.517 35.093C15.041 35.093 16.2831 33.855 16.2831 32.327C16.2821 30.801 15.041 29.561 13.517 29.561ZM13.517 33.592C12.819 33.592 12.2501 33.026 12.2501 32.326C12.2501 31.626 12.817 31.06 13.517 31.06C14.215 31.06 14.7831 31.626 14.7831 32.326C14.7831 33.026 14.215 33.592 13.517 33.592ZM36.0731 9.32602C34.2051 9.32602 32.6811 10.846 32.6811 12.715C32.6811 14.584 34.2021 16.105 36.0731 16.105C37.9411 16.105 39.4631 14.584 39.4631 12.715C39.4631 10.846 37.9411 9.32602 36.0731 9.32602ZM36.0731 14.603C35.0301 14.603 34.1811 13.755 34.1811 12.714C34.1811 11.671 35.0301 10.824 36.0731 10.824C37.1141 10.824 37.9631 11.671 37.9631 12.714C37.9631 13.755 37.1141 14.603 36.0731 14.603ZM26.0281 15.312C21.2371 15.312 17.3401 19.208 17.3401 24C17.3401 28.789 21.2371 32.687 26.0281 32.687C30.8191 32.687 34.716 28.791 34.716 24C34.717 19.208 30.8191 15.312 26.0281 15.312ZM26.0281 31.186C22.0651 31.186 18.8401 27.961 18.8401 23.999C18.8401 20.036 22.0651 16.811 26.0281 16.811C29.9911 16.811 33.216 20.036 33.216 23.999C33.217 27.963 29.9921 31.186 26.0281 31.186ZM26.0371 0.390015C19.4941 0.390015 13.1841 3.14202 8.72605 7.94102C8.44405 8.24402 8.46005 8.71801 8.76505 9.00201C9.06805 9.28201 9.54205 9.26702 9.82505 8.96302C14.0001 4.46902 19.9091 1.89202 26.0371 1.89202C38.2281 1.89202 48.1471 11.81 48.1471 24.001C48.1471 29.573 46.0681 34.891 42.2931 38.977C42.0121 39.282 42.0291 39.754 42.3341 40.038C42.4791 40.171 42.6601 40.237 42.8441 40.237C43.0451 40.237 43.2461 40.155 43.3951 39.995C47.4281 35.632 49.6491 29.952 49.6491 24.003C49.6471 10.982 39.055 0.390015 26.0371 0.390015ZM32.0041 45.299C30.0341 45.838 28.0271 46.11 26.0371 46.11C13.8461 46.11 3.92605 36.192 3.92605 24.001C3.92605 23.139 3.97705 22.275 4.07605 21.436C4.12505 21.024 3.83205 20.652 3.42005 20.603C3.00405 20.547 2.63505 20.848 2.58805 21.258C2.48205 22.157 2.42605 23.08 2.42605 24.001C2.42605 37.02 13.0191 47.61 26.0371 47.61C28.1611 47.61 30.301 47.321 32.397 46.749C32.796 46.64 33.033 46.228 32.923 45.827C32.815 45.426 32.4031 45.191 32.0041 45.299ZM26.0321 39.871C34.7891 39.871 41.9141 32.752 41.9141 24C41.9141 21.479 41.338 19.064 40.201 16.824C40.015 16.456 39.5631 16.305 39.1931 16.494C38.8231 16.683 38.6751 17.134 38.8631 17.503C39.8911 19.53 40.4141 21.716 40.4141 24C40.4141 31.923 33.9631 38.371 26.0321 38.371C22.8091 38.371 19.7631 37.334 17.2261 35.373C16.8981 35.119 16.4271 35.182 16.1731 35.508C15.9211 35.836 15.981 36.307 16.309 36.561C19.112 38.727 22.4751 39.871 26.0321 39.871ZM31.3581 9.03402C29.6401 8.42602 27.8471 8.11802 26.0321 8.11802C17.2771 8.11802 10.1541 15.243 10.1541 24.001C10.1541 25.422 10.3401 26.821 10.7031 28.153C10.7951 28.487 11.0981 28.706 11.4261 28.706C11.4911 28.706 11.5591 28.698 11.6251 28.681C12.0231 28.572 12.2601 28.16 12.1501 27.759C11.8211 26.554 11.6541 25.29 11.6541 24.002C11.6541 16.071 18.1041 9.61901 26.0321 9.61901C27.6781 9.61901 29.3011 9.89802 30.8581 10.449C31.2521 10.589 31.6771 10.384 31.8151 9.99202C31.9531 9.60102 31.7501 9.17102 31.3581 9.03402Z" fill="black"/>
</svg>
