<svg width="34" height="22" viewBox="0 0 34 22" fill="none" xmlns="http://www.w3.org/2000/svg">
<path d="M6.97897 10.805C8.92697 10.805 10.505 8.321 10.505 6.277C10.505 4.233 8.92697 2.575 6.97897 2.575C5.03097 2.575 3.45296 4.233 3.45296 6.277C3.45296 8.321 5.03097 10.805 6.97897 10.805ZM27.021 10.805C28.969 10.805 30.547 8.321 30.547 6.277C30.547 4.233 28.969 2.575 27.021 2.575C25.074 2.575 23.495 4.233 23.495 6.277C23.495 8.321 25.073 10.805 27.021 10.805ZM12.13 11.396C11.475 11.035 10.672 10.693 9.83197 10.428C9.06097 11.255 8.07297 11.804 6.97897 11.804C5.88497 11.804 4.89797 11.255 4.12597 10.428C2.63397 10.898 1.24897 11.613 0.621967 12.24C0.275967 12.586 -0.0090332 14.09 -0.0090332 14.09C-0.0090332 15.371 2.68197 16.421 6.14697 16.569C6.35597 15.674 6.69496 14.585 7.17596 14.104C8.12696 13.154 10.027 12.118 12.13 11.396ZM33.377 12.24C32.75 11.613 31.364 10.898 29.873 10.428C29.102 11.255 28.114 11.804 27.02 11.804C25.926 11.804 24.939 11.255 24.167 10.428C23.328 10.693 22.524 11.034 21.869 11.396C23.972 12.118 25.872 13.153 26.82 14.101C27.303 14.583 27.641 15.673 27.851 16.568C31.317 16.421 34.006 15.371 34.006 14.089C34.008 14.09 33.723 12.586 33.377 12.24ZM17 12.751C19.793 12.751 22.057 9.188 22.057 6.258C22.057 3.326 19.793 0.949005 17 0.949005C14.207 0.949005 11.943 3.326 11.943 6.258C11.943 9.188 14.207 12.751 17 12.751ZM20.639 12.066C19.634 13.084 18.382 13.751 17 13.751C15.618 13.751 14.366 13.084 13.361 12.066C11.054 12.734 8.84696 13.847 7.88396 14.81C7.38896 15.304 6.97897 17.462 6.97897 17.462C6.97897 19.444 11.465 21.05 17 21.05C22.535 21.05 27.021 19.445 27.021 17.462C27.021 17.462 26.612 15.304 26.116 14.81C25.152 13.848 22.946 12.734 20.639 12.066Z" fill="black"/>
</svg>
