<svg width="28" height="28" viewBox="0 0 28 28" fill="none" xmlns="http://www.w3.org/2000/svg">
<path d="M14 16.063C17.6 16.063 20.517 11.472 20.517 7.695C20.517 3.918 17.6 0.854004 14 0.854004C10.4 0.854004 7.48298 3.917 7.48298 7.695C7.48298 11.473 10.4 16.063 14 16.063ZM26.17 18.813C24.191 16.834 19.047 15.189 19.047 15.189C17.662 16.62 15.924 17.564 14 17.564C12.077 17.564 10.338 16.62 8.95397 15.189C8.95397 15.189 3.80898 16.835 1.82998 18.813C1.16898 19.474 0.620972 22.355 0.620972 22.355C0.620972 25.001 6.61097 27.146 14 27.146C21.389 27.146 27.379 25.001 27.379 22.355C27.379 22.355 26.832 19.474 26.17 18.813Z" fill="black"/>
</svg>
