<svg width="78" height="78" viewBox="0 0 78 78" fill="none" xmlns="http://www.w3.org/2000/svg">
<path d="M10.376 33.226L8.446 34.845C9.337 28.185 12.358 22.028 17.191 17.195C17.897 16.488 17.897 15.343 17.191 14.638C16.485 13.931 15.34 13.931 14.634 14.638C9.213 20.058 5.826 26.969 4.846 34.445L3.304 32.607C2.661 31.843 1.522 31.744 0.756001 32.384C-0.00899899 33.027 -0.107999 34.166 0.533001 34.931L4.922 40.161C5.279 40.588 5.792 40.807 6.308 40.807C6.718 40.807 7.13 40.668 7.469 40.384L12.699 35.995C13.465 35.353 13.564 34.213 12.923 33.447C12.281 32.685 11.142 32.584 10.376 33.226ZM35.996 65.3C35.354 64.536 34.215 64.436 33.448 65.077C32.683 65.719 32.584 66.859 33.225 67.624L34.848 69.56C28.185 68.669 22.028 65.642 17.193 60.807C16.487 60.1 15.342 60.1 14.636 60.807C13.93 61.513 13.93 62.658 14.636 63.364C20.06 68.788 26.978 72.165 34.458 73.143L32.605 74.697C31.84 75.339 31.741 76.479 32.382 77.244C32.739 77.67 33.252 77.89 33.768 77.89C34.178 77.89 34.59 77.751 34.929 77.467L40.159 73.078C40.924 72.436 41.023 71.296 40.383 70.531L35.996 65.3ZM77.465 43.069L73.076 37.839C72.434 37.073 71.295 36.974 70.529 37.615L65.299 42.004C64.533 42.646 64.434 43.786 65.076 44.552C65.719 45.317 66.859 45.416 67.623 44.775L69.547 43.161C68.655 49.82 65.639 55.975 60.807 60.807C60.101 61.513 60.101 62.658 60.807 63.364C61.161 63.718 61.622 63.893 62.085 63.893C62.548 63.893 63.01 63.717 63.363 63.364C68.787 57.941 72.165 51.025 73.142 43.545L74.695 45.395C75.052 45.821 75.564 46.041 76.081 46.041C76.491 46.041 76.903 45.902 77.242 45.618C78.008 44.974 78.107 43.834 77.465 43.069ZM42.002 12.7C42.36 13.127 42.873 13.346 43.389 13.346C43.799 13.346 44.211 13.207 44.55 12.923C45.315 12.281 45.414 11.141 44.774 10.375L43.16 8.453C49.819 9.344 55.973 12.36 60.806 17.191C61.16 17.545 61.621 17.721 62.084 17.721C62.547 17.721 63.009 17.544 63.362 17.191C64.068 16.486 64.068 15.341 63.362 14.634C57.938 9.21 51.022 5.833 43.542 4.856L45.393 3.303C46.158 2.661 46.257 1.521 45.617 0.755002C44.974 -0.0089981 43.835 -0.107999 43.069 0.532001L37.839 4.921C37.074 5.564 36.975 6.703 37.616 7.468L42.002 12.7ZM38.999 17.022C26.881 17.022 17.021 26.881 17.021 38.999C17.021 51.118 26.88 60.977 38.999 60.977C51.118 60.977 60.977 51.119 60.977 38.999C60.977 26.882 51.117 17.022 38.999 17.022ZM38.999 57.361C28.874 57.361 20.638 49.124 20.638 38.999C20.638 28.876 28.874 20.639 38.999 20.639C49.124 20.639 57.361 28.876 57.361 38.999C57.361 49.124 49.124 57.361 38.999 57.361Z" fill="black"/>
</svg>
