<svg width="46" height="40" viewBox="0 0 46 40" fill="none" xmlns="http://www.w3.org/2000/svg">
<path d="M44.26 4.61101C42.11 4.61101 40.041 3.24301 38.435 0.76001H35.915C34.308 3.24401 32.238 4.61201 30.088 4.61201C27.937 4.61201 25.866 3.24401 24.258 0.76001H21.74C20.133 3.24401 18.063 4.61201 15.913 4.61201C13.763 4.61201 11.693 3.24401 10.085 0.76001H7.56597C5.96097 3.24301 3.89197 4.61101 1.74097 4.61101H0.240967V7.61101H1.74097C4.36397 7.61101 6.82497 6.36801 8.82597 4.07001C10.828 6.36901 13.291 7.61201 15.913 7.61201C18.535 7.61201 20.997 6.36901 22.999 4.07001C25.001 6.36901 27.464 7.61201 30.087 7.61201C32.709 7.61201 35.171 6.36901 37.174 4.07001C39.175 6.36801 41.637 7.61101 44.259 7.61101H45.759V4.61101H44.26ZM38.435 16.917H35.915C34.308 19.401 32.238 20.769 30.088 20.769C27.937 20.769 25.866 19.401 24.258 16.917H21.74C20.133 19.401 18.063 20.769 15.913 20.769C13.763 20.769 11.693 19.401 10.085 16.917H7.56597C5.96097 19.4 3.89197 20.768 1.74097 20.768H0.240967V23.768H1.74097C4.36397 23.768 6.82497 22.526 8.82597 20.227C10.828 22.525 13.291 23.769 15.913 23.769C18.535 23.769 20.997 22.526 22.999 20.227C25.001 22.526 27.464 23.769 30.087 23.769C32.709 23.769 35.171 22.526 37.174 20.227C39.175 22.525 41.637 23.768 44.259 23.768H45.759V20.768H44.259C42.109 20.768 40.041 19.4 38.435 16.917ZM38.435 33.073L35.915 33.072C34.308 35.556 32.238 36.925 30.088 36.925C27.937 36.925 25.866 35.557 24.258 33.072L21.74 33.073C20.133 35.556 18.063 36.925 15.913 36.925C13.763 36.925 11.693 35.557 10.085 33.072L7.56597 33.073C5.96097 35.556 3.89197 36.924 1.74097 36.924H0.240967V39.924H1.74097C4.36397 39.924 6.82497 38.682 8.82597 36.384C10.828 38.682 13.291 39.925 15.913 39.925C18.535 39.925 20.997 38.682 22.999 36.383C25.001 38.682 27.464 39.925 30.087 39.925C32.709 39.925 35.171 38.682 37.174 36.383C39.175 38.682 41.637 39.924 44.259 39.924H45.759V36.924H44.259C42.109 36.924 40.041 35.557 38.435 33.073Z" fill="black"/>
</svg>
