<svg width="46" height="46" viewBox="0 0 46 46" fill="none" xmlns="http://www.w3.org/2000/svg">
<path d="M22.999 0.0629883C10.353 0.0629883 0.0610008 10.353 0.0610008 23.001C0.0610008 35.649 10.352 45.939 22.999 45.939C35.647 45.939 45.938 35.65 45.938 23.001C45.937 10.353 35.647 0.0629883 22.999 0.0629883ZM18.749 1.98799C18.96 2.20299 19.187 2.42599 19.43 2.65599C19.784 2.99599 20.24 3.42699 20.505 3.74599C19.935 3.97299 18.609 4.18999 17.308 4.18999C15.915 4.18999 14.869 5.24199 13.943 6.16899C13.529 6.58299 13.14 6.97499 12.749 7.25499C12.484 7.44399 12.271 7.58299 12.105 7.69099C11.14 8.31799 11.084 8.64199 11.275 9.83699C11.308 10.038 11.26 10.249 11.148 10.4C11.084 10.486 11.021 10.519 11.009 10.523C10.988 10.516 10.902 10.456 10.802 10.269C10.38 9.47999 9.757 9.23899 9.308 9.17399C8.294 9.02799 7.277 9.65799 6.712 10.24C6.034 10.939 5.825 11.982 6.228 12.668C6.533 13.191 7.124 13.408 7.771 13.237C8.015 13.172 8.23 13.205 8.38 13.328C8.513 13.437 8.578 13.607 8.566 13.806C8.511 14.592 8.785 15.309 9.297 15.724C9.744 16.086 10.331 16.191 10.954 16.017C11.366 15.9 11.722 15.765 12.048 15.641C12.65 15.412 13.045 15.258 13.53 15.34C14.244 15.457 14.776 15.199 15.163 15.008C15.583 14.801 15.67 14.778 15.911 14.908C16.159 15.041 16.399 15.293 16.653 15.56C17.18 16.115 17.917 16.884 19.125 16.817C19.762 16.796 20.353 17.619 20.89 18.349C21.128 18.675 21.355 18.985 21.593 19.237C22.138 19.812 22.757 19.889 23.304 19.957C23.835 20.023 24.337 20.086 24.968 20.613C25.372 20.951 25.435 21.166 24.546 22.259C24.323 22.532 24.114 22.79 23.985 23.054C23.678 23.679 23.774 24.355 23.856 24.952C23.993 25.94 23.965 26.175 23.376 26.391C23.151 26.473 22.927 26.541 22.708 26.608C21.7 26.921 20.446 27.303 20.204 28.866C20.135 29.317 19.866 29.569 19.556 29.864C19.265 30.135 18.935 30.448 18.861 30.927L18.83 31.173C18.771 31.665 18.75 31.761 18.379 31.872C17.731 32.065 17.186 32.608 16.884 33.364C16.516 34.288 16.584 35.346 17.071 36.194C17.231 36.471 17.292 36.891 17.202 37.092C17.184 37.127 17.171 37.158 17.071 37.18C17.016 37.192 16.903 37.215 16.717 37.065C16.172 36.622 15.749 35.315 15.749 34.489C15.749 33.604 15.156 32.952 14.684 32.428C14.36 32.071 14.024 31.701 14.024 31.42C14.024 31.024 14.112 30.758 14.231 30.389C14.401 29.869 14.61 29.223 14.61 28.086C14.61 26.836 13.563 26.09 12.72 25.49C12.153 25.086 11.567 24.67 11.537 24.287C11.459 23.275 10.844 22.697 10.349 22.23C9.845 21.755 9.56 21.459 9.55 20.88C9.537 20.118 9.866 19.723 10.217 19.303C10.521 18.938 10.9 18.484 10.784 17.857C10.614 16.919 9.746 16.75 9.227 16.647C8.862 16.576 8.616 16.518 8.543 16.389C7.811 15.085 6.838 14.96 6.07 14.999C5.294 15.036 5.109 14.932 5.039 14.395C4.956 13.749 4.652 13.043 4.333 12.479C7.349 7.16199 12.565 3.23699 18.749 1.98799ZM22.999 44.438C20.558 44.438 18.217 44.008 16.026 43.25C16.381 41.959 16.78 41.828 17.372 41.65C17.58 41.587 17.788 41.523 17.991 41.433C18.509 41.203 18.721 40.753 18.862 40.456C19.008 40.153 19.046 40.106 19.175 40.071C19.386 40.01 19.534 40.044 19.623 40.163C19.721 40.3 19.745 40.55 19.577 40.802L19.362 41.116C19.089 41.511 18.803 41.919 19.05 42.403C19.305 42.903 19.785 42.915 20.68 42.932C22.397 42.963 24.303 42.918 25.207 41.887C25.42 41.643 25.977 41.102 26.504 41.338C28.32 42.149 29.238 42.111 29.979 42.082C30.286 42.07 30.53 42.061 30.803 42.123C31.061 42.182 31.278 42.283 31.332 42.748C28.771 43.838 25.954 44.438 22.999 44.438ZM32.716 42.084C32.411 41.121 31.652 40.783 31.142 40.664C30.671 40.559 30.288 40.572 29.919 40.588C29.278 40.611 28.614 40.641 27.116 39.973C26.114 39.524 24.979 39.871 24.079 40.903C23.612 41.434 21.958 41.456 20.94 41.44C21.311 40.737 21.278 39.897 20.835 39.286C20.376 38.653 19.583 38.405 18.771 38.63C17.966 38.855 17.679 39.456 17.508 39.816C17.465 39.91 17.4 40.046 17.378 40.068C17.235 40.132 17.089 40.173 16.942 40.216C16.026 40.489 15.162 40.909 14.621 42.732C6.952 39.463 1.56 31.85 1.56 23.002C1.56 19.869 2.251 16.9 3.464 14.217C3.506 14.356 3.537 14.487 3.552 14.6C3.726 15.945 4.588 16.596 6.146 16.51C6.591 16.489 6.881 16.506 7.236 17.135C7.652 17.877 8.424 18.03 8.937 18.129C9.015 18.146 9.115 18.164 9.201 18.186C9.158 18.243 9.107 18.303 9.064 18.356C8.65 18.851 8.027 19.6 8.049 20.919C8.07 22.157 8.791 22.837 9.318 23.333C9.757 23.747 10.006 24.001 10.04 24.413C10.123 25.495 11.04 26.147 11.848 26.724C12.495 27.185 13.108 27.62 13.108 28.097C13.108 28.995 12.954 29.474 12.802 29.935C12.664 30.359 12.522 30.798 12.522 31.431C12.522 32.292 13.08 32.906 13.571 33.447C13.92 33.834 14.249 34.193 14.249 34.502C14.249 35.541 14.721 37.387 15.77 38.24C16.143 38.547 16.561 38.701 16.995 38.701C17.12 38.701 17.246 38.687 17.373 38.662C17.921 38.549 18.346 38.215 18.567 37.723C18.901 36.981 18.711 36.053 18.372 35.461C18.112 35.008 18.077 34.436 18.278 33.934C18.403 33.621 18.61 33.381 18.809 33.323C20.135 32.927 20.254 31.909 20.321 31.362L20.325 31.237C20.354 31.184 20.489 31.059 20.585 30.967C20.966 30.61 21.54 30.069 21.69 29.106C21.78 28.524 22.122 28.374 23.151 28.055C23.397 27.981 23.647 27.903 23.899 27.811C25.674 27.157 25.467 25.655 25.344 24.758C25.289 24.354 25.233 23.936 25.334 23.723C25.389 23.614 25.561 23.403 25.711 23.215C26.281 22.516 27.613 20.875 25.932 19.471C24.961 18.662 24.112 18.557 23.491 18.479C23.014 18.42 22.846 18.385 22.684 18.215C22.496 18.018 22.305 17.752 22.1 17.473C21.416 16.539 20.502 15.266 19.057 15.328C18.539 15.352 18.241 15.057 17.743 14.535C17.434 14.211 17.084 13.842 16.624 13.596C15.685 13.092 14.976 13.442 14.506 13.672C14.189 13.828 14.01 13.907 13.778 13.869C12.888 13.723 12.222 13.977 11.516 14.248C11.227 14.356 10.914 14.477 10.549 14.582C10.335 14.643 10.268 14.586 10.245 14.567C10.139 14.481 10.042 14.229 10.062 13.916C10.109 13.231 9.844 12.6 9.335 12.18C8.855 11.784 8.219 11.635 7.537 11.762C7.563 11.631 7.637 11.453 7.79 11.295C8.178 10.895 8.752 10.621 9.101 10.668C9.207 10.684 9.347 10.732 9.482 10.983C10.029 12.007 10.877 12.155 11.488 11.949C12.365 11.654 12.923 10.625 12.746 9.52699C12.722 9.37299 12.695 9.21399 12.683 9.10899C12.746 9.06499 12.824 9.01799 12.921 8.95499C13.103 8.83799 13.333 8.68599 13.623 8.47899C14.114 8.12599 14.565 7.67099 15.005 7.23399C15.793 6.44399 16.538 5.69599 17.308 5.69599C17.708 5.69599 21.246 5.66199 21.997 4.44299C22.204 4.10899 22.22 3.71299 22.042 3.35399C21.798 2.86599 21.228 2.30399 20.604 1.70799C21.391 1.61999 22.19 1.56499 22.999 1.56499C24.921 1.56499 26.772 1.84199 28.546 2.31899C27.954 3.04799 28.019 3.74699 28.077 4.00699C28.274 4.86499 29.087 5.44999 30.102 5.46199C31.323 5.47599 31.69 5.72799 31.713 5.85799L31.805 6.38399C31.961 7.32099 32.086 8.05999 32.785 9.26899C32.937 9.53499 32.568 10.228 32.297 10.736C32.09 11.125 31.875 11.529 31.758 11.925C31.479 12.876 30.82 15.107 32.672 16.354C33.182 16.697 33.283 16.941 33.451 17.345C33.603 17.706 33.791 18.157 34.265 18.669C35.542 20.05 37.298 19.71 38.349 19.505L38.63 19.452C38.685 19.443 38.806 19.421 38.991 19.581C39.434 19.966 39.884 21.085 39.823 22.632C39.782 23.667 39.352 24.585 38.934 25.472C38.518 26.357 38.121 27.195 38.186 28.066L38.209 28.361C38.285 29.216 38.441 30.994 37.736 31.865C37.068 32.689 37.052 33.742 37.699 34.426C38.01 34.754 38.498 35 39.119 35C39.695 35 40.389 34.787 41.156 34.232C41.197 34.203 41.24 34.166 41.281 34.132C39.222 37.51 36.257 40.271 32.716 42.084ZM40.282 33.012C39.483 33.59 38.946 33.551 38.796 33.391C38.681 33.27 38.728 33.03 38.907 32.807C39.995 31.463 39.802 29.278 39.71 28.227L39.689 27.956C39.654 27.476 39.953 26.843 40.296 26.106C40.755 25.131 41.275 24.028 41.325 22.686C41.397 20.855 40.88 19.23 39.979 18.446C39.5 18.034 38.942 17.87 38.366 17.973L38.065 18.031C36.942 18.251 36.028 18.36 35.368 17.647C35.073 17.329 34.964 17.067 34.837 16.762C34.63 16.265 34.394 15.699 33.511 15.107C32.732 14.581 32.823 13.624 33.198 12.344C33.272 12.096 33.442 11.777 33.622 11.439C34.083 10.577 34.655 9.50199 34.087 8.51599C33.524 7.54099 33.435 7.00999 33.286 6.13299L33.19 5.58399C32.897 3.98799 30.805 3.96499 30.12 3.95699C29.782 3.95299 29.571 3.80999 29.54 3.66799C29.503 3.50999 29.685 3.17799 30.224 2.84199C38.495 5.81599 44.438 13.717 44.438 23C44.438 25.145 44.112 27.211 43.524 29.166C42.243 31.072 41.124 32.404 40.282 33.012Z" fill="black"/>
</svg>
