<svg width="46" height="46" viewBox="0 0 46 46" fill="none" xmlns="http://www.w3.org/2000/svg">
<path d="M29.5 22.032C29.5 25.485 32.312 28.295 35.767 28.295C39.219 28.295 42.03 25.485 42.03 22.032C42.03 18.579 39.219 15.769 35.767 15.769C32.311 15.77 29.5 18.579 29.5 22.032ZM40.528 22.032C40.528 24.658 38.391 26.795 35.765 26.795C33.136 26.795 30.999 24.658 30.999 22.032C30.999 19.406 33.136 17.269 35.765 17.269C38.392 17.27 40.528 19.406 40.528 22.032ZM24.02 16.518C24.02 11.903 20.263 8.147 15.646 8.147C11.03 8.147 7.274 11.903 7.274 16.518C7.274 21.137 11.03 24.892 15.646 24.892C20.263 24.892 24.02 21.137 24.02 16.518ZM15.646 23.393C11.857 23.393 8.774 20.309 8.774 16.518C8.774 12.729 11.857 9.647 15.646 9.647C19.437 9.647 22.52 12.729 22.52 16.518C22.52 20.309 19.437 23.393 15.646 23.393ZM23 0.0630035C10.353 0.0630035 0.0620003 10.354 0.0620003 23.001C0.0620003 35.647 10.352 45.939 23 45.939C35.648 45.939 45.938 35.65 45.938 23.001C45.938 10.354 35.647 0.0630035 23 0.0630035ZM23 44.438C11.179 44.438 1.562 34.821 1.562 23C1.562 11.18 11.178 1.562 23 1.562C34.82 1.562 44.438 11.179 44.438 23C44.438 34.821 34.82 44.438 23 44.438ZM31.153 12.555C32.397 12.555 33.409 11.542 33.409 10.299C33.409 9.053 32.397 8.04 31.153 8.04C29.909 8.04 28.896 9.053 28.896 10.299C28.896 11.541 29.909 12.555 31.153 12.555ZM31.153 9.54C31.57 9.54 31.909 9.881 31.909 10.299C31.909 10.715 31.57 11.055 31.153 11.055C30.736 11.055 30.396 10.715 30.396 10.299C30.396 9.881 30.736 9.54 31.153 9.54ZM10.195 28.581C8.782 28.581 7.633 29.729 7.633 31.142C7.633 32.556 8.781 33.704 10.195 33.704C11.607 33.704 12.757 32.557 12.757 31.142C12.757 29.729 11.607 28.581 10.195 28.581ZM10.195 32.202C9.61 32.202 9.133 31.725 9.133 31.141C9.133 30.555 9.609 30.079 10.195 30.079C10.78 30.079 11.257 30.555 11.257 31.141C11.257 31.726 10.78 32.202 10.195 32.202ZM22.543 33.626C20.085 33.626 18.085 35.626 18.085 38.085C18.085 40.543 20.085 42.543 22.543 42.543C25 42.543 27 40.543 27 38.085C27 35.626 25 33.626 22.543 33.626ZM22.543 41.043C20.911 41.043 19.585 39.716 19.585 38.085C19.585 36.453 20.911 35.126 22.543 35.126C24.174 35.126 25.5 36.453 25.5 38.085C25.5 39.716 24.172 41.043 22.543 41.043ZM21.141 6.751C21.958 6.751 22.625 6.08501 22.625 5.26801C22.625 4.45001 21.958 3.784 21.141 3.784C20.323 3.784 19.657 4.45001 19.657 5.26801C19.656 6.08501 20.322 6.751 21.141 6.751ZM26.25 24.122C25.433 24.122 24.767 24.788 24.767 25.606C24.767 26.424 25.433 27.09 26.25 27.09C27.068 27.09 27.734 26.424 27.734 25.606C27.734 24.788 27.068 24.122 26.25 24.122ZM4.966 22.251C4.149 22.251 3.483 22.917 3.483 23.735C3.483 24.553 4.149 25.219 4.966 25.219C5.784 25.219 6.45 24.553 6.45 23.735C6.45 22.917 5.785 22.251 4.966 22.251ZM34.315 35.089C33.498 35.089 32.832 35.755 32.832 36.573C32.832 37.391 33.498 38.057 34.315 38.057C35.132 38.057 35.798 37.391 35.798 36.573C35.798 35.755 35.133 35.089 34.315 35.089Z" fill="black"/>
</svg>
