<svg width="54" height="46" viewBox="0 0 54 46" fill="none" xmlns="http://www.w3.org/2000/svg">
<path d="M53.518 23.356C53.551 20.835 51.969 18.428 48.96 16.374C48.957 16.366 48.953 16.357 48.951 16.349C48.806 15.874 48.644 15.408 48.471 14.947C48.362 14.655 48.247 14.367 48.126 14.08C47.966 13.702 47.795 13.33 47.615 12.963C47.573 12.877 47.539 12.787 47.496 12.702C48.249 9.196 47.771 6.322 46.001 4.502C44.247 2.698 41.434 2.114 37.859 2.784C35.681 1.61 33.325 0.804004 30.861 0.389004C30.827 0.383004 30.793 0.377004 30.757 0.371004C30.453 0.321004 30.148 0.279004 29.841 0.242004C29.746 0.230004 29.652 0.217005 29.556 0.207005C29.299 0.179005 29.041 0.157003 28.785 0.137003C28.642 0.126003 28.501 0.114003 28.357 0.105003C28.13 0.0920034 27.904 0.0850043 27.677 0.0790043C27.554 0.0760043 27.432 0.0660043 27.308 0.0650043L27.024 0.0630035C27.015 0.0630035 27.006 0.0630035 26.997 0.0630035C26.991 0.0630035 26.984 0.064003 26.978 0.064003C26.281 0.064003 25.591 0.101004 24.909 0.163004C24.84 0.169004 24.77 0.172005 24.701 0.179005C24.091 0.241005 23.491 0.332003 22.895 0.442003C22.699 0.477003 22.503 0.513003 22.308 0.553003C21.85 0.649003 21.397 0.763003 20.949 0.887003C20.515 1.005 20.089 1.14 19.664 1.283C19.46 1.352 19.256 1.422 19.055 1.497C16.08 2.595 13.334 4.292 11 6.564C9.12 8.395 7.644 10.48 6.529 12.703C6.39 12.975 6.259 13.252 6.132 13.53C5.987 13.849 5.847 14.169 5.717 14.493C5.548 14.912 5.389 15.336 5.244 15.767C2.164 17.743 0.515 20.119 0.483 22.644C0.449 25.17 2.08 27.586 5.035 29.615C5.415 30.881 5.904 32.107 6.498 33.289C5.724 36.852 6.239 39.691 7.998 41.498C9.288 42.822 11.164 43.478 13.46 43.478C14.294 43.478 15.189 43.38 16.126 43.207C16.703 43.519 17.293 43.804 17.895 44.063C17.914 44.071 17.932 44.08 17.95 44.086C18.611 44.37 19.286 44.62 19.972 44.84C19.998 44.848 20.023 44.858 20.049 44.865C20.726 45.08 21.415 45.26 22.112 45.41C22.151 45.419 22.19 45.43 22.229 45.437C22.914 45.581 23.608 45.691 24.31 45.771C24.365 45.779 24.42 45.787 24.476 45.792C25.165 45.867 25.862 45.909 26.564 45.922C26.607 45.923 26.648 45.929 26.691 45.931L26.947 45.933C26.966 45.933 26.984 45.933 27.002 45.933C27.014 45.933 27.025 45.931 27.037 45.931C27.727 45.931 28.409 45.896 29.085 45.833C29.157 45.826 29.23 45.823 29.302 45.815C29.913 45.753 30.517 45.662 31.113 45.551C31.299 45.518 31.482 45.487 31.665 45.447C32.139 45.347 32.605 45.23 33.068 45.101C33.478 44.99 33.881 44.862 34.286 44.726C34.515 44.65 34.742 44.573 34.967 44.489C37.936 43.39 40.673 41.695 43.002 39.427C45.422 37.073 47.231 34.265 48.404 31.203C48.45 31.083 48.494 30.962 48.539 30.843C48.613 30.638 48.697 30.439 48.766 30.235C51.734 28.325 53.48 25.961 53.518 23.356ZM4.468 27.309C2.842 25.862 1.962 24.28 1.984 22.664C2.008 20.798 3.217 19.257 4.596 18.098C4.269 19.582 4.086 21.118 4.065 22.691C4.043 24.259 4.184 25.803 4.468 27.309ZM44.927 5.547C46.034 6.685 46.479 8.438 46.3 10.597C46.196 10.434 46.073 10.281 45.964 10.12C45.731 9.777 45.488 9.442 45.236 9.113C45.047 8.864 44.851 8.619 44.652 8.377C44.351 8.015 44.04 7.663 43.717 7.32C43.618 7.215 43.533 7.101 43.433 6.998C42.347 5.882 41.167 4.891 39.913 4.032C41.717 3.928 43.634 4.219 44.927 5.547ZM6.349 28.717C5.471 25.524 5.352 22.171 5.973 18.934C5.995 18.821 6.007 18.704 6.031 18.59C6.106 18.23 6.213 17.877 6.307 17.521C6.399 17.176 6.478 16.827 6.587 16.489C6.63 16.353 6.688 16.22 6.734 16.085C9.394 8.366 16.349 2.604 24.687 1.695C24.741 1.689 24.794 1.677 24.848 1.672C25.556 1.6 26.272 1.563 26.997 1.563H27.011C27.377 1.563 27.734 1.599 28.097 1.617C28.517 1.638 28.939 1.652 29.351 1.698C29.605 1.725 29.853 1.775 30.105 1.811C30.581 1.88 31.056 1.947 31.519 2.047C31.673 2.08 31.825 2.127 31.978 2.164C32.533 2.296 33.083 2.436 33.622 2.611C33.668 2.626 33.712 2.645 33.758 2.66C39.001 4.405 43.338 8.12 45.907 12.915C45.428 14.842 44.554 16.986 43.301 19.25C42.714 18.998 42.078 18.846 41.408 18.846C41.01 18.846 40.609 18.896 40.22 18.995C37.648 19.647 36.086 22.271 36.74 24.843C36.943 25.645 37.339 26.354 37.87 26.928C36.782 28.196 35.632 29.438 34.419 30.618C33.363 31.644 32.272 32.603 31.169 33.523C29.764 33.613 28.324 33.652 26.86 33.63C24.728 33.603 22.617 33.457 20.586 33.2C17.79 32.848 15.161 32.295 12.772 31.552C10.216 30.759 8.052 29.794 6.349 28.717ZM44.613 22.843C45.06 24.614 43.986 26.42 42.217 26.868C40.459 27.312 38.632 26.208 38.192 24.472C37.744 22.701 38.817 20.895 40.588 20.446C40.857 20.378 41.132 20.343 41.405 20.343C42.922 20.344 44.24 21.372 44.613 22.843ZM9.074 40.451C7.774 39.117 7.537 37.18 7.691 35.388C8.069 35.976 8.482 36.544 8.916 37.099C8.954 37.148 8.984 37.199 9.022 37.245C9.504 37.85 10.017 38.436 10.564 39C10.571 39.007 10.579 39.013 10.585 39.021C11.1 39.548 11.637 40.046 12.191 40.517C12.21 40.535 12.228 40.551 12.248 40.568C12.808 41.041 13.389 41.482 13.985 41.894C14.004 41.909 14.022 41.921 14.041 41.935C14.062 41.95 14.083 41.964 14.103 41.98C11.936 42.104 10.198 41.605 9.074 40.451ZM16.43 41.646C16.201 41.515 15.981 41.372 15.757 41.232C15.473 41.056 15.181 40.896 14.905 40.706C14.469 40.407 14.052 40.075 13.637 39.742C13.5 39.633 13.355 39.537 13.22 39.424C12.673 38.963 12.145 38.473 11.639 37.953C11.125 37.425 10.643 36.876 10.194 36.31C10.179 36.289 10.167 36.269 10.152 36.25C8.829 34.569 7.792 32.74 7.044 30.823C8.573 31.636 10.337 32.364 12.325 32.981C14.798 33.751 17.514 34.325 20.397 34.686C22.483 34.95 24.65 35.098 26.838 35.126C27.118 35.13 27.393 35.132 27.671 35.132C28.18 35.132 28.686 35.124 29.186 35.111C27.124 36.674 25.041 38.023 22.987 39.103C20.614 40.355 18.399 41.204 16.43 41.646ZM29.346 44.301C29.283 44.309 29.221 44.322 29.158 44.328C28.451 44.398 27.735 44.435 27.012 44.435H26.98C26.585 44.435 26.197 44.398 25.806 44.376C25.435 44.356 25.062 44.347 24.695 44.308C24.369 44.273 24.05 44.212 23.727 44.162C23.347 44.104 22.964 44.058 22.589 43.977C22.29 43.917 22 43.83 21.705 43.754C21.317 43.656 20.926 43.566 20.545 43.448C20.266 43.359 19.996 43.247 19.721 43.148C19.338 43.008 18.95 42.879 18.576 42.72C18.522 42.698 18.471 42.666 18.417 42.644C20.074 42.136 21.84 41.404 23.684 40.433C25.98 39.226 28.307 37.709 30.598 35.931C30.981 35.633 31.356 35.306 31.735 34.993C37.671 34.586 42.871 33.295 46.702 31.403C43.703 38.363 37.124 43.441 29.346 44.301ZM47.49 29.23C44.181 31.201 39.31 32.668 33.719 33.296C34.305 32.771 34.893 32.244 35.462 31.691C36.723 30.462 37.919 29.17 39.05 27.853C39.75 28.246 40.553 28.47 41.401 28.47C41.797 28.47 42.196 28.419 42.587 28.322C45.158 27.67 46.722 25.047 46.067 22.474C45.821 21.502 45.282 20.675 44.569 20.049C45.559 18.27 46.328 16.562 46.87 14.954C47.383 16.215 47.776 17.536 48.042 18.901C48.047 18.924 48.056 18.947 48.06 18.971C48.173 19.569 48.25 20.18 48.314 20.794C48.325 20.901 48.347 21.005 48.357 21.113C48.419 21.82 48.445 22.536 48.437 23.26C48.437 23.269 48.437 23.277 48.437 23.286C48.407 25.352 48.07 27.344 47.49 29.23ZM49.416 27.883C49.445 27.74 49.465 27.596 49.493 27.451C49.609 26.869 49.707 26.279 49.777 25.683C49.787 25.605 49.794 25.527 49.801 25.45C49.877 24.745 49.924 24.031 49.935 23.309V23.307C49.945 22.574 49.915 21.848 49.857 21.131C49.853 21.084 49.853 21.036 49.849 20.988C49.79 20.323 49.7 19.667 49.584 19.019C49.565 18.917 49.554 18.815 49.535 18.714C50.886 19.915 52.04 21.479 52.014 23.335C51.995 24.963 51.057 26.508 49.416 27.883Z" fill="black"/>
</svg>
