<svg width="64" height="46" viewBox="0 0 64 46" fill="none" xmlns="http://www.w3.org/2000/svg">
<path d="M55.119 23.069C55.131 19.693 54.416 16.33 52.928 13.188C50.307 7.651 45.686 3.465 39.916 1.405C34.148 -0.658 27.92 -0.348 22.382 2.274C19.241 3.761 16.556 5.91 14.426 8.528C8.56 7.289 2.023 8.154 0.552999 12.27C-0.902001 16.342 2.75 21.733 9.571 26.739C10.934 34.965 16.619 41.796 24.48 44.605C27.002 45.506 29.612 45.945 32.203 45.945C37.673 45.945 43.046 43.974 47.298 40.259C48.171 40.308 49.027 40.334 49.861 40.334C50.172 40.334 50.482 40.33 50.787 40.323C57.746 40.165 62.254 38.186 63.48 34.752C64.951 30.638 60.441 25.825 55.119 23.069ZM9.879 17.786C9.026 16.565 8.67 15.515 8.855 14.754C8.958 14.329 9.245 13.149 11.624 12.891C11.244 13.667 10.894 14.462 10.599 15.288C10.307 16.104 10.078 16.942 9.879 17.786ZM12.011 15.792C12.536 14.322 13.221 12.94 14.028 11.646C15.2 15.996 22.102 21.268 31.607 24.664C36.904 26.558 41.949 27.489 46.012 27.489C49.244 27.489 51.834 26.886 53.455 25.72C53.258 27.237 52.912 28.744 52.385 30.219C51.983 31.345 51.473 32.437 50.889 33.483C46.246 34.138 38.586 33.422 29.622 30.22C20.656 27.017 14.275 22.717 11.099 19.267C11.31 18.091 11.608 16.922 12.011 15.792ZM53.797 30.724C54.092 29.899 54.324 29.062 54.524 28.221C56.196 29.929 55.674 31.022 55.487 31.414C55.147 32.12 54.206 32.706 52.772 33.11C53.152 32.331 53.506 31.539 53.797 30.724ZM39.412 2.817C41.883 3.7 44.115 5.017 46.058 6.665C44.984 7.28 41.988 7.335 38.271 6.008C34.554 4.679 32.271 2.739 31.831 1.583C34.379 1.54 36.939 1.935 39.412 2.817ZM30.308 1.665C30.728 3.845 34.123 6.118 37.768 7.42C39.817 8.151 42.002 8.601 43.829 8.601C45.251 8.601 46.44 8.318 47.186 7.695C48.973 9.447 50.471 11.502 51.573 13.832C51.63 13.951 51.671 14.076 51.725 14.196C50.532 16.441 43.764 16.894 35.444 13.923C31.475 12.504 27.949 10.573 25.518 8.487C23.471 6.73 22.441 5.013 22.679 3.816C22.797 3.757 22.906 3.687 23.025 3.63C25.354 2.528 27.815 1.888 30.308 1.665ZM21.187 4.612C21.372 6.149 22.501 7.874 24.541 9.624C27.107 11.827 30.8 13.854 34.939 15.334C39.021 16.792 42.914 17.509 46.066 17.509C48.921 17.509 51.142 16.905 52.367 15.746C53.25 18.183 53.654 20.727 53.621 23.277C52.342 26.462 43.273 27.239 32.111 23.252C20.944 19.261 14.419 12.908 15.458 9.636C17.044 7.646 18.966 5.937 21.187 4.612ZM24.985 43.193C20.969 41.757 17.567 39.193 15.092 35.913C17.847 37.985 21.519 39.917 25.631 41.387C29.744 42.857 33.807 43.687 37.252 43.831C33.26 44.8 29.002 44.628 24.985 43.193ZM42.422 41.838C38.818 42.954 32.447 42.23 26.136 39.975C19.827 37.72 14.44 34.245 12.357 31.098C11.947 30.094 11.609 29.055 11.353 27.985C15.759 30.946 21.244 33.717 27.4 35.93L27.561 35.989C33.629 38.157 39.688 39.554 45.145 40.087C44.277 40.744 43.365 41.326 42.422 41.838ZM62.068 34.249C61.08 37.016 56.955 38.684 50.752 38.825C44.264 38.979 36.256 37.485 28.224 34.633L28.064 34.574C11.775 28.756 -0.175002 18.772 1.967 12.774C3.082 9.653 8.49 8.973 13.42 9.856C13.081 10.342 12.749 10.833 12.447 11.346C8.881 11.414 7.732 13.02 7.398 14.399C6.27 19.044 16.418 27.096 29.116 31.632C35.692 33.982 42.337 35.168 47.503 35.168C52.314 35.168 55.841 34.14 56.839 32.064C57.454 30.786 57.579 28.801 54.866 26.501C54.958 25.913 55.012 25.323 55.057 24.732C59.43 27.174 63.184 31.128 62.068 34.249Z" fill="black"/>
</svg>
