<svg width="49" height="47" viewBox="0 0 49 47" fill="none" xmlns="http://www.w3.org/2000/svg">
<path d="M28.979 11.549C26.673 12.32 25.424 14.822 26.196 17.129C26.813 18.972 28.538 20.14 30.383 20.14C30.845 20.14 31.316 20.067 31.779 19.912C34.085 19.141 35.333 16.637 34.562 14.331C33.788 12.026 31.292 10.778 28.979 11.549ZM31.3 18.489C29.781 18.999 28.128 18.175 27.618 16.653C27.109 15.132 27.933 13.48 29.455 12.971C29.761 12.869 30.07 12.821 30.376 12.821C31.593 12.821 32.73 13.592 33.139 14.807C33.646 16.329 32.82 17.981 31.3 18.489ZM6.59 21.385C5.245 21.834 4.517 23.295 4.966 24.641C5.185 25.292 5.644 25.821 6.259 26.126C6.62 26.307 7.011 26.397 7.404 26.397C7.679 26.397 7.955 26.352 8.222 26.262C8.873 26.045 9.401 25.586 9.708 24.971C10.015 24.356 10.063 23.658 9.845 23.008C9.394 21.665 7.935 20.936 6.59 21.385ZM8.364 24.303C8.237 24.559 8.017 24.75 7.747 24.842C7.475 24.93 7.184 24.912 6.927 24.783C6.671 24.656 6.48 24.435 6.39 24.166C6.202 23.603 6.505 22.994 7.066 22.807C7.179 22.77 7.293 22.752 7.405 22.752C7.853 22.752 8.273 23.037 8.424 23.486C8.514 23.756 8.493 24.047 8.364 24.303ZM45.146 29.576C45.657 27.683 45.948 25.701 45.948 23.65C45.948 10.998 35.656 0.705002 23.005 0.705002C10.354 0.705002 0.0599976 10.999 0.0599976 23.65C0.0599976 36.299 10.353 46.592 23.004 46.592C28.641 46.592 33.792 44.531 37.79 41.15C38.945 42.025 40.378 42.549 41.936 42.549C45.733 42.549 48.823 39.459 48.823 35.662C48.82 33.025 47.329 30.732 45.146 29.576ZM43.25 16.648C44.014 18.846 44.447 21.196 44.447 23.65C44.447 24.301 44.407 24.945 44.347 25.584C43.689 24.465 42.888 23.068 42.394 22.067C41.304 19.864 42.195 18.399 43.135 16.848C43.178 16.78 43.21 16.715 43.25 16.648ZM42.533 14.842C42.365 15.224 42.118 15.637 41.853 16.07C40.9 17.639 39.595 19.79 41.049 22.733C41.88 24.416 43.486 27.084 44 27.93C43.924 28.301 43.833 28.664 43.737 29.026C43.161 28.871 42.557 28.778 41.932 28.778C41.139 28.778 40.381 28.92 39.673 29.168C39.442 28.685 39.208 28.194 38.983 27.74C36.542 22.834 35.075 19.787 41.571 12.975C41.923 13.579 42.243 14.202 42.533 14.842ZM23.004 2.206C23.108 2.206 23.21 2.221 23.315 2.222C22.254 3.167 21.3 4.089 20.442 4.929C18.093 7.228 16.239 9.044 13.629 9.916C10.912 10.823 8.343 10.7 6.141 10.45C10.067 5.442 16.159 2.206 23.004 2.206ZM5.123 11.839C6.256 11.983 7.546 12.129 8.954 12.129C10.56 12.129 12.307 11.94 14.104 11.338C17.041 10.356 19.102 8.338 21.491 6C22.692 4.824 23.939 3.609 25.443 2.355C27.361 2.574 29.2 3.05 30.931 3.742C28.015 4.652 25.019 6.117 22.827 9.093C20.319 12.496 17.386 15.937 11.569 17.348C8.993 17.973 6.942 17.696 5.133 17.452C4.246 17.331 3.393 17.23 2.543 17.229C3.151 15.3 4.028 13.492 5.123 11.839ZM8.444 39.348C8.606 37.289 10.409 32.918 13.721 32.41C16.34 32.01 18.215 31.451 19.584 31.041C21.66 30.424 22.548 30.193 23.672 30.762C24.391 31.127 24.842 31.842 24.82 32.586C24.788 33.801 23.58 35.02 21.506 35.93C17.266 37.795 15.477 40.492 16.164 43.955C13.263 42.975 10.644 41.389 8.444 39.348ZM20.082 42.711C19.808 43.416 19.757 44.135 19.895 44.842C19.198 44.74 18.511 44.606 17.836 44.438C16.838 41.25 18.166 39.039 22.109 37.303C25.706 35.723 26.292 33.696 26.32 32.627C26.357 31.307 25.583 30.049 24.349 29.424C22.645 28.563 21.257 28.977 19.153 29.604C17.753 30.022 16.008 30.543 13.493 30.928C9.95 31.471 7.789 35.24 7.142 38.033C5.318 36.023 3.873 33.672 2.913 31.082C3.936 29.6 6.431 29.348 9.571 29.053C12.563 28.772 16.286 28.422 19.878 26.801C20.245 26.635 20.605 26.469 20.954 26.305C24.456 24.674 26.22 24 27.963 26.559C29.289 28.502 30.511 29.444 31.49 30.201C32.08 30.655 32.546 31.014 32.854 31.469C33.27 32.082 33.371 32.683 33.159 33.301C32.845 34.228 31.511 36.043 26.12 37.814C24.895 38.213 21.149 39.979 20.082 42.711ZM23.004 45.094C22.491 45.094 21.989 45.053 21.485 45.016C21.256 44.434 21.246 43.854 21.479 43.258C22.264 41.246 25.318 39.653 26.589 39.237C31.172 37.733 33.86 35.899 34.58 33.785C34.943 32.719 34.775 31.627 34.098 30.625C33.655 29.974 33.077 29.526 32.408 29.012C31.512 28.324 30.395 27.463 29.206 25.715C26.666 21.993 23.587 23.426 20.324 24.946C19.978 25.106 19.626 25.27 19.264 25.434C15.9 26.953 12.464 27.276 9.433 27.559C6.52 27.834 3.948 28.1 2.38 29.457C1.859 27.607 1.56 25.664 1.56 23.65C1.56 21.954 1.779 20.312 2.152 18.729C3.015 18.687 3.916 18.799 4.933 18.938C5.984 19.08 7.11 19.232 8.374 19.232C9.445 19.232 10.616 19.123 11.923 18.805C18.228 17.276 21.481 13.45 24.034 9.983C26.382 6.797 29.727 5.549 33.03 4.708C36.134 6.358 38.793 8.744 40.758 11.64C33.191 19.443 35.157 23.411 37.644 28.407C37.867 28.855 38.097 29.335 38.327 29.81C36.365 31.025 35.051 33.191 35.051 35.664C35.051 37.352 35.665 38.899 36.68 40.102C32.961 43.199 28.21 45.094 23.004 45.094ZM41.936 41.051C38.965 41.051 36.549 38.635 36.549 35.664C36.549 32.693 38.965 30.277 41.936 30.277C44.907 30.277 47.323 32.693 47.323 35.664C47.323 38.635 44.904 41.051 41.936 41.051Z" fill="black"/>
</svg>
