<?xml version="1.0" encoding="UTF-8" standalone="no"?>
<!-- Created with Inkscape (http://www.inkscape.org/) -->

<svg xmlns:dc="http://purl.org/dc/elements/1.1/" xmlns:cc="http://creativecommons.org/ns#" xmlns:rdf="http://www.w3.org/1999/02/22-rdf-syntax-ns#" xmlns:svg="http://www.w3.org/2000/svg" xmlns="http://www.w3.org/2000/svg" xmlns:sodipodi="http://sodipodi.sourceforge.net/DTD/sodipodi-0.dtd" xmlns:inkscape="http://www.inkscape.org/namespaces/inkscape" id="svg2985" version="1.1" inkscape:version="0.48.5 r10040" width="988.83197" height="472.03244" sodipodi:docname="SW1977.jpg">
  <metadata id="metadata2991">
    <rdf:RDF>
      <cc:Work rdf:about="">
        <dc:format>image/svg+xml</dc:format>
        <dc:type rdf:resource="http://purl.org/dc/dcmitype/StillImage" />
        <dc:title></dc:title>
      </cc:Work>
    </rdf:RDF>
  </metadata>
  <defs id="defs2989" />
  <sodipodi:namedview pagecolor="#ffffff" bordercolor="#666666" borderopacity="1" objecttolerance="10" gridtolerance="10" guidetolerance="10" inkscape:pageopacity="0" inkscape:pageshadow="2" inkscape:window-width="1366" inkscape:window-height="706" id="namedview2987" showgrid="false" showguides="true" inkscape:guide-bbox="true" fit-margin-top="0" fit-margin-left="0" fit-margin-right="0" fit-margin-bottom="0" inkscape:zoom="0.84664556" inkscape:cx="-412.1532" inkscape:cy="178.44523" inkscape:window-x="-8" inkscape:window-y="-8" inkscape:window-maximized="1" inkscape:current-layer="svg2985" />
  <g id="g3094" transform="translate(-1,-1)">
    <path id="path3036" d="m 434.25,215.75 c -0.31723,-0.10574 -5.68799,8.23744 -15.1875,23.53125 -9.49951,15.29381 -23.1271,37.53826 -39.9375,65.21875 -10.91634,17.97516 -49.73738,81.60227 -61.625,101 -5.39295,8.8 -11.01973,18.025 -12.5,20.5 -2.90128,4.85093 -19.66481,32.26293 -24.84375,40.625 -1.74085,2.81083 -3.15625,5.39833 -3.15625,5.75 0,0.17584 5.14531,0.32347 13.4375,0.4375 8.29219,0.11403 19.73125,0.19033 32.3125,0.1875 L 368.5,472.96875 381.3125,449 l 12.84375,-24 22.90625,0 22.9375,0 -0.0312,4.25 c -0.0106,2.3375 -0.88304,13.025 -1.96875,23.75 -1.0857,10.725 -1.99635,19.6125 -2,19.75 -0.004,0.1375 20.09513,0.25 44.65625,0.25 l 44.65625,0 -0.625,-30.75 c -0.34976,-16.9125 -1.17809,-74.7375 -1.84375,-128.5 L 521.625,216 l -43.3125,0 c -23.82069,0 -43.65,-0.1125 -44.0625,-0.25 z m 9.21875,113.3125 4.9375,0 -3.9375,43 -23.8125,0 22.8125,-43 z" style="fill:black;fill-opacity:1;fill-rule:evenodd;stroke:none" inkscape:connector-curvature="0" />
    <path id="path3026" d="M 646.375,1.15625 C 638.87559,1.161572 632.12422,1.2016985 626.4375,1.25 615.06406,1.346603 608,1.5267508 608,1.75 c 0,0.6933543 13.78762,61.985618 32.09375,142.75 2.7426,12.1 7.06875,31.3375 9.625,42.75 l 4.65625,20.75 39.90625,0 c 18.80969,0 28.78023,-0.0186 33.96875,-0.25 2.59426,-0.11569 4.0092,-0.2899 4.71875,-0.53125 0.35478,-0.12068 0.52008,-0.24568 0.59375,-0.40625 0.0737,-0.16057 0.0495,-0.35639 -0.0312,-0.5625 -0.37693,-0.9625 -2.1831,-6.025 -4,-11.25 -1.81689,-5.225 -5.3229,-15.125 -7.8125,-22 -6.67464,-18.43192 -10.7966,-30.06657 -13.0625,-37.125 -1.13295,-3.52921 -1.79327,-5.9115 -2.09375,-7.4375 -0.15024,-0.763 -0.21167,-1.32028 -0.1875,-1.6875 0.0242,-0.36722 0.1364,-0.5523 0.3125,-0.59375 0.40499,-0.0953 0.64348,-0.22719 1.125,0.0625 0.48152,0.28969 1.18933,1.00911 2.5,2.59375 2.62134,3.16929 7.67138,9.84751 18.125,23.65625 8.75874,11.56989 16.18374,21.25625 16.5,21.53125 0.31625,0.275 1.0125,1.25578 1.5625,2.1875 0.55,0.93171 6.175,8.47146 12.5,16.75 L 770.5,208 l 43.84375,0 43.84375,0 -4.34375,-4.8125 c -10.32501,-11.43047 -44.68151,-49.11867 -48.9375,-53.6875 -6.44474,-6.91848 -11.30656,-12.18636 -14.84375,-16.28125 -1.76859,-2.04744 -3.21631,-3.79784 -4.34375,-5.3125 -1.12744,-1.51466 -1.95654,-2.80896 -2.5,-3.90625 -0.54346,-1.09729 -0.79587,-2.01717 -0.8125,-2.8125 -0.0166,-0.79533 0.20321,-1.45372 0.65625,-2.0625 0.45304,-0.60878 1.13445,-1.14986 2,-1.6875 0.86555,-0.53764 1.93534,-1.07434 3.15625,-1.65625 1.36596,-0.65105 2.57144,-1.33464 3.625,-2.0625 1.05356,-0.72786 1.94336,-1.5144 2.6875,-2.34375 0.74414,-0.82935 1.34353,-1.70076 1.78125,-2.65625 0.43772,-0.95549 0.70946,-1.98745 0.84375,-3.09375 0.13429,-1.1063 0.13489,-2.28072 -0.0312,-3.5625 -0.16614,-1.28178 -0.50517,-2.674334 -0.96875,-4.15625 -0.46358,-1.481916 -1.05448,-3.074531 -1.8125,-4.78125 -0.75802,-1.706719 -1.66928,-3.512563 -2.71875,-5.46875 -9.68651,-18.05543 -19.9294,-36.498629 -28.15625,-50.84375 -4.11343,-7.17256 -7.70656,-13.326624 -10.5,-17.90625 -2.79344,-4.579626 -4.78827,-7.561046 -5.625,-8.4375 C 746.28314,9.3577953 744.76154,8.0531251 743.15625,6.875 741.55096,5.6968749 739.875,4.6452956 738.5,3.96875 L 733.5,1.5 670.75,1.21875 C 662.12188,1.1804105 653.87441,1.150928 646.375,1.15625 z M 675.84375,46 l 21.6875,0 c 10.64187,4.364316 11.10576,13.604165 5.375,18.3125 l -20.65625,0 L 675.84375,46 z" style="fill:black;fill-opacity:1;fill-rule:evenodd;stroke:none" inkscape:connector-curvature="0" />
    <path id="path3086" d="M 565.375,1 C 554.25071,1 545.15985,1.0855376 538.84375,1.25 532.52765,1.4144624 529,1.647839 529,1.9375 c 0,0.5211309 -2.43656,7.1586306 -5.40625,14.75 -2.96969,7.591369 -18.78992,48.4625 -35.15625,90.8125 -17.93649,46.41297 -26.77181,69.25943 -31.125,80.25 -2.17659,5.49529 -3.23175,8.03615 -3.75,9.0625 -0.25913,0.51317 -0.37577,0.64948 -0.4375,0.59375 -0.0617,-0.0557 -0.0534,-0.30343 -0.0625,-0.5625 -0.0322,-0.91357 1.73433,-20.03857 3.9375,-42.5 2.20316,-22.46143 5.38401,-55.24375 7.0625,-72.84375 1.67849,-17.6 3.24267,-32.5625 3.46875,-33.25 0.0772,-0.234907 0.42959,-0.432518 1.125,-0.59375 0.69541,-0.161232 1.72443,-0.277477 3.1875,-0.375 C 474.76988,47.086203 479.38752,47 486.28125,47 l 18.34375,0 8.15625,-21.25 c 4.48683,-11.6875 8.45696,-22.0578132 8.8125,-23.03125 0.0771,-0.2109795 0.0623,-0.3995701 -0.25,-0.5625 C 521.03143,1.9933201 520.41184,1.8699248 519.3125,1.75 517.11383,1.5101504 512.95132,1.3480961 505.21875,1.25 489.75361,1.0538078 460.03117,1.0900632 403.34375,1.21875 L 284.46875,1.5 277.8125,4.78125 c -2.52673,1.2440076 -4.34574,2.0681978 -6.15625,3.46875 -0.90526,0.7002761 -1.80439,1.5601725 -2.78125,2.65625 -0.97686,1.096078 -2.03443,2.426594 -3.25,4.15625 -2.43114,3.459312 -5.51764,8.423464 -9.90625,15.84375 -4.38861,7.420286 -10.09834,17.310276 -17.78125,30.59375 -3.65826,6.325 -7.23492,12.709375 -10.0625,17.875 -2.82758,5.165625 -4.89939,9.1125 -5.53125,10.625 -0.96687,2.314417 -1.62992,4.517034 -1.96875,6.5625 -0.33883,2.045466 -0.34587,3.94682 -0.0625,5.6875 0.14168,0.87034 0.36011,1.68132 0.65625,2.46875 0.29614,0.78743 0.67513,1.54997 1.125,2.25 0.44987,0.70003 0.95963,1.32934 1.5625,1.9375 0.60287,0.60816 1.27612,1.1757 2.03125,1.6875 0.64979,0.4404 1.34588,0.79131 2.5625,1.0625 1.21662,0.27119 2.97048,0.46429 5.78125,0.625 5.62155,0.32143 15.46294,0.48677 33.625,0.71875 18.34983,0.23438 28.14643,0.39934 33.625,0.71875 2.73928,0.15971 4.40754,0.35244 5.5,0.625 1.09246,0.27256 1.63205,0.61602 2.125,1.0625 0.77774,0.70441 1.33332,1.58457 1.65625,2.6875 0.32293,1.10293 0.38868,2.42113 0.25,4 -0.13868,1.57887 -0.48666,3.43026 -1.09375,5.5625 -0.60709,2.13224 -1.44895,4.54948 -2.53125,7.3125 -1.22645,3.13103 -2.27192,5.56645 -3.34375,7.46875 -0.53591,0.95115 -1.08308,1.76903 -1.65625,2.46875 -0.57317,0.69972 -1.18272,1.29581 -1.84375,1.78125 -0.66103,0.48544 -1.388,0.87916 -2.1875,1.1875 -0.7995,0.30834 -1.66768,0.51911 -2.65625,0.6875 -1.97714,0.33679 -4.40042,0.4375 -7.4375,0.4375 -2.51033,0 -4.5237,-0.0838 -6.1875,-0.28125 -1.6638,-0.19746 -2.96594,-0.50032 -4,-1 -1.03406,-0.49968 -1.81638,-1.18709 -2.4375,-2.09375 -0.62112,-0.90666 -1.07504,-2.05035 -1.5,-3.46875 -0.45272,-1.51104 -0.65143,-2.6145 -0.59375,-3.71875 0.0577,-1.10425 0.36114,-2.20206 0.96875,-3.65625 0.41598,-0.9956 0.73748,-1.95715 0.90625,-2.71875 0.16877,-0.7616 0.19123,-1.30882 0.0312,-1.46875 C 274.93019,130.27389 257.52596,130 236.5625,130 l -38.125,0 -13.625,23.75 c -8.28207,14.44826 -12.42074,21.71254 -14.65625,26.125 -1.11776,2.20623 -1.75889,3.71053 -2.1875,5.03125 -0.42861,1.32072 -0.64971,2.45124 -0.9375,3.96875 -0.41837,2.20609 -0.53918,4.249 -0.34375,6.09375 0.0977,0.92238 0.28081,1.7943 0.53125,2.625 0.25044,0.8307 0.56608,1.60561 0.96875,2.34375 0.40267,0.73814 0.88308,1.44907 1.4375,2.09375 0.55442,0.64468 1.20057,1.23092 1.90625,1.78125 1.41137,1.10066 3.1115,2.00084 5.125,2.71875 0.69827,0.24897 3.75281,0.46692 8.5625,0.65625 4.80969,0.18933 11.37029,0.37102 19.125,0.5 15.50943,0.25796 35.74008,0.39392 56.03125,0.40625 20.29117,0.0123 40.63324,-0.10477 56.375,-0.34375 7.87088,-0.11949 14.60982,-0.28537 19.59375,-0.46875 4.98393,-0.18338 8.22565,-0.37702 9.15625,-0.625 2.42728,-0.6468 4.63789,-1.42399 6.65625,-2.3125 2.01836,-0.88851 3.84922,-1.89394 5.46875,-3.03125 1.61953,-1.13731 3.05044,-2.4193 4.28125,-3.8125 1.23081,-1.3932 2.24156,-2.90631 3.09375,-4.5625 0.50382,-0.97914 1.31998,-3.32188 2.21875,-6.3125 0.89877,-2.99062 1.89017,-6.62914 2.75,-10.1875 1.71964,-7.11671 7.38443,-30.5555 12.59375,-52.09375 2.56129,-10.58983 4.55235,-18.99354 6.03125,-25.6875 1.4789,-6.693965 2.45736,-11.670624 3,-15.5 0.27132,-1.914688 0.43534,-3.545596 0.5,-4.9375 0.0647,-1.391904 0.0299,-2.56447 -0.0937,-3.5625 -0.12374,-0.99803 -0.33113,-1.829436 -0.625,-2.5625 -0.29387,-0.733064 -0.67927,-1.371743 -1.125,-1.96875 -0.42125,-0.564226 -0.84784,-1.055183 -1.34375,-1.5 -0.49591,-0.444817 -1.06024,-0.816507 -1.75,-1.15625 -0.68976,-0.339743 -1.49721,-0.657245 -2.5,-0.90625 -1.00279,-0.249005 -2.18998,-0.452396 -3.625,-0.625 C 378.16116,65.592292 374.31408,65.406868 369,65.28125 363.68592,65.155632 356.89913,65.083218 348.1875,65.0625 338.13758,65.0386 329.8666,64.940596 323.96875,64.75 318.0709,64.559404 314.53582,64.288961 313.9375,63.96875 313.38234,63.671638 312.81765,63.161653 312.25,62.5 c -0.56765,-0.661653 -1.14571,-1.464703 -1.625,-2.3125 -0.47929,-0.847797 -0.86618,-1.738207 -1.15625,-2.59375 C 309.17868,56.738207 309,55.903643 309,55.21875 c 0,-0.663045 0.22586,-1.339082 0.65625,-2.03125 0.43039,-0.692168 1.07444,-1.386606 1.84375,-2.03125 0.76931,-0.644644 1.67073,-1.260778 2.6875,-1.78125 1.01677,-0.520472 2.13975,-0.961596 3.3125,-1.28125 1.3003,-0.354422 6.11728,-0.627596 14.15625,-0.8125 8.03897,-0.184904 19.31252,-0.279437 33.5,-0.28125 l 43.625,0 -0.90625,3.75 c -0.49614,2.0625 -6.25504,27.6 -12.8125,56.75 -6.55746,29.15 -14.21208,63.00228 -17,75.21875 -2.78792,12.21647 -5.0625,22.90397 -5.0625,23.75 0,0.17129 0.12233,0.30176 0.46875,0.4375 0.34642,0.13574 0.92704,0.27078 1.8125,0.375 1.77092,0.20844 4.79216,0.36212 9.875,0.46875 10.16568,0.21327 28.49695,0.25 61.15625,0.25 l 73.34375,0 5.53125,-19.25 5.53125,-19.25 17.5,-0.28125 17.46875,-0.25 0.625,9.25 c 0.34044,5.09986 0.94226,13.89375 1.3125,19.53125 l 0.65625,10.25 38.375,0 c 15.69183,0 25.2712,-0.0521 30.9375,-0.25 2.83315,-0.0989 4.66837,-0.22932 5.8125,-0.40625 1.14413,-0.17693 1.59375,-0.41354 1.59375,-0.6875 0,-0.73664 -2.711,-14.12414 -6.03125,-29.75 C 635.6485,161.28039 630.43764,136.8 627.40625,122.5 c -3.0314,-14.3 -9.71622,-45.8 -14.875,-70 C 607.37247,28.3 602.84453,6.8125 602.46875,4.75 L 601.78125,1 565.375,1 z m -12.28125,84.3125 5.03125,0 3.8125,40.625 -20.3125,0 11.46875,-40.625 z" style="fill:black;fill-opacity:1;fill-rule:evenodd;stroke:none" inkscape:connector-curvature="0" />
    <path id="path3048" d="m 710.5,216.5 71,0 71,0 6.59375,3.125 c 1.85238,0.87772 3.73228,1.98402 5.28125,3.0625 1.54897,1.07848 2.77448,2.12914 3.34375,2.9375 1.11418,1.58212 8.86643,15.25 17.25,30.375 8.38358,15.125 16.07302,28.9625 17.09375,30.75 l 1.875,3.25 -43.84375,0 -43.84375,0 -2.875,-5.75 c -0.96691,-1.93399 -1.93562,-3.55131 -2.96875,-4.875 -1.03313,-1.32369 -2.11538,-2.35913 -3.34375,-3.15625 -1.22837,-0.79712 -2.60362,-1.33322 -4.15625,-1.6875 -1.55263,-0.35428 -3.30658,-0.5361 -5.3125,-0.53125 -2.14629,0.005 -3.90007,0.12145 -5.34375,0.34375 -1.44368,0.2223 -2.55873,0.55996 -3.40625,1.0625 -0.84752,0.50254 -1.42345,1.15412 -1.78125,2 -0.3578,0.84588 -0.49423,1.90391 -0.46875,3.15625 0.0257,1.26476 0.33678,2.82272 0.875,4.53125 0.53822,1.70853 1.29891,3.5563 2.15625,5.3125 0.85734,1.7562 1.8294,3.43596 2.8125,4.84375 0.9831,1.40779 1.9595,2.55547 2.875,3.21875 0.68139,0.49367 1.32448,0.86192 2.625,1.15625 1.30052,0.29433 3.26339,0.48837 6.65625,0.65625 6.78572,0.33575 19.22442,0.51394 43.21875,0.78125 22.59148,0.25169 35.14045,0.42054 42.59375,0.75 3.72665,0.16473 6.19065,0.35829 8,0.625 1.80935,0.26671 2.95686,0.60753 4.09375,1.03125 2.44989,0.91309 4.42018,1.75001 6.125,2.6875 1.70482,0.93749 3.15364,1.96307 4.53125,3.34375 1.37761,1.38068 2.68797,3.10107 4.15625,5.34375 1.46828,2.24268 3.08569,5.00778 5.0625,8.53125 17.48413,31.16388 33.8898,60.9131 46.0625,83.34375 6.08635,11.21533 11.12316,20.60594 14.6875,27.4375 3.56434,6.83156 5.66002,11.11294 5.90625,12.09375 0.30724,1.22383 0.52832,2.39349 0.65625,3.5625 0.12793,1.16901 0.17465,2.32754 0.125,3.4375 -0.0497,1.10996 -0.18073,2.17204 -0.40625,3.21875 -0.22552,1.04671 -0.53784,2.08327 -0.9375,3.0625 -0.39966,0.97923 -0.89667,1.90496 -1.46875,2.8125 -0.57208,0.90754 -1.22597,1.79336 -1.96875,2.625 -0.74278,0.83164 -1.58824,1.62349 -2.5,2.375 -0.91176,0.75151 -1.88973,1.45783 -2.96875,2.125 l -4.90625,3.03125 -94.0625,0.1875 c -35.8315,0.0734 -59.64717,0.0661 -74.90625,-0.0937 -7.62954,-0.0799 -13.10188,-0.19167 -16.90625,-0.34375 -3.80437,-0.15208 -5.92343,-0.36033 -6.78125,-0.59375 -1.30997,-0.35646 -2.60604,-0.82603 -3.875,-1.40625 -1.26896,-0.58022 -2.50818,-1.2775 -3.71875,-2.0625 -1.21057,-0.785 -2.39646,-1.65421 -3.53125,-2.625 -1.13479,-0.97079 -2.23962,-2.01865 -3.28125,-3.15625 -1.04163,-1.1376 -2.0064,-2.37082 -2.9375,-3.65625 -0.9311,-1.28543 -1.82183,-2.64823 -2.625,-4.0625 -0.80317,-1.41427 -1.52963,-2.88212 -2.1875,-4.40625 -0.65787,-1.52413 -1.25482,-3.10375 -1.75,-4.71875 -2.90413,-9.47157 -7.99448,-27.37715 -12.3125,-42.96875 -4.31802,-15.5916 -7.84507,-28.87367 -7.625,-29.09375 0.18734,-0.18734 18.28962,-0.37185 37.59375,-0.5 19.30413,-0.12815 39.8029,-0.18388 44.84375,-0.0312 0.30175,0.009 1.04057,1.25972 2,3.25 0.95943,1.99028 2.15856,4.70815 3.3125,7.71875 1.40064,3.65424 2.53647,6.49742 3.65625,8.6875 0.55989,1.09504 1.11829,2.01468 1.6875,2.8125 0.56921,0.79782 1.14969,1.48476 1.78125,2.03125 0.63156,0.54649 1.31556,0.97146 2.0625,1.3125 0.74694,0.34104 1.55341,0.59977 2.46875,0.78125 1.83068,0.36296 4.05256,0.4375 6.875,0.4375 3.39548,0 5.58673,-0.078 7.1875,-0.375 0.80038,-0.14848 1.44669,-0.35908 2.03125,-0.625 0.58456,-0.26592 1.10102,-0.58784 1.625,-1 1.04888,-0.82505 1.84404,-1.67487 2.375,-2.59375 0.53096,-0.91888 0.79698,-1.91987 0.8125,-3.125 0.0155,-1.20513 -0.2213,-2.59744 -0.71875,-4.28125 -0.49745,-1.68381 -1.24206,-3.64509 -2.25,-6 -1.30782,-3.05554 -2.43238,-5.57157 -3.4375,-7.65625 -1.00512,-2.08468 -1.88668,-3.756 -2.75,-5.125 -0.86332,-1.369 -1.71131,-2.43528 -2.59375,-3.34375 -0.88244,-0.90847 -1.81252,-1.64064 -2.875,-2.34375 L 840.03125,361 l -38.75,-0.0312 c -10.66215,-0.008 -21.2004,-0.13362 -29.5625,-0.3125 -8.3621,-0.17888 -14.56857,-0.42458 -16.59375,-0.6875 -3.18391,-0.41334 -6.07206,-1.05685 -8.6875,-2 -1.30772,-0.47158 -2.54152,-1.01261 -3.71875,-1.625 -1.17723,-0.61239 -2.28927,-1.30372 -3.34375,-2.0625 -1.05448,-0.75878 -2.02927,-1.58925 -2.96875,-2.5 -0.93948,-0.91075 -1.82401,-1.90045 -2.65625,-2.96875 -0.83224,-1.0683 -1.61101,-2.20608 -2.34375,-3.4375 -0.73274,-1.23142 -1.42151,-2.56864 -2.0625,-3.96875 -0.57442,-1.25469 -2.71038,-8.02279 -5.59375,-17.625 -2.88337,-9.60221 -6.53595,-22.01597 -10.15625,-34.53125 -3.6203,-12.51528 -7.2148,-25.13112 -10,-35.125 -2.7852,-9.99388 -4.74693,-17.36822 -5.125,-19.40625 -0.28557,-1.53937 -0.31998,-3.08415 -0.125,-4.5625 0.19498,-1.47835 0.61124,-2.90982 1.25,-4.25 0.63876,-1.34018 1.48549,-2.59388 2.53125,-3.71875 1.04576,-1.12487 2.30275,-2.1051 3.71875,-2.9375 L 710.5,216.5 z" style="fill:black;fill-opacity:1;fill-rule:evenodd;stroke:none" inkscape:connector-curvature="0" />
    <path id="path3046" d="m 668.15625,215.96875 -69.75,0.0312 c -38.36452,0.014 -69.80535,0.1157 -69.875,0.25 -0.15204,0.2932 6.17555,256.14114 6.34375,256.5 0.12559,0.26793 22.40835,0.33002 44.65625,0.25 22.2479,-0.08 44.46875,-0.2941 44.46875,-0.5625 0,-0.31379 -2.7,-22.11508 -6,-48.4375 -3.3,-26.32242 -6,-48.82088 -6,-50 0,-0.77054 0.19182,-1.30168 0.5,-1.59375 0.30818,-0.29207 0.72374,-0.3372 1.21875,-0.1875 0.49501,0.1497 1.06451,0.50773 1.625,1.0625 0.56049,0.55477 1.12037,1.2956 1.625,2.21875 1.41875,2.5954 9.002,17.12592 38.3125,73.5 3.28855,6.325 7.52299,14.3125 9.40625,17.75 l 3.40625,6.25 50.0625,0 50.09375,0 -2.46875,-3.25 c -1.35478,-1.7875 -11.84141,-16.3 -23.28125,-32.25 -11.43983,-15.95 -26.81255,-37.40767 -34.1875,-47.6875 -3.27306,-4.56227 -5.88638,-8.31086 -7.9375,-11.40625 -2.05112,-3.09539 -3.55452,-5.55158 -4.5625,-7.53125 -1.00798,-1.97967 -1.54387,-3.47239 -1.6875,-4.6875 -0.0718,-0.60755 -0.0483,-1.14274 0.0625,-1.625 0.11075,-0.48226 0.32279,-0.91164 0.59375,-1.3125 0.23346,-0.34538 1.10558,-0.84183 2.3125,-1.34375 1.20692,-0.50192 2.74601,-1.02134 4.34375,-1.4375 1.83001,-0.47666 3.42418,-0.99774 4.84375,-1.59375 1.41957,-0.59601 2.65448,-1.25466 3.75,-2.03125 1.09552,-0.77659 2.0484,-1.66908 2.90625,-2.6875 0.85785,-1.01842 1.63718,-2.17852 2.34375,-3.5 0.4665,-0.87249 0.82985,-1.64577 1.125,-2.46875 0.29515,-0.82298 0.52861,-1.69482 0.6875,-2.6875 0.31778,-1.98536 0.39176,-4.52061 0.375,-8.5 -0.009,-2.08165 -0.0801,-3.86385 -0.21875,-5.625 -0.1387,-1.76115 -0.3456,-3.49874 -0.71875,-5.5 -0.74631,-4.00252 -2.06365,-9.0484 -4.375,-17.375 -2.90076,-10.45 -8.44228,-30.48183 -12.3125,-44.5 -1.93511,-7.00909 -3.89498,-13.76553 -5.5,-19.03125 -1.60502,-5.26572 -2.8749,-9.01972 -3.375,-10 -0.83181,-1.63048 -1.88523,-3.29293 -3.125,-4.90625 -1.23977,-1.61332 -2.65476,-3.17051 -4.15625,-4.625 -1.50149,-1.45449 -3.10177,-2.81475 -4.71875,-3.96875 -1.61698,-1.154 -3.25753,-2.13189 -4.84375,-2.84375 l -5.96875,-2.65625 z m -70.34375,57.1875 21.6875,0 c 10.90287,0.86934 17.45668,21.53429 5.375,27 l -24.3125,0 -2.75,-27 z" style="fill:black;fill-opacity:1;fill-rule:evenodd;stroke:none" inkscape:connector-curvature="0" />
    <path id="path3042" d="M 279.875,215.875 255.21875,216 241.25,232.25 c -15.04166,17.4908 -41.75826,48.35931 -46.09375,53.25 -1.46269,1.65 -9.63477,11.0517 -18.15625,20.90625 -8.52148,9.85454 -18.7625,21.67921 -22.75,26.28125 -3.9875,4.60203 -7.25,8.088 -7.25,7.71875 0,-0.68145 6.01921,-12.20726 20.03125,-38.40625 4.26529,-7.975 14.14169,-26.65 21.96875,-41.5 7.82707,-14.85 16.25353,-30.73762 18.71875,-35.3125 1.23261,-2.28744 2.30219,-4.40902 3.03125,-6 0.72906,-1.59098 1.12646,-2.6548 1,-2.78125 -0.25291,-0.25291 -14.33006,-0.46601 -31.28125,-0.46875 -11.9039,-0.002 -19.68536,0.0852 -24.59375,0.28125 -2.45419,0.098 -4.19374,0.20844 -5.375,0.375 -1.18126,0.16656 -1.80562,0.37727 -2.03125,0.625 C 147.82615,217.92429 140.30146,230.65 131.75,245.5 118.35552,268.76011 82.951772,330.08874 57,375 52.709497,382.425 42.337854,400.425 33.9375,415 25.537147,429.575 14.700641,448.34881 9.84375,456.71875 4.9868586,465.08869 1,472.17619 1,472.46875 c 0,0.29256 23.7375,0.49817 52.75,0.46875 l 52.75,-0.0312 10,-13.0625 c 5.5,-7.18485 11.00162,-14.30909 12.21875,-15.8125 1.21713,-1.50341 13.68331,-17.53019 27.71875,-35.625 14.03544,-18.09481 26.23923,-33.80625 27.125,-34.90625 0.88576,-1.1 4.84459,-6.16355 8.78125,-11.25 3.38441,-4.37289 5.21875,-6.6872 6.65625,-7.90625 0.71875,-0.60953 1.33999,-0.94099 2,-1.125 0.66001,-0.18401 1.36342,-0.2183 2.25,-0.21875 2.0625,-10e-4 3.75,0.16043 3.75,0.375 0,0.21456 -2.73271,10.67706 -6.0625,23.25 -3.32979,12.57293 -9.43026,35.7 -13.5625,51.375 -4.13224,15.675 -8.37453,31.62981 -9.4375,35.46875 -1.06297,3.83895 -1.9375,7.55145 -1.9375,8.25 0,0.2521 0.57992,0.45887 2.03125,0.625 1.45133,0.16613 3.77019,0.31102 7.21875,0.40625 6.89712,0.19046 18.3385,0.25267 36.5,0.25 l 45.75,0 21.9375,-35.75 c 12.06761,-19.65853 25.84697,-42.05 30.625,-49.75 4.77802,-7.7 19.59779,-31.775 32.9375,-53.5 24.86613,-40.49689 42.36543,-68.88886 49,-79.5 6.0453,-9.66869 11.8431,-19.09859 16.0625,-26.15625 4.2194,-7.05766 6.88454,-11.74047 6.71875,-11.90625 -0.28779,-0.28779 -52.37732,-0.65181 -67.40625,-0.46875 -0.29803,0.004 -0.55749,-0.0168 -0.875,0.125 -0.31751,0.14177 -0.70463,0.4443 -1.3125,1.125 -1.21574,1.3614 -3.27874,4.20317 -7.28125,10.125 -8.00503,11.84366 -23.75154,36.02072 -55.90625,85.34375 -7.95502,12.20243 -14.57575,22.0805 -14.71875,21.9375 -0.23017,-0.23017 13.35502,-51.88346 26.40625,-100.375 2.55358,-9.48776 4.44766,-17.4338 4.21875,-17.65625 -0.19632,-0.19079 -0.50395,-0.32564 -1.25,-0.4375 -0.74605,-0.11186 -1.92271,-0.20117 -3.84375,-0.25 -3.84208,-0.0977 -10.64393,-0.0904 -22.9375,-0.0312 z" style="fill:black;fill-opacity:1;fill-rule:evenodd;stroke:none" inkscape:connector-curvature="0" />
  </g>
</svg>
