<svg width="450" height="150" viewBox="0 0 450 150" fill="none" xmlns="http://www.w3.org/2000/svg">
<path d="M7.081 63.393C7.081 52.279 7.081 50.236 6.94 47.893C6.799 45.41 6.235 44.229 3.928 43.719C3.364 43.578 2.167 43.49 1.198 43.49C0.423 43.49 0 43.349 0 42.838C0 42.327 0.492999 42.186 1.55 42.186C5.266 42.186 9.687 42.415 11.642 42.415C13.879 42.415 27.846 42.415 29.185 42.345C30.524 42.204 31.633 42.046 32.197 41.905C32.549 41.835 32.972 41.606 33.324 41.606C33.676 41.606 33.747 41.905 33.747 42.275C33.747 42.786 33.395 43.666 33.183 47.031C33.113 47.771 32.972 50.976 32.831 51.857C32.761 52.227 32.62 52.667 32.126 52.667C31.633 52.667 31.492 52.297 31.492 51.645C31.492 51.134 31.422 49.884 31.069 49.021C30.576 47.7 29.871 46.819 26.366 46.397C25.168 46.256 17.806 46.098 16.415 46.098C16.063 46.098 15.922 46.309 15.922 46.82V65.331C15.922 65.842 15.992 66.141 16.415 66.141C17.965 66.141 26.014 66.141 27.635 66C29.308 65.859 30.365 65.63 30.999 64.908C31.492 64.327 31.774 63.957 32.126 63.957C32.408 63.957 32.619 64.098 32.619 64.538C32.619 64.978 32.267 66.141 32.055 69.875C31.914 71.337 31.773 74.261 31.773 74.771C31.773 75.352 31.773 76.162 31.139 76.162C30.646 76.162 30.505 75.863 30.505 75.51C30.435 74.77 30.435 73.819 30.223 72.868C29.871 71.406 28.884 70.314 26.295 70.015C24.956 69.874 18.017 69.786 16.344 69.786C15.992 69.786 15.921 70.085 15.921 70.526V76.303C15.921 78.786 15.851 85.515 15.921 87.646C16.062 92.683 17.189 93.793 24.34 93.793C26.172 93.793 29.113 93.793 30.927 92.912C32.741 92.031 33.587 90.499 34.08 87.505C34.221 86.695 34.362 86.413 34.855 86.413C35.419 86.413 35.419 86.994 35.419 87.734C35.419 89.425 34.855 94.392 34.503 95.854C34.01 97.756 33.376 97.756 30.716 97.756C20.13 97.756 15.428 97.316 11.289 97.316C9.669 97.316 5.265 97.527 2.447 97.527C1.531 97.527 1.038 97.316 1.038 96.787C1.038 96.417 1.32 96.206 2.165 96.206C3.222 96.206 4.05 96.065 4.684 95.907C6.093 95.608 6.445 94.005 6.71 91.891C7.062 88.809 7.062 83.032 7.062 76.321V63.393" fill="black"/>
<path d="M56.662 63.393C56.662 52.279 56.662 50.236 56.521 47.893C56.38 45.41 55.816 44.229 53.509 43.719C52.945 43.578 51.748 43.49 50.779 43.49C50.004 43.49 49.581 43.349 49.581 42.838C49.581 42.327 50.074 42.186 51.131 42.186C54.847 42.186 59.268 42.415 61.223 42.415C64.094 42.415 68.163 42.186 71.386 42.186C80.157 42.186 83.31 45.251 84.437 46.36C85.987 47.892 87.942 51.186 87.942 55.061C87.942 65.453 80.65 72.762 70.681 72.762C70.329 72.762 69.554 72.762 69.201 72.692C68.849 72.622 68.356 72.551 68.356 72.04C68.356 71.459 68.849 71.23 70.311 71.23C74.239 71.23 79.716 66.615 79.716 59.165C79.716 56.752 79.505 51.856 75.577 48.192C73.058 45.779 70.17 45.339 68.567 45.339C67.51 45.339 66.471 45.409 65.837 45.638C65.485 45.779 65.273 46.219 65.273 47.029V76.285C65.273 83.013 65.273 88.79 65.625 91.943C65.836 93.986 66.259 95.589 68.355 95.888C69.341 96.029 70.874 96.187 71.93 96.187C72.705 96.187 73.057 96.398 73.057 96.768C73.057 97.279 72.493 97.508 71.718 97.508C67.086 97.508 62.665 97.297 60.851 97.297C59.231 97.297 54.827 97.508 52.009 97.508C51.093 97.508 50.6 97.297 50.6 96.768C50.6 96.398 50.882 96.187 51.727 96.187C52.784 96.187 53.612 96.046 54.246 95.888C55.637 95.589 55.99 93.986 56.272 91.872C56.624 88.79 56.624 83.013 56.624 76.302V63.391" fill="black"/>
<path d="M107.846 63.393C107.846 52.279 107.846 50.236 107.705 47.893C107.564 45.41 106.86 44.159 105.327 43.807C104.552 43.578 103.654 43.508 102.808 43.508C102.103 43.508 101.681 43.367 101.681 42.786C101.681 42.346 102.245 42.205 103.372 42.205C106.032 42.205 110.453 42.434 112.496 42.434C114.257 42.434 118.396 42.205 121.056 42.205C121.972 42.205 122.536 42.346 122.536 42.786C122.536 43.367 122.113 43.508 121.409 43.508C120.705 43.508 120.141 43.578 119.295 43.737C117.41 44.107 116.847 45.34 116.706 47.911C116.565 50.254 116.565 52.297 116.565 63.411V76.286C116.565 83.384 116.565 89.161 116.847 92.296C117.058 94.269 117.552 95.59 119.647 95.871C120.633 96.012 122.166 96.17 123.222 96.17C123.997 96.17 124.349 96.381 124.349 96.751C124.349 97.262 123.785 97.491 123.01 97.491C118.378 97.491 113.957 97.28 112.072 97.28C110.452 97.28 106.048 97.491 103.23 97.491C102.314 97.491 101.821 97.28 101.821 96.751C101.821 96.381 102.103 96.17 102.948 96.17C104.005 96.17 104.833 96.029 105.467 95.871C106.876 95.572 107.299 94.339 107.493 92.207C107.845 89.142 107.845 83.365 107.845 76.267L107.846 63.393Z" fill="black"/>
<path d="M141.645 96.5941C140.518 96.0831 140.306 95.7131 140.306 94.1111C140.306 90.0951 140.588 85.7101 140.658 84.5291C140.728 83.4371 140.94 82.6271 141.503 82.6271C142.137 82.6271 142.208 83.2791 142.208 83.8781C142.208 84.8291 142.49 86.3611 142.842 87.6121C144.392 93.0191 148.513 94.9921 152.864 94.9921C159.17 94.9921 162.269 90.5361 162.269 86.6611C162.269 83.0861 161.212 79.6331 155.4 74.9661L152.177 72.3421C144.462 66.0541 141.803 60.9291 141.803 55.0111C141.803 46.9621 148.249 41.1851 158.007 41.1851C162.569 41.1851 165.51 41.9071 167.324 42.4361C167.958 42.5771 168.31 42.8061 168.31 43.3171C168.31 44.2681 168.028 46.3991 168.028 52.0881C168.028 53.6911 167.817 54.2901 167.253 54.2901C166.76 54.2901 166.548 53.8501 166.548 52.9691C166.548 52.3171 166.196 50.0451 164.716 48.1431C163.659 46.7521 161.634 44.5681 157.072 44.5681C151.876 44.5681 148.723 47.7031 148.723 52.1061C148.723 55.4701 150.343 58.0241 156.156 62.6391L158.111 64.1711C166.53 70.9701 169.612 75.8661 169.612 82.8231C169.612 87.0681 168.062 92.1051 163.025 95.5571C159.52 97.9001 155.592 98.5511 151.876 98.5511C147.828 98.4961 144.675 97.9851 141.645 96.5941Z" fill="black"/>
<path d="M212.204 98.496C230.011 98.496 241.248 85.2681 241.248 68.5181C241.248 51.7681 230.381 41.165 212.908 41.165C191.86 41.165 183.952 57.3341 183.952 69.8391C183.935 82.7671 192.072 98.496 212.204 98.496ZM215.145 94.832C201.671 94.832 193.622 82.767 193.622 67.549C193.622 49.337 202.798 44.652 210.865 44.652C222.366 44.652 231.42 54.8151 231.42 71.1951C231.42 92.3491 220.06 94.832 215.145 94.832Z" fill="black"/>
<path d="M260.799 76.268C260.799 82.996 260.799 88.773 260.447 91.838C260.165 93.952 259.813 95.572 258.404 95.854C257.77 95.995 256.925 96.153 255.885 96.153C255.04 96.153 254.758 96.364 254.758 96.734C254.758 97.245 255.251 97.474 256.167 97.474C258.967 97.474 263.388 97.245 265.009 97.245C268.514 97.245 274.82 98.126 279.945 98.126C292.908 98.126 300.218 92.93 303.441 89.496C307.369 85.322 311.085 78.312 311.085 69.1C311.085 60.399 307.791 54.323 304.286 50.518C296.642 42.187 284.929 42.187 276.158 42.187C271.948 42.187 267.528 42.398 265.361 42.398C263.406 42.398 258.985 42.187 255.269 42.187C254.212 42.187 253.719 42.328 253.719 42.839C253.719 43.35 254.142 43.491 254.917 43.491C255.903 43.491 257.083 43.561 257.647 43.702C259.954 44.213 260.518 45.393 260.659 47.876C260.8 50.219 260.8 52.262 260.8 63.376L260.799 76.268ZM269.57 62.213C269.57 56.436 269.57 50.077 269.64 47.576C269.64 46.766 269.851 46.414 270.485 46.114C271.049 45.815 273.638 45.603 275.047 45.603C280.507 45.603 288.503 46.484 294.968 52.912C297.98 55.906 301.696 61.912 301.696 71.195C301.696 78.733 300.287 85.391 295.796 89.407C291.586 93.211 286.813 94.673 279.662 94.673C274.114 94.673 271.384 93.141 270.468 91.749C269.904 90.939 269.764 88.015 269.693 86.201C269.623 84.81 269.552 79.173 269.552 71.424V62.212L269.57 62.213Z" fill="black"/>
<path d="M331.04 63.393C331.04 52.279 331.04 50.236 330.899 47.893C330.758 45.41 330.194 44.229 327.887 43.719C327.323 43.578 326.126 43.49 325.157 43.49C324.382 43.49 323.959 43.349 323.959 42.838C323.959 42.327 324.452 42.186 325.509 42.186C329.225 42.186 333.646 42.415 335.601 42.415C337.838 42.415 351.805 42.415 353.126 42.345C354.465 42.204 355.574 42.046 356.138 41.905C356.49 41.835 356.913 41.606 357.265 41.606C357.617 41.606 357.688 41.905 357.688 42.275C357.688 42.786 357.336 43.666 357.124 47.031C357.054 47.771 356.913 50.976 356.772 51.857C356.702 52.227 356.561 52.667 356.068 52.667C355.575 52.667 355.434 52.297 355.434 51.645C355.434 51.134 355.364 49.884 355.011 49.021C354.518 47.7 353.813 46.819 350.308 46.397C349.11 46.256 341.748 46.098 340.357 46.098C340.005 46.098 339.864 46.309 339.864 46.82V65.331C339.864 65.842 339.934 66.141 340.357 66.141C341.907 66.141 349.956 66.141 351.577 66C353.25 65.859 354.307 65.63 354.941 64.908C355.434 64.327 355.716 63.957 356.068 63.957C356.35 63.957 356.561 64.098 356.561 64.538C356.561 64.978 356.209 66.141 355.997 69.875C355.856 71.337 355.715 74.261 355.715 74.771C355.715 75.352 355.715 76.162 355.081 76.162C354.588 76.162 354.447 75.863 354.447 75.51C354.377 74.77 354.377 73.819 354.165 72.868C353.813 71.406 352.826 70.314 350.237 70.015C348.898 69.874 341.959 69.786 340.286 69.786C339.934 69.786 339.863 70.085 339.863 70.526V76.303C339.863 78.786 339.793 85.515 339.863 87.646C340.004 92.683 341.131 93.793 348.282 93.793C350.114 93.793 353.055 93.793 354.869 92.912C356.683 92.031 357.529 90.499 358.022 87.505C358.163 86.695 358.304 86.413 358.797 86.413C359.361 86.413 359.361 86.994 359.361 87.734C359.361 89.425 358.797 94.392 358.445 95.854C357.952 97.756 357.318 97.756 354.658 97.756C344.072 97.756 339.37 97.316 335.231 97.316C333.611 97.316 329.207 97.527 326.389 97.527C325.473 97.527 324.98 97.316 324.98 96.787C324.98 96.417 325.262 96.206 326.107 96.206C327.164 96.206 328.009 96.065 328.626 95.907C330.035 95.608 330.387 94.005 330.652 91.891C331.004 88.809 331.004 83.032 331.004 76.321V63.393" fill="black"/>
<path d="M401.775 63.393C401.775 52.279 401.775 50.236 401.634 47.893C401.493 45.41 400.789 44.159 399.239 43.807C398.464 43.578 397.566 43.508 396.72 43.508C396.015 43.508 395.593 43.367 395.593 42.786C395.593 42.346 396.157 42.205 397.266 42.205C399.926 42.205 404.347 42.434 406.39 42.434C408.151 42.434 412.29 42.205 414.95 42.205C415.866 42.205 416.43 42.346 416.43 42.786C416.43 43.367 416.007 43.508 415.303 43.508C414.599 43.508 414.035 43.578 413.189 43.737C411.304 44.107 410.741 45.34 410.6 47.911C410.459 50.254 410.459 52.297 410.459 63.411V76.286C410.459 83.384 410.459 89.161 410.741 92.296C410.952 94.269 411.445 95.59 413.541 95.871C414.527 96.012 416.06 96.17 417.117 96.17C417.892 96.17 418.244 96.381 418.244 96.751C418.244 97.262 417.68 97.491 416.905 97.491C412.273 97.491 407.852 97.28 405.967 97.28C404.347 97.28 399.943 97.491 397.125 97.491C396.209 97.491 395.716 97.28 395.716 96.751C395.716 96.381 395.998 96.17 396.843 96.17C397.9 96.17 398.728 96.029 399.362 95.871C400.753 95.572 401.176 94.339 401.388 92.207C401.74 89.142 401.74 83.365 401.74 76.267V63.392" fill="black"/>
<path d="M432.264 63.393C432.264 52.279 432.264 50.236 432.123 47.893C431.982 45.41 431.278 44.159 429.745 43.807C428.97 43.578 428.054 43.508 427.226 43.508C426.522 43.508 426.099 43.367 426.099 42.786C426.099 42.346 426.663 42.205 427.79 42.205C430.45 42.205 434.871 42.434 436.914 42.434C438.658 42.434 442.797 42.205 445.474 42.205C446.39 42.205 446.953 42.346 446.953 42.786C446.953 43.367 446.53 43.508 445.826 43.508C445.122 43.508 444.558 43.578 443.712 43.737C441.827 44.107 441.264 45.34 441.123 47.911C440.982 50.254 440.982 52.297 440.982 63.411V76.286C440.982 83.384 440.982 89.161 441.264 92.296C441.475 94.269 441.969 95.59 444.065 95.871C445.051 96.012 446.584 96.17 447.64 96.17C448.415 96.17 448.767 96.381 448.767 96.751C448.767 97.262 448.203 97.491 447.428 97.491C442.796 97.491 438.375 97.28 436.49 97.28C434.87 97.28 430.466 97.491 427.648 97.491C426.732 97.491 426.239 97.28 426.239 96.751C426.239 96.381 426.521 96.17 427.366 96.17C428.423 96.17 429.251 96.029 429.885 95.871C431.294 95.572 431.699 94.339 431.911 92.207C432.263 89.142 432.263 83.365 432.263 76.267V63.393" fill="black"/>
<path d="M446.971 22.301H236.246V25.084H446.971V22.301Z" fill="black"/>
<path d="M447.358 115.687H1.004V118.452H447.358V115.687Z" fill="black"/>
<path d="M54.83 0.161011C52.91 0.161011 22.246 0.161011 21.735 0.161011C20.854 0.161011 19.463 0.760013 18.494 1.32301C15.447 3.06701 14.179 7.06502 15.87 10.235C16.663 11.697 17.931 12.824 19.111 14.128C19.234 14.269 19.481 14.498 19.358 14.762C19.288 14.903 19.235 14.921 19.164 14.956C17.702 14.974 1.10999 14.956 0.933992 14.956C0.792992 14.956 0.722992 15.026 0.722992 15.238C0.722992 15.344 0.722992 22.565 0.722992 22.812C0.722992 22.935 0.722992 22.988 0.986992 22.988C5.63699 22.988 11.678 22.988 16.328 22.988C22.035 22.988 28.481 23.992 30.119 18.092C30.577 16.419 30.524 14.446 29.784 12.949C29.291 11.963 28.692 11.117 27.864 10.289C27.124 9.47902 26.314 8.70402 25.539 7.85802C25.557 7.85802 25.469 7.75201 25.662 7.75201C25.909 7.75201 26.631 7.75201 26.807 7.75201C29.995 7.75201 33.042 7.77002 36.23 7.77002C36.23 7.78802 36.424 7.71702 36.424 7.98102C36.424 8.33302 36.424 9.17901 36.424 9.44301C36.424 13.97 36.424 18.302 36.424 22.847C36.424 22.988 36.459 23.006 36.565 23.006C38.273 23.006 42.624 23.006 44.738 23.006C44.844 23.006 44.826 22.936 44.826 22.83C44.826 17.898 44.826 12.914 44.826 7.98201C44.826 7.91201 44.808 7.77101 44.932 7.77101C45.408 7.77101 54.531 7.77101 54.831 7.77101C54.919 7.77101 54.972 7.75301 54.972 7.64801C54.972 7.64801 54.972 1.00802 54.972 0.33902C54.971 0.16102 54.918 0.161011 54.83 0.161011Z" fill="black"/>
<path d="M92.681 10.06C91.677 10.06 90.779 10.06 89.722 10.06C89.581 10.06 89.511 9.95402 89.511 9.76102C89.511 9.56702 89.529 7.64703 89.529 7.43603C89.529 7.17203 89.582 7.06602 89.705 7.06602C90.427 7.06602 93.122 7.06602 93.492 7.06602C94.373 7.06602 94.637 7.13603 95.024 7.31303C95.5 7.50703 95.781 7.92903 95.817 8.47503C95.904 10.236 94.143 10.042 92.681 10.06ZM102.174 23.006C105.38 23.006 108.656 23.006 112.249 23.006C112.425 23.006 112.443 22.953 112.443 22.795C112.443 22.548 112.443 15.292 112.443 15.168C112.443 15.044 112.443 15.045 112.267 15.045C109.784 15.045 107.406 15.045 104.905 15.045C104.042 15.045 103.267 15.045 102.351 15.045C100.854 15.045 100.132 15.08 99.656 14.587C99.533 14.517 99.568 14.411 99.674 14.323C100.061 14.024 100.713 13.618 101.206 13.231C102.774 12.033 103.76 10.413 103.883 8.45802C104.13 4.58302 101.699 0.955019 97.983 0.409019C95.764 0.074019 92.858 0.145027 90.321 0.145027C86.834 0.145027 83.469 0.145027 79.964 0.145027C79.911 0.145027 79.841 0.180018 79.841 0.286018C79.841 7.75402 79.841 15.363 79.841 22.831C79.841 22.901 79.841 23.007 80 23.007C83.065 23.007 88.93 23.025 88.93 22.989C89.053 22.989 89.106 22.954 89.106 22.813C89.106 20.928 89.106 18.515 89.106 16.631C89.124 16.631 89.159 16.631 89.176 16.631C89.176 16.649 89.176 16.684 89.176 16.701C89.229 16.736 89.264 16.754 89.317 16.771C90.074 17.528 90.849 18.268 91.607 19.026C93.122 20.505 94.443 21.985 96.363 22.637C98.035 23.2 100.219 23.006 102.174 23.006Z" fill="black"/>
<path d="M66.983 13.371C66.472 13.371 64.288 13.371 63.513 13.371C63.249 13.371 63.302 13.3361 63.302 13.2831C63.337 13.1601 63.461 12.755 63.496 12.649C64.06 10.888 64.606 9.16204 65.169 7.40004C65.169 7.40004 65.204 7.33005 65.222 7.33005C65.257 7.33005 65.275 7.38304 65.292 7.40004C65.591 8.36904 66.912 12.6841 67.071 13.2831C67.054 13.3711 66.983 13.371 66.983 13.371ZM78.661 22.953C78.679 22.953 78.661 22.9 78.696 22.9C78.115 21.051 77.534 19.219 76.935 17.369C75.596 13.159 71.651 0.86504 71.493 0.37204C71.458 0.24904 71.387 0.17804 71.158 0.17804C68.058 0.17804 62.175 0.17804 58.899 0.17804C58.758 0.17804 58.617 0.231041 58.582 0.301041C58.512 0.495041 57.384 3.96505 56.997 5.26805C55.835 9.07205 54.654 12.859 53.474 16.646C53.069 17.932 51.818 22.0001 51.589 22.8111C51.589 22.8111 51.536 22.9341 51.659 22.9341C51.8 22.9341 57.7 22.9341 59.021 22.9341C59.585 22.9341 59.919 22.9871 60.166 22.7231C60.835 21.9661 60.888 20.187 61.258 19.817C61.346 19.729 61.751 19.747 61.892 19.747C62.068 19.747 68.215 19.729 68.462 19.729C68.726 19.729 69.043 19.7821 69.096 19.8351C69.483 20.1871 69.677 21.843 70.118 22.688C70.312 23.005 70.77 22.935 70.928 22.935C73.482 22.935 75.684 22.935 78.237 22.935C78.432 22.971 78.661 22.971 78.661 22.953Z" fill="black"/>
<path d="M149.043 21.879C149.395 20.787 153.939 6.09802 155.718 0.40802C155.771 0.21402 155.753 0.197021 155.63 0.197021C155.26 0.197021 147.457 0.197021 147.088 0.197021C146.947 0.197021 146.965 0.215016 146.912 0.373016C146.718 0.919016 145.767 4.01901 145.503 4.93501C145.38 5.34001 145.292 5.67502 145.151 6.08002C145.151 6.09802 145.098 6.18602 145.063 6.18602C145.028 6.18602 144.975 6.13302 144.957 6.06302C144.851 5.71102 143.301 0.885013 143.178 0.532013C143.072 0.233013 142.879 0.197021 142.685 0.197021C141.117 0.197021 135.376 0.197021 133.843 0.197021C133.526 0.197021 133.473 0.232013 133.438 0.338013C133.262 0.814013 131.923 5.27002 131.747 5.92102C131.729 6.00902 131.677 6.18501 131.606 6.18501C131.553 6.18501 131.5 6.09702 131.465 5.92102C131.236 5.12802 130.144 1.13001 129.897 0.338013C129.879 0.268013 129.774 0.197021 129.527 0.197021C127.766 0.197021 121.495 0.179016 120.474 0.179016C120.333 0.179016 120.368 0.285013 120.368 0.338013C120.438 0.637013 120.967 2.34601 121.266 3.26201C121.971 5.44601 126.074 18.392 127.448 22.689C127.501 22.848 127.765 22.812 127.924 22.812C129.632 22.812 134.511 22.812 135.005 22.812C135.392 22.812 135.375 22.636 135.463 22.354C135.639 21.826 137.33 16.876 137.559 16.031C137.718 15.467 137.823 15.168 138.017 14.569C138.017 14.551 138.14 14.446 138.14 14.428C138.158 14.428 138.21 14.551 138.246 14.551C138.369 15.009 140.765 22.565 140.87 22.653C140.888 22.671 140.905 22.812 141.205 22.812C141.927 22.812 147.916 22.812 148.462 22.812C148.867 22.812 148.867 22.354 149.043 21.879Z" fill="black"/>
<path d="M191.015 6.16803C191.596 6.16803 193.692 6.18604 194.115 6.18604C195.066 6.18604 195.964 6.16803 196.405 6.36203C196.881 6.57303 197.145 7.03103 197.18 7.57703C197.268 9.35603 195.507 9.16202 194.045 9.18002C193.059 9.18002 192.09 9.18002 191.051 9.18002C190.91 9.18002 190.91 9.16203 190.91 8.89803C190.91 8.45803 190.91 7.48902 190.91 6.55502C190.91 6.23802 190.91 6.16803 191.015 6.16803ZM221.874 22.372C222.438 22.231 223.107 21.949 223.688 21.562C225.661 20.223 227.017 17.282 226.488 14.904C225.801 11.875 224.709 10.554 221.768 7.96404C221.275 7.57704 221.645 7.59402 221.75 7.59402C221.961 7.59402 230.874 7.57603 231.913 7.57603C232.265 7.57603 232.265 7.62903 232.265 7.22403C232.265 6.83703 232.265 0.584032 232.265 0.302032C232.265 0.126032 232.124 0.126038 232.106 0.126038C231.912 0.126038 231.401 0.126038 230.679 0.126038H221.573C220.428 0.126038 219.001 0.144028 217.821 0.144028C211.973 0.144028 209.032 5.44603 211.674 10.377C212.202 11.346 213.153 12.191 213.999 13.019C214.351 13.406 214.704 13.794 215.056 14.181C215.32 14.498 215.514 14.709 215.021 14.709C214.493 14.709 206.426 14.709 204.312 14.709C203.114 14.709 202.533 14.515 202.269 14.286C202.251 14.268 202.216 14.233 202.199 14.216C202.657 13.811 203.132 13.388 203.59 12.983C206.197 9.84803 206.338 4.86303 202.885 2.16803C201.793 1.32303 200.631 0.671028 199.239 0.407028C198.094 0.213028 196.879 0.108032 194.853 0.108032C190.784 0.108032 182.295 0.231033 181.907 0.231033C181.696 0.231033 181.59 0.231037 181.59 0.460037C181.59 2.46804 181.59 20.292 181.59 22.635C181.59 22.705 181.59 22.811 181.749 22.811C183.598 22.811 190.274 22.811 190.767 22.811C190.908 22.811 190.873 22.652 190.873 22.476C190.873 20.468 190.873 18.037 190.873 16.03C190.926 16.03 190.908 16.03 190.961 16.03C191.014 16.083 191.084 16.1 191.102 16.136C193.057 17.721 194.343 19.817 196.298 21.244C197.108 21.843 198.006 22.266 198.993 22.547C200.332 22.899 201.917 22.829 203.449 22.829C205.492 22.829 207.518 22.829 209.543 22.829C212.273 22.829 215.76 22.829 218.491 22.829C220.5 22.83 221.275 22.53 221.874 22.372Z" fill="black"/>
<path d="M168.312 13.248C167.801 13.248 165.617 13.248 164.842 13.248C164.578 13.248 164.631 13.213 164.631 13.16C164.684 13.037 164.79 12.632 164.825 12.526C165.389 10.765 165.935 9.05601 166.498 7.27701C166.498 7.29501 166.533 7.20702 166.551 7.20702C166.569 7.20702 166.604 7.26001 166.604 7.27701C166.903 8.24601 168.224 12.561 168.401 13.16C168.4 13.266 168.312 13.248 168.312 13.248ZM179.778 22.53C179.25 20.751 178.651 18.884 178.14 17.281C176.801 13.071 172.856 0.830011 172.698 0.355011C172.663 0.232011 172.592 0.179016 172.363 0.179016C169.281 0.179016 163.38 0.179016 160.104 0.179016C159.963 0.179016 159.822 0.214017 159.787 0.302017C159.717 0.496017 158.607 3.91302 158.202 5.21602C157.04 9.02002 155.859 12.807 154.679 16.612C154.274 17.898 153.023 21.966 152.794 22.777C152.794 22.777 152.741 22.9 152.847 22.9C152.988 22.9 158.888 22.9 160.209 22.9C160.773 22.9 161.178 22.9 161.354 22.689C162.006 21.896 162.076 20.153 162.464 19.783C162.552 19.695 162.957 19.713 163.098 19.713C163.292 19.713 169.421 19.695 169.685 19.695C169.949 19.695 170.266 19.748 170.319 19.801C170.689 20.153 170.9 21.756 171.341 22.601C171.552 22.918 171.94 22.848 172.116 22.865C174.67 22.865 177.083 22.865 179.637 22.865C179.884 22.83 179.866 22.759 179.778 22.53Z" fill="black"/>
<path d="M228.373 22.9001H227.774V20.4171H226.893V19.8881H229.236V20.4171H228.373V22.9001Z" fill="black"/>
<path d="M232.371 22.9001H231.825V20.3811H231.808L231.262 22.9001H230.68L230.152 20.3811H230.134V22.9001H229.571V19.8881H230.451L230.98 22.2661H230.997L231.508 19.8881H232.371V22.9001Z" fill="black"/>
<path d="M8.20799 140.891H12.999L10.709 135.378L8.20799 140.891ZM17.596 144.079C19.023 147.285 19.939 148.606 20.678 149.645L15.993 149.698C15.993 148.8 15.887 147.743 15.183 146.07L14.021 143.305H7.09899L6.09499 145.524C5.75999 146.299 4.98499 148.078 5.09099 149.698H0.28299C0.93499 148.905 1.51599 148.166 3.15399 144.784L10.763 129.02H10.922L17.596 144.079Z" fill="black"/>
<path d="M42.888 129.143L41.514 132.296C39.348 131.398 38.643 131.204 36.353 131.204V144.801C36.353 146.439 36.476 148.13 36.899 149.715H32.866C33.148 148.429 33.412 146.914 33.412 144.466V131.203C32.091 131.168 30.929 131.168 27.124 132.612L28.181 129.16H42.888" fill="black"/>
<path d="M65.134 129.143L63.76 132.296C61.594 131.398 60.889 131.204 58.599 131.204V144.801C58.599 146.439 58.722 148.13 59.145 149.715H55.112C55.394 148.429 55.658 146.914 55.658 144.466V131.203C54.337 131.168 53.192 131.168 49.37 132.612L50.427 129.16H65.134" fill="black"/>
<path d="M80.387 140.891H85.178L82.888 135.378L80.387 140.891ZM89.775 144.079C91.202 147.285 92.118 148.606 92.857 149.645L88.172 149.698C88.172 148.8 88.066 147.743 87.362 146.07L86.2 143.305H79.278L78.274 145.524C77.939 146.299 77.164 148.078 77.27 149.698H72.462C73.114 148.905 73.695 148.166 75.333 144.784L82.942 129.02H83.101L89.775 144.079Z" fill="black"/>
<path d="M115.913 133.018C114.751 132.384 113.13 131.539 110.788 131.539C106.385 131.539 103.32 134.938 103.32 139.535C103.32 143.727 105.944 147.355 110.577 147.355C113.606 147.355 115.315 145.981 116.389 145.136L116.23 148.324C114.962 148.976 113.183 149.892 110.065 149.892C102.403 149.892 100.166 143.586 100.166 139.87C100.166 134.375 104.587 128.95 111.667 128.95C113.71 128.95 114.925 129.39 115.912 129.743L115.913 133.018Z" fill="black"/>
<path d="M128.982 129.125C128.506 130.499 128.189 131.397 128.189 134.233V138.266L133.262 131.82C134.53 130.252 134.636 129.795 134.794 129.125H139.796C138.51 130.111 136.96 131.538 135.129 133.845L131.571 138.266L138.282 147.073C139.022 148.024 139.18 148.288 140.519 149.68L135.711 149.715C135.447 148.729 135.165 147.707 133.58 145.699L128.19 138.618V144.554C128.19 146.861 128.63 148.834 128.877 149.715H124.421C124.967 147.954 125.214 146.14 125.214 144.308V133.582C125.214 132.208 124.95 130.5 124.527 129.196L128.982 129.125Z" fill="black"/>
<path d="M173.138 147.619C177.541 147.619 179.584 143.304 179.584 140.098C179.584 135.818 176.449 131.15 171.852 131.15C167.871 131.15 165.317 134.743 165.317 138.724C165.335 144.29 169.386 147.619 173.138 147.619ZM172.821 128.949C179.356 128.949 182.649 134.11 182.649 139.323C182.649 145.752 177.911 149.838 172.328 149.838C165.952 149.838 162.007 144.448 162.007 139.182C162.006 134.603 165.952 128.949 172.821 128.949Z" fill="black"/>
<path d="M202.869 129.125L201.266 132.137C199.135 131.256 198.272 131.186 195.665 131.098V138.39H202.2L200.703 141.349C199.329 140.75 198.131 140.398 195.683 140.415V145.03C195.683 146.686 195.842 148.112 196.282 149.697H192.072C192.706 147.108 192.724 144.783 192.724 143.937V134.267C192.724 131.326 192.389 130.198 192.072 129.106H202.869" fill="black"/>
<path d="M240.174 129.143L238.8 132.296C236.634 131.398 235.929 131.204 233.639 131.204V144.801C233.639 146.439 233.762 148.13 234.185 149.715H230.152C230.434 148.429 230.698 146.914 230.698 144.466V131.203C229.377 131.168 228.232 131.168 224.41 132.612L225.467 129.16H240.174" fill="black"/>
<path d="M253.296 129.073C252.961 130.024 252.503 131.187 252.503 133.793V137.967H260.957V134.321C260.957 131.503 260.534 130.182 260.2 129.072H264.691C264.251 130.411 263.934 131.397 263.934 134.567V144.096C263.934 147.495 264.269 148.517 264.691 149.715H260.2C260.623 148.447 260.957 147.496 260.957 144.202V140.574H252.503V143.973C252.503 147.231 252.89 148.5 253.243 149.715H248.769C249.104 148.764 249.526 147.496 249.526 144.413V134.373C249.526 131.432 249.086 130.005 248.769 129.071L253.296 129.073Z" fill="black"/>
<path d="M285.581 129.125L284.084 132.313C281.865 131.274 280.72 130.992 278.642 131.08V138.266H284.824L283.133 141.155C280.879 140.468 280.139 140.362 278.642 140.257V147.778C281.161 147.778 282.57 147.778 286.744 146.298L285.3 149.733H274.96C275.295 148.518 275.7 147.073 275.7 144.431V134.356C275.7 132.947 275.524 130.921 274.96 129.142H285.581" fill="black"/>
<path d="M324.911 133.018C323.749 132.384 322.128 131.539 319.786 131.539C315.383 131.539 312.318 134.938 312.318 139.535C312.318 143.727 314.942 147.355 319.575 147.355C322.604 147.355 324.313 145.981 325.387 145.136L325.228 148.324C323.96 148.976 322.181 149.892 319.063 149.892C311.401 149.892 309.164 143.586 309.164 139.87C309.164 134.375 313.585 128.95 320.665 128.95C322.708 128.95 323.923 129.39 324.91 129.743V133.018" fill="black"/>
<path d="M343.775 149.698H334.141C334.634 148.377 334.934 147.584 334.934 143.075V133.987C334.934 131.028 334.564 130.042 334.247 129.126H338.668C338.281 130.2 337.928 131.134 337.911 134.181L337.805 147.602C341.328 147.267 343.3 146.704 345.414 145.823L343.775 149.698Z" fill="black"/>
<path d="M364.488 147.619C368.891 147.619 370.934 143.304 370.934 140.098C370.934 135.818 367.799 131.15 363.202 131.15C359.221 131.15 356.667 134.743 356.667 138.724C356.668 144.29 360.736 147.619 364.488 147.619ZM364.171 128.949C370.706 128.949 373.982 134.11 373.982 139.323C373.982 145.752 369.244 149.838 363.661 149.838C357.285 149.838 353.34 144.448 353.34 139.182C353.356 134.603 357.302 128.949 364.171 128.949Z" fill="black"/>
<path d="M385.923 129.125C386.293 130.059 386.469 130.552 388.037 132.612L396.967 144.413V135.043C396.967 131.256 396.72 130.287 396.421 129.107H400.208C399.944 130.199 399.715 131.309 399.715 133.493V144.554C399.715 147.742 400.085 148.834 400.367 149.697H396.703C396.351 148.605 395.699 147.636 395.012 146.738L386.61 135.536V143.656C386.61 145.47 386.804 148.024 387.403 149.697H383.211C383.845 147.548 383.863 144.642 383.863 144.255V131.873C382.912 130.605 382.384 130.094 381.203 129.108H385.923" fill="black"/>
<path d="M420.216 129.125L418.719 132.313C416.5 131.274 415.355 130.992 413.277 131.08V138.266H419.459L417.768 141.155C415.514 140.468 414.774 140.362 413.277 140.257V147.778C415.796 147.778 417.205 147.778 421.379 146.298L419.935 149.733H409.596C409.931 148.518 410.336 147.073 410.336 144.431V134.356C410.336 132.947 410.16 130.921 409.596 129.142H420.217" fill="black"/>
<path d="M438.904 133.071C438.041 132.349 436.931 131.451 435.17 131.451C433.462 131.451 432.123 132.596 432.123 134.216C432.123 136.171 433.779 137.193 436.262 138.672C439.098 140.38 439.89 142.001 439.89 143.974C439.89 147.373 437.336 149.839 433.197 149.839C431.647 149.839 430.714 149.557 429.798 149.293V144.925C430.696 145.999 431.841 147.426 433.673 147.426C435.381 147.426 436.632 145.999 436.632 144.537C436.632 143.11 435.558 142.212 434.976 141.825C430.766 139.077 429.076 137.985 429.076 134.85C429.076 131.592 431.683 128.897 434.924 128.897C436.721 128.897 437.971 129.478 438.922 129.883V133.071" fill="black"/>
<path d="M445.632 148.324H444.98V145.629H444.029V145.048H446.583V145.629H445.632V148.324Z" fill="black"/>
<path d="M450 148.324H449.384V145.594L448.785 148.324H448.151L447.569 145.594V148.324H446.953V145.048H447.904L448.485 147.637L449.049 145.048H450V148.324Z" fill="black"/>
</svg>
