<?xml version="1.0" encoding="UTF-8" standalone="no"?>

<!-- Created with Inkscape (http://www.inkscape.org/) -->

<svg xmlns:rdf="http://www.w3.org/1999/02/22-rdf-syntax-ns#" xmlns="http://www.w3.org/2000/svg" version="1.1" xmlns:cc="http://creativecommons.org/ns#" xmlns:dc="http://purl.org/dc/elements/1.1/" viewBox="0 0 218.2 68.69">

 <metadata>

  <rdf:RDF>

   <cc:Work rdf:about="">

    <dc:format>image/svg+xml</dc:format>

    <dc:type rdf:resource="http://purl.org/dc/dcmitype/StillImage"/>

    <dc:title/>

   </cc:Work>

  </rdf:RDF>

 </metadata>

 <g transform="matrix(0.92822498,0,0,0.92822498,60.121531,-62.278993)">

  <path d="m-60.59,74.45,0,2.979h9.406c1.093,0,2.49-0.9362,2.49-2.485,0-0.6238,0.2574-1.03-0.5332-1.854l-1.204-1.321c-0.689-0.595,0.0825-0.595,0.6611-0.595h3.972v6.255h3.149v-6.255h4.245v-2.679h-13.75c-1.672,0-2.49,1.488-2.444,2.261,0.04638,0.7738,0.2001,1.75,1.59,2.919,1.268,1.068-0.6275,0.775-0.8179,0.775h-6.769"/>

  <path d="m-31.43,68.5-5.08,0-2.848,8.934,3.17,0,0.5141-1.251,3.344,0,0.4966,1.251,3.106,0-2.702-8.934zm-3.537,5.539,1.093-3.278,1.029,3.278-2.122,0"/>

  <path d="m-18.7,74.45c-1.222,0-1.222-0.4162-1.222-0.4162,1.047,0,1.976-1.414,1.976-2.86s-1.525-2.679-2.748-2.679h-6.836v8.934h3.473v-2.979s1.479,1.609,2.251,2.264c0.7715,0.6562,0.836,0.715,1.883,0.715h5.453v-2.979h-4.23zm-3.152-2.085h-2.204v-1.609h2.204c1.011,0,1.186,1.609,0,1.609"/>

  <path d="m-11.03,68.41,3.554,0,0.9004,2.98,0.836-2.98,3.73,0,0.9644,2.98,0.9649-2.98,3.087,0-2.83,8.936-2.83,0-1.241-4.229-1.396,4.229-2.894,0-2.846-8.936"/>

  <path d="m10.3,68.46-5.081,0-2.848,8.935,3.17,0,0.5146-1.251,3.344,0,0.4965,1.251,3.106,0-2.702-8.935zm-3.537,5.539,1.093-3.276,1.029,3.276-2.123,0"/>

  <path d="m30.92,71.09,4.167,0,0-2.681-6.5,0c-1.672,0-2.394,1.552-2.348,2.326,0.04637,0.775,0.2001,1.749,1.59,2.92,1.268,1.066-0.628,0.7738-0.8184,0.7738,0,0-2.971-0.0025-3.743-0.0025-0.7719,0-1.232-0.4288-1.232-0.4288,1.047,0,1.976-1.414,1.976-2.86s-1.526-2.679-2.748-2.679h-6.836v8.935h3.473v-2.979s1.479,1.608,2.251,2.262c0.7715,0.6562,0.836,0.7162,1.883,0.7162l7.599-0.04875c1.094,0,2.748-0.9362,2.748-2.485,0-0.6225,0.01325-0.9675-0.7772-1.791l-1.203-1.32c-0.69-0.5962-0.05963-0.6588,0.519-0.6588zm-10.82,1.239h-2.204v-1.609h2.204c1.01,0,1.185,1.609,0,1.609"/>

  <path d="m36.08,77.44,130.1,0,0-1.619-130.1,0,0,1.619z"/>

  <path d="m-60.59,125.3,226.8,0,0-1.689-226.8,0,0,1.689z"/>

  <path d="m-57.7,130.6,0.4927-1.871,8.278,0-0.7099,1.842c-0.7676-0.4638-1.737-0.6376-2.954-0.6376v6.911c0,1.044,0.1304,1.971,0.478,2.851h-2.616c0.3478-0.8804,0.4781-1.808,0.4781-2.851v-6.911c-1.39,0.0435-2.52,0.2178-3.447,0.6665"/>

  <path d="m-38.6,131.6c0-1.044-0.1312-1.971-0.4794-2.853h2.617c-0.3476,0.8814-0.4639,1.809-0.4639,2.853v5.26c0,1.045,0.1162,1.974,0.4639,2.856h-2.617c0.3481-0.8819,0.4794-1.811,0.4794-2.856v-2.017h-4.647v2.017c0,1.045,0.1309,1.974,0.479,2.856h-2.616c0.3476-0.8819,0.478-1.811,0.478-2.856v-5.26c0-1.044-0.1304-1.971-0.478-2.853h2.616c-0.3481,0.8814-0.479,1.809-0.479,2.853v1.87h4.647v-1.87"/>

  <path d="m-31.35,136.8,0-5.26c0-1.045-0.1304-1.973-0.4781-2.856h5.99l-0.855,1.768c-0.7236-0.4639-1.68-0.667-2.868-0.667h-0.1299v3.787h3.403l-0.9991,1.592c-0.579-0.3036-1.376-0.4634-2.404-0.5361v3.983c0.1445,0,0.2895,0.0147,0.4346,0.0147,1.39,0,2.693-0.2608,3.968-0.7822l-0.8258,1.808h-5.715c0.3478-0.8814,0.4781-1.808,0.4781-2.851"/>

  <path d="m-11.28,134.6,0-4.903h0.145c1.698,0,2.482,0.7696,2.482,2.466,0,1.523-0.9146,2.379-2.627,2.437zm-0.043-5.929-2.094,0c0.3478,0.8814,0.4776,1.81,0.4776,2.854v5.258c0,1.045-0.1299,1.974-0.4776,2.856h2.616c-0.3481-0.8819-0.479-1.811-0.479-2.856v-1.726c0.3774,0.0576,0.7261,0.086,1.06,0.086,2.204,0,3.465-1.225,3.465-3.227,0-1.306-0.5795-2.234-1.768-2.841-0.4785-0.2456-1.422-0.4049-2.8-0.4049"/>

  <path d="m3.865,131.6c0-1.044-0.1304-1.971-0.479-2.853h2.617c-0.348,0.9-0.464,1.8-0.464,2.9v5.26c0,1.045,0.1158,1.974,0.4634,2.856h-2.617c0.3486-0.8819,0.479-1.811,0.479-2.856v-2.017h-4.646v2.017c0,1.045,0.1309,1.974,0.479,2.856h-2.616c0.3476-0.8819,0.478-1.811,0.478-2.856v-5.26c0-1.044-0.1304-1.971-0.478-2.853h2.616c-0.3481,0.8814-0.479,1.809-0.479,2.853v1.87h4.646v-1.87"/>

  <path d="m13.5,135,1.433-3.116,1.317,3.116-2.75,0zm-0.5938,1.268,3.923,0,0.7388,1.728c0.1588,0.3638,0.3038,0.6972,0.3038,1.162,0,0.1451-0.01412,0.3179-0.0435,0.5045h2.809c-0.6665-0.8824-1.173-1.666-1.492-2.363l-4.096-8.83-4.227,8.511c-0.5358,1.075-1.071,1.96-1.635,2.683h2.605c-0.01463-0.1001-0.02875-0.2149-0.02875-0.316,0-0.4936,0.1591-1.017,0.4482-1.626l0.6948-1.452"/>

  <path d="m26.82,139.7-2.448,0c0.3478-0.8814,0.4781-1.809,0.4781-2.853v-6.538l-1.303-1.577h2.795v0.0724c0,0.5336,0.2901,0.8666,0.5801,1.273l5.003,6.973v-5.465c0-1.044-0.1158-1.972-0.4644-2.853h2.449c-0.3476,0.8814-0.478,1.809-0.478,2.853v5.392c0,1.058,0.05763,1.957,0.2461,2.722h-2.246c-0.05813-0.4318-0.2031-0.8232-0.4351-1.142l-4.641-6.393v4.683c0,1.044,0.1162,1.971,0.4639,2.853"/>

  <path d="m37.9,130.6,0.4926-1.871,8.278,0-0.7095,1.842c-0.7681-0.4638-1.738-0.6376-2.955-0.6376v6.911c0,1.044,0.1304,1.971,0.478,2.851h-2.616c0.3476-0.8804,0.478-1.808,0.478-2.851v-6.911c-1.39,0.0435-2.52,0.2178-3.447,0.6665"/>

  <path d="m55.68,138.5c-1.203,0-2.29-0.581-2.986-1.612-0.58-0.857-0.8848-1.845-0.8848-2.934,0-2.382,1.493-4.023,3.538-4.023,1.276,0,2.378,0.6396,3.133,1.83,0.4775,0.7549,0.7538,1.728,0.7538,2.817,0,2.338-1.509,3.921-3.553,3.921zm5.378-4.342c0-1.626-0.5938-3.036-1.68-4.081-1.001-0.9385-2.262-1.443-3.742-1.443-1.768,0-3.349,0.7065-4.436,1.966-0.8402,0.9879-1.274,2.179-1.274,3.573,0,1.816,0.6952,3.355,1.941,4.371,1.044,0.8364,2.291,1.269,3.625,1.269,1.436,0,2.74-0.4902,3.785-1.429,1.159-1.046,1.781-2.527,1.781-4.226"/>

  <path d="m67.4,136.8c0,1.044,0.1162,1.971,0.465,2.853h-2.602c0.3462-0.8814,0.4625-1.809,0.4625-2.853v-6.958l-1.144-1.157h2.559c0.01375,0.4029,0.245,0.6782,0.5062,1.012l3.411,4.364,3.441-4.364c0.275-0.3481,0.4775-0.623,0.5062-1.012h2.429c-0.6512,0.5333-1.042,1.49-1.042,2.781v5.334c0,1.044,0.115,1.971,0.4625,2.853h-2.616c0.3488-0.8814,0.4788-1.809,0.4788-2.853v-5.001l-3.688,4.552-3.629-4.566v5.016"/>

  <path d="m91.64,136.8c0,1.044,0.1162,1.971,0.4638,2.853h-2.602c0.3475-0.8814,0.4638-1.809,0.4638-2.853v-6.958l-1.145-1.157h2.56c0.01375,0.4029,0.245,0.6782,0.5062,1.012l3.411,4.364,3.44-4.364c0.2762-0.3481,0.4788-0.623,0.5075-1.012h2.427c-0.6512,0.5333-1.041,1.49-1.041,2.781v5.334c0,1.044,0.115,1.971,0.4625,2.853h-2.617c0.3488-0.8814,0.48-1.809,0.48-2.853v-5.001l-3.688,4.552-3.629-4.566v5.016"/>

  <path d="m106.6,136.8,0-5.26c0-1.045-0.1312-1.973-0.4788-2.856h5.99l-0.855,1.768c-0.7238-0.4639-1.679-0.667-2.868-0.667h-0.13v3.787h3.404l-1,1.592c-0.5788-0.3036-1.375-0.4634-2.404-0.5361v3.983c0.145,0,0.29,0.0147,0.435,0.0147,1.39,0,2.694-0.2608,3.968-0.7822l-0.825,1.808h-5.715c0.3475-0.8814,0.4788-1.808,0.4788-2.851"/>

  <path d="m119.1,139.7-2.448,0c0.3475-0.8814,0.4775-1.809,0.4775-2.853v-6.538l-1.302-1.577h2.795v0.0724c0,0.5336,0.29,0.8666,0.58,1.273l5.002,6.973v-5.465c0-1.044-0.115-1.972-0.4638-2.853h2.449c-0.3475,0.8814-0.4788,1.809-0.4788,2.853v5.392c0,1.058,0.0575,1.957,0.2462,2.722h-2.245c-0.0575-0.4318-0.2025-0.8232-0.435-1.142l-4.641-6.393v4.683c0,1.044,0.1162,1.971,0.4638,2.853"/>

  <path d="m133.7,135,1.432-3.116,1.318,3.116-2.75,0zm-0.5938,1.268,3.922,0,0.7388,1.728c0.1588,0.3638,0.3038,0.6972,0.3038,1.162,0,0.1451-0.015,0.3179-0.0437,0.5045h2.809c-0.6662-0.8824-1.172-1.666-1.491-2.363l-4.096-8.83-4.228,8.511c-0.535,1.075-1.071,1.96-1.635,2.683h2.605c-0.015-0.1001-0.0288-0.2149-0.0288-0.316,0-0.4936,0.1588-1.017,0.4488-1.626l0.695-1.452"/>

  <path d="m149.1,139.8c-1.348,0-2.535-0.3901-3.519-1.155-1.292-1-2.002-2.511-2.002-4.268,0-1.8,0.725-3.354,2.045-4.414,1.13-0.9091,2.578-1.372,4.301-1.372,0.7825,0,1.665,0.1158,2.651,0.3614l-0.015,1.925c-0.855-0.624-1.911-0.9438-3.041-0.9438-2.405,0-3.982,1.67-3.982,4.385,0,2.526,1.535,4.123,3.881,4.123,1.188,0,2.288-0.4209,3.418-1.292l-0.0425,1.856c-1.348,0.5346-2.592,0.7944-3.694,0.7944"/>

  <path d="m157.1,136.8,0-5.26c0-1.045-0.13-1.973-0.4775-2.856h5.99l-0.855,1.768c-0.7238-0.4639-1.68-0.667-2.868-0.667h-0.13v3.787h3.404l-1,1.592c-0.5788-0.3036-1.375-0.4634-2.404-0.5361v3.983c0.145,0,0.29,0.0147,0.435,0.0147,1.39,0,2.694-0.2608,3.968-0.7822l-0.825,1.808h-5.715c0.3475-0.8814,0.4775-1.808,0.4775-2.851"/>

  <path d="m-51.22,99.18,5.232,0.05c2.172-0.1212,2.738-0.1212,3.089-1.086,0.23-0.2412,0.4712-0.2412,0.5318,0,0.0605,0.2412-0.1206,1.118-0.1206,2.595,0,1.314-0.3018,3.017-0.3018,3.379,0,0.3622-0.6035,0.4224-0.664,0,0.3022-3.379-1.963-3.017-3.681-3.017l-4.103-0.1206v7.332c0,4.556-0.02775,5.341,4.043,5.341l2.896-0.1816c1.448-0.1806,2.897-1.206,2.957-3.439,0-0.2416,0.6035-0.4224,0.6035,0.0601,0,0.4829-0.3622,4.888-0.7846,5.25-0.4224,0.3618-4.606-0.009-8.718-0.009-3.044,0-8.178,0.009-8.54,0.009-0.3623,0-0.3442-0.3219-0.02099-0.4024,2.254-0.1406,3.038-0.0806,2.978-5.21v-18.22c0-3.364-0.06055-4.172-3.561-4.354-0.2417-0.06125-0.3618-0.4825,0.02149-0.4312,0.6387,0.0875,5.546-0.0625,8.3,0.04875,9.48,0.3825,9.54-1.066,9.299-0.1,0,0-0.3622,4.525-0.4229,5.069-0.06,0.5425-0.5541,0.3375-0.6635,0,0.1562-2.8-1.956-3.078-3.741-3.078l-4.616-0.05-0.01312,10.56"/>

  <path d="m-32.99,86.73c0.397-0.05125,3.693,0.04875,5.544,0.04875,1.398,0,3.332-0.04875,5.074-0.04875,4.223,0,9.511,0.6575,9.511,7.069,0,4.85-3.964,8.811-8.268,8.811-0.8204,0-1.267,0.0606-1.75,0-0.483-0.0605-0.3218-0.6255-0.0098-0.6445,0.311-0.0195,0.7431-0.1396,1.277-0.1396,1.796,0,4.526-2.814,4.526-6.819,0-3.42-2.431-6.608-5.944-6.608-0.6265,0-1.377,0.04125-1.836,0.1238v22.83c0.05575,3.928,1.38,3.47,3.788,3.586,0.5376,0.0551,0.2056,0.4478,0.0093,0.4024-0.1962-0.045-3.797-0.009-5.607-0.009-1.975,0-5.255,0.009-5.677,0.009-0.4224,0-0.2881-0.3219-0.0235-0.4024,2.376-0.02,2.799-0.1406,2.996-3.586v-19.53c0-3.561,0.1045-4.605-3.576-4.545-0.2418-0.06-0.4316-0.4988-0.03475-0.5512"/>

  <path d="m-2.182,90.83c0-3.26-0.543-3.362-2.836-3.544-0.5112-0.04-0.4116-0.4988-0.00775-0.5512,0.4042-0.05125,3.6,0.04875,5.452,0.04875,1.892,0,4.436-0.1775,4.987,0.01125,0.5509,0.19,0.1974,0.5338,0.00737,0.5525-1.81,0.18-2.896-0.4175-2.896,3.416v20.59c-0.1206,3.566,1.358,3.566,3.756,3.566,0.3466,0,0.2715,0.5024-0.0225,0.4624-0.2939-0.04-3.734-0.0489-5.544-0.0489-1.974,0-5.593,0.0489-5.853,0.009-0.2599-0.0401-0.2799-0.3624-0.01962-0.4224,1.508-0.3491,2.976,0.8745,2.976-3.5v-20.59"/>

  <path d="m15.26,114.4c2.836,1.388,3.923,1.569,6.842,1.549,4.849-0.0332,8.712-2.857,8.787-8.186,0.121-8.629-11.1-10.32-11.16-15.75-0.02838-2.55,1.487-4.191,4.586-4.224,5.447,0.0325,5.076,4.969,5.009,4.768,0.1206,0.3625,0.603,0.5425,0.603,0.06s0.2418-5.612,0.2418-5.612c-1.648-0.2462-1.176-0.8762-5.556-0.9125-4.379-0.0375-8.655,2.604-8.624,7.129,0.06012,9.051,10.86,9.776,10.98,15.93,0.06,3.078-1.871,5.069-4.646,5.009-3.5-0.0763-6.155-1.283-6.155-6.035,0-0.4222-0.543-0.4829-0.6636-0.06-0.1206,0.4224-0.2418,6.336-0.2418,6.336"/>

  <path d="m43.64,100c0-7.22,3.011-12.02,9.328-12.02,7.504,0,10.86,7.566,10.86,13.76,0,8.024-3.138,12.37-8.689,12.37-7.263,0-11.5-6.342-11.5-14.1zm-5.094,1.311c0,9.239,6.903,14.64,15.24,14.64,9.234,0,15.24-7.14,15.24-15.01,0-11.81-8.952-14.85-15.11-14.85-10.32,0-15.36,7.188-15.36,15.21"/>

  <path d="m84.47,88.79c0.3012-0.3012,2.419-0.3012,4.102-0.3012,4.631,0,12.91,3.108,12.91,12.79,0,7.362-1.969,12.73-11.41,12.73-2.896,0-5.551-0.1988-5.551-3.56,0,0-0.3612-21.36-0.06-21.66zm-4.714,22.4c-0.3888,3.75-0.4825,3.67-3.01,3.67-0.3625,0-0.3625,0.483-0.06,0.483,0.3012,0,2.948-0.009,4.798-0.009,1.934,0,6.322,0.4312,8.418,0.4312,14.54,0,16.39-10.54,16.53-14.6,0.2312-6.695-3.536-14.54-16.11-14.48-3.04,0.01375-7.77,0.1-9.498,0.1-1.604,0-4.222,0.06375-4.664,0.0125-0.4425-0.0525-0.3212,0.5512,0.04,0.5512,3.299,0,3.554,0.8188,3.554,3.95v19.9"/>

  <path d="m157.4,90.87c0-2.972-0.6438-3.544-3.058-3.544-0.3212,0-0.6038-0.54,0.005-0.5925,0.6088-0.05125,3.334,0.04875,5.185,0.04875,1.892,0,4.492,0.0025,5.189-0.04875,0.695-0.05125,0.4838,0.5925,0.001,0.5925-2.495,0-2.736,0.6512-2.736,3.462v20.59c0,3.776,1.449,3.532,3.38,3.46,0.8038-0.0302,0.67,0.583-0.001,0.543-0.6725-0.04-3.735-0.0489-5.545-0.0489-1.975,0-4.622,0.009-5.265,0.009-0.6438,0-0.4575-0.2979,0.03-0.3419,1.77-0.1611,2.815,0.0176,2.815-3.54v-20.59"/>

  <path d="m121.4,99.21,5.232,0.05c2.172-0.12,2.739-0.12,3.09-1.086,0.2288-0.2412,0.47-0.2412,0.5312,0,0.06,0.2412-0.1212,1.118-0.1212,2.595,0,1.314-0.3012,3.017-0.3012,3.379,0,0.3622-0.6038,0.4224-0.6638,0,0.3012-3.379-1.964-3.018-3.681-3.018l-4.104-0.1201v7.332c0,4.555-0.0275,5.34,4.044,5.34l2.896-0.1806c1.449-0.1811,2.896-1.207,2.956-3.44,0-0.2416,0.6038-0.4224,0.6038,0.0601,0,0.4824-0.3612,4.888-0.785,5.25-0.4212,0.3622-4.605-0.009-8.718-0.009-3.044,0-8.178,0.009-8.54,0.009-0.3625,0-0.345-0.3212-0.0213-0.4024,2.254-0.1401,3.039-0.08,2.978-5.21v-18.21c0-3.364-0.06-4.172-3.56-4.354-0.2412-0.06-0.3612-0.4825,0.0213-0.43,0.6388,0.08625,5.546-0.06375,8.3,0.0475,9.48,0.3825,9.54-1.065,9.299-0.1,0,0-0.3612,4.526-0.4212,5.069-0.06,0.5425-0.555,0.3375-0.6638,0,0.1562-2.8-1.956-3.078-3.742-3.078l-4.615-0.05-0.0138,10.56"/>

 </g>

</svg>

