<?xml version="1.0" encoding="utf-8"?>
<!-- Generator: Adobe Illustrator 16.0.0, SVG Export Plug-In . SVG Version: 6.00 Build 0)  -->
<!DOCTYPE svg PUBLIC "-//W3C//DTD SVG 1.1//EN" "http://www.w3.org/Graphics/SVG/1.1/DTD/svg11.dtd">
<svg version="1.1" id="Layer_1" xmlns="http://www.w3.org/2000/svg" xmlns:xlink="http://www.w3.org/1999/xlink" x="0px" y="0px"
	 width="1000px" height="394.064px" viewBox="0 0 1000 394.064" enable-background="new 0 0 1000 394.064" xml:space="preserve">
<g>
	<polygon fill-rule="evenodd" clip-rule="evenodd" points="0,352.465 0,394.064 998.294,394.064 998.294,352.465 0,352.465 	"/>
	<polygon fill-rule="evenodd" clip-rule="evenodd" points="3.647,0 3.647,221.11 188.274,221.11 188.274,155.436 94.138,155.436 
		94.138,120.408 188.274,120.408 188.274,61.298 94.138,61.298 94.138,41.594 420.334,41.594 420.334,0 3.647,0 	"/>
	<polygon fill-rule="evenodd" clip-rule="evenodd" points="204.329,61.298 204.329,221.11 264.898,221.11 264.898,169.302 
		294.819,221.11 324.009,169.302 324.009,221.11 383.119,221.11 383.119,61.298 324.009,61.298 294.819,120.408 264.898,61.298 
		204.329,61.298 	"/>
	<path fill-rule="evenodd" clip-rule="evenodd" d="M518.123,61.298c-32.841,0-114.57,0-114.57,0V221.11h64.945v-48.159
		c0,0,32.839,0,49.625,0c16.052,0,55.461-8.516,55.461-56.922C573.584,87.328,550.232,61.298,518.123,61.298L518.123,61.298z
		 M496.958,126.976c-9.485,0-28.459,0-28.459,0v-17.425c0,0,22.622,0,29.191,0c8.753,0,12.408,2.829,12.408,7.938
		C510.098,124.788,506.442,126.976,496.958,126.976L496.958,126.976z"/>
	<polygon fill-rule="evenodd" clip-rule="evenodd" points="586.718,61.298 586.718,221.11 656.772,221.11 656.772,61.298 
		586.718,61.298 	"/>
	<path fill-rule="evenodd" clip-rule="evenodd" d="M815.86,160.544c8.51,0,31.377-13.624,31.377-45.244
		c0-32.352-28.218-54.001-72.244-54.001c-26.274,0-95.597,0-95.597,0V221.11h67.137v-40.133c0,0,16.784,14.596,27.728,24.081
		c10.949,9.484,16.789,16.052,35.026,16.052c18.249,0,37.95,0,37.95,0v-51.809c0,0-7.299,0-15.325,0S815.86,160.544,815.86,160.544
		L815.86,160.544z M775.358,127.021c-9.49,0-28.459,0-28.459,0v-17.425c0,0,22.619,0,29.186,0c8.759,0,12.408,2.832,12.408,7.938
		C788.493,124.833,784.844,127.021,775.358,127.021L775.358,127.021z"/>
	<polygon fill-rule="evenodd" clip-rule="evenodd" points="556.067,0 556.067,41.594 998.294,41.594 998.294,0 556.067,0 	"/>
	<polygon fill-rule="evenodd" clip-rule="evenodd" points="864.754,61.298 864.754,221.11 998.294,221.11 998.294,172.952 
		934.075,172.952 934.075,155.436 998.294,155.436 998.294,120.408 934.075,120.408 934.075,109.551 998.294,109.551 
		998.294,61.298 864.754,61.298 	"/>
	<polygon fill-rule="evenodd" clip-rule="evenodd" points="426.172,0 426.172,14.596 435.659,14.596 435.659,41.594 454.634,41.594 
		454.634,14.596 464.119,14.596 464.119,0 426.172,0 	"/>
	<polygon fill-rule="evenodd" clip-rule="evenodd" points="467.039,0 467.039,41.594 486.011,41.594 486.011,25.542 493.308,25.542 
		493.308,41.594 513.015,41.594 513.015,0 493.308,0 493.308,14.596 486.011,14.596 486.011,0 467.039,0 	"/>
	<polygon fill-rule="evenodd" clip-rule="evenodd" points="518.123,0 518.123,41.594 552.418,41.594 552.418,28.459 537.093,28.459 
		537.093,25.542 552.418,25.542 552.418,17.513 537.093,17.513 537.093,14.596 552.418,14.596 552.418,0 518.123,0 	"/>
	<path fill-rule="evenodd" clip-rule="evenodd" d="M86.109,238.626v29.919H59.84c0,0,10.946,12.402,16.784,19.701
		c5.838,7.3,5.108,5.114,5.108,16.784c0,10.701-9.487,27.733-42.326,27.733c-24.81,0-35.759,0-35.759,0v-33.568h32.841
		L25.54,280.947c-10.723-18.97-1.924-42.321,19.705-42.321C63.489,238.626,86.109,238.626,86.109,238.626L86.109,238.626z"/>
	<polygon fill-rule="evenodd" clip-rule="evenodd" points="91.949,238.626 91.949,268.545 115.301,268.545 115.301,332.764 
		151.786,332.764 151.786,268.545 176.599,268.545 176.599,238.626 91.949,238.626 	"/>
	<polygon fill-rule="evenodd" clip-rule="evenodd" points="284.603,238.626 284.603,332.764 322.547,332.764 322.547,238.626 
		284.603,238.626 	"/>
	<polygon fill-rule="evenodd" clip-rule="evenodd" points="428.362,238.626 428.362,332.764 502.798,332.764 502.798,299.195 
		467.039,299.195 467.039,294.092 502.798,294.092 502.798,272.927 467.039,272.927 467.039,268.545 502.798,268.545 
		502.798,238.626 428.362,238.626 	"/>
	<path fill-rule="evenodd" clip-rule="evenodd" d="M590.729,238.626v29.919H564.46c0,0,10.949,12.402,16.784,19.701
		c5.84,7.3,5.108,5.114,5.108,16.784c0,10.701-9.485,27.733-42.326,27.733c-24.811,0-35.754,0-35.754,0v-33.568h32.836
		l-10.949-18.248c-10.723-18.97-1.921-42.321,19.707-42.321C568.109,238.626,590.729,238.626,590.729,238.626L590.729,238.626z"/>
	<path fill-rule="evenodd" clip-rule="evenodd" d="M264.898,299.195c7.299-6.567,14.596-10.217,14.596-24.815
		c0-23.836-17.026-35.754-36.488-35.754c-21.893,0-62.028,0-62.028,0v94.138h40.865v-23.352c0,0,10.217,8.753,16.055,13.867
		c5.838,5.103,10.217,9.484,21.893,9.484c11.675,0,19.704,0,19.704,0v-33.568C279.494,299.195,268.782,299.809,264.898,299.195
		L264.898,299.195z M238.627,278.029c-8.026,0-16.784,0-16.784,0v-9.484c0,0,7.296,0,16.055,0
		C246.655,268.545,246.655,278.029,238.627,278.029L238.627,278.029z"/>
	<path fill-rule="evenodd" clip-rule="evenodd" d="M799.076,238.626h-47.86l-30.65,94.385h37.158l4.377-13.145h29.191l5.168,13.145
		h33.267L799.076,238.626L799.076,238.626z M771.649,294.092l4.56-19.465l5.657,19.465H771.649L771.649,294.092z"/>
	<path fill-rule="evenodd" clip-rule="evenodd" d="M899.29,306.247v26.764c0,0-17.693,0-32.776,0
		c-15.077,0-41.169-19.647-41.169-45.916c0-24.493,21.71-48.469,42.144-48.469c18.248,0,31.802,0,31.802,0v26.086
		c0,0-11.67-0.302-22.861-0.302c-10.62,0-19.949,8.753-19.949,18.001c0,8.774,3.951,23.836,18.308,23.836
		C884.515,306.247,899.29,306.247,899.29,306.247L899.29,306.247z"/>
	<path fill-rule="evenodd" clip-rule="evenodd" d="M904.732,238.713v94.137h38.683v-26.99c0,0,17.511,13.866,24.077,18.97
		c6.573,5.103,12.408,8.021,19.707,8.021c7.294,0,12.801,0.161,12.801,0.161v-33.567l-23.018-15.481L1000,238.626h-39.408
		l-17.177,30.016v-29.929H904.732L904.732,238.713z"/>
	<path fill-rule="evenodd" clip-rule="evenodd" d="M328.737,239.057v94.138h38.674v-27.001c0,0,17.516,13.866,24.083,18.97
		c6.567,5.103,12.405,8.031,19.705,8.031c7.296,0,12.8,0.15,12.8,0.15v-33.568l-23.02-15.481L424,238.96h-39.409l-17.18,30.016
		v-29.919H328.737L328.737,239.057z"/>
	<path fill-rule="evenodd" clip-rule="evenodd" d="M712.475,283.875c0,0,8.759,1.938,9.248-20.434
		c0.345-16.073-14.781-24.815-29.374-24.815c-25.301,0-70.361,0-70.361,0v94.385c0,0,53.334,0,72.794,0
		c19.459,0,28.885-14.599,28.885-26.764C723.666,289.474,712.475,283.875,712.475,283.875L712.475,283.875z M679.822,308.229
		c-8.026,0-16.784,0-16.784,0v-9.485c0,0,7.299,0,16.052,0C687.848,298.743,687.848,308.229,679.822,308.229L679.822,308.229z
		 M679.822,274.176c-8.026,0-16.784,0-16.784,0v-9.496c0,0,7.299,0,16.052,0C687.848,264.68,687.848,274.176,679.822,274.176
		L679.822,274.176z"/>
</g>
</svg>
