<?xml version="1.0" encoding="utf-8"?>
<!-- Generator: Adobe Illustrator 16.0.0, SVG Export Plug-In . SVG Version: 6.00 Build 0)  -->
<!DOCTYPE svg PUBLIC "-//W3C//DTD SVG 1.1//EN" "http://www.w3.org/Graphics/SVG/1.1/DTD/svg11.dtd">
<svg version="1.1" id="Layer_1" xmlns="http://www.w3.org/2000/svg" xmlns:xlink="http://www.w3.org/1999/xlink" x="0px" y="0px"
	 width="1000px" height="385.215px" viewBox="0 0 1000 385.215" enable-background="new 0 0 1000 385.215" xml:space="preserve">
<g>
	<path fill-rule="evenodd" clip-rule="evenodd" d="M329.442,29.83V0H191.959v71.335c0,0-18.156,0-29.832,0
		c-11.673,0-28.535-10.376-28.535-10.376c16.862,0,24.643-17.726,24.643-24.643C158.235,21.615,140.078,0,106.356,0
		C72.632,0,6.487,0,6.487,0v103.762h51.881V76.524c0,0,25.938,12.97,41.502,18.16c15.565,5.187,18.157,9.078,40.208,9.078
		c22.049,0,189.364,0,189.364,0V71.335h-86.899V60.959h60.959V36.316h-60.959V29.83H329.442L329.442,29.83z M93.384,50.583
		c-11.673,0-35.016,0-35.016,0V29.83c0,0,19.454,0,35.016,0C114.138,29.83,114.138,50.583,93.384,50.583L93.384,50.583z"/>
	<path fill-rule="evenodd" clip-rule="evenodd" d="M337.224,0v29.83h46.692v73.932h47.989V29.83h41.505c0,0,0,12.97,0,31.129
		s12.97,42.803,85.603,42.803c72.632,0,80.416-32.427,80.416-42.803c0-10.375,0-60.959,0-60.959H586.25c0,0,0,40.205,0,50.583
		c0,10.375-6.481,20.751-27.237,20.751c-20.752,0-33.719-6.486-33.719-20.751c0-14.268,0-50.583,0-50.583H337.224L337.224,0z"/>
	<path fill-rule="evenodd" clip-rule="evenodd" d="M876.784,50.583c20.751,3.892,71.335,20.751,71.335,53.178H1000V0h-51.881v40.205
		C931.255,25.94,876.784,0,822.309,0v71.335c0,0-1.297,0-12.973,0c-11.67,0-24.644-3.89-24.644-3.89
		c16.865,0,23.998-24.212,23.998-31.129C808.69,21.615,790.533,0,756.809,0c-33.724,0-99.87,0-99.87,0v103.762h51.882V76.524
		c0,0,25.94,12.97,41.502,18.16c15.563,5.187,18.157,9.078,40.211,9.078c22.049,0,86.251,0,86.251,0V50.583L876.784,50.583z
		 M743.836,50.583c-11.67,0-35.016,0-35.016,0V29.83c0,0,19.454,0,35.016,0C764.587,29.83,764.587,50.583,743.836,50.583
		L743.836,50.583z"/>
	<polygon fill-rule="evenodd" clip-rule="evenodd" points="6.487,112.84 6.487,124.513 204.927,124.513 204.927,112.84 
		6.487,112.84 	"/>
	<polygon fill-rule="evenodd" clip-rule="evenodd" points="7.133,287.935 7.133,299.615 205.575,299.615 205.575,287.935 
		7.133,287.935 	"/>
	<path fill-rule="evenodd" clip-rule="evenodd" d="M251.621,112.84c0,0,0,156.943,0,185.473c0,28.53-46.694,28.53-70.038,28.53
		c-23.349,0-31.129,0-31.129,0l33.721,58.372c20.751,0,41.502,0,58.368,0c16.859,0,102.462-9.075,102.462-70.043
		c0-60.956,0-202.332,0-202.332H251.621L251.621,112.84z"/>
	<polygon fill-rule="evenodd" clip-rule="evenodd" points="359.272,112.84 359.272,298.313 607.001,298.313 607.001,242.545 
		453.956,242.545 453.956,223.091 564.201,223.091 564.201,178.986 453.956,178.986 453.956,167.315 607.001,167.315 
		607.001,112.84 359.272,112.84 	"/>
	<path fill-rule="evenodd" clip-rule="evenodd" d="M771.726,112.84c-33.725,0-151.751,0-151.751,0v185.473c0,0,121.918,0,162.129,0
		c40.205,0,115.432-29.832,115.432-95.978C897.535,136.186,805.444,112.84,771.726,112.84L771.726,112.84z M752.271,242.545
		c-18.162,0-41.509,0-41.509,0v-70.04c0,0,24.644,0,41.509,0c16.859,0,57.064,6.481,57.064,33.716
		C809.336,233.459,770.428,242.545,752.271,242.545L752.271,242.545z"/>
	<polygon fill-rule="evenodd" clip-rule="evenodd" points="907.914,112.84 907.914,298.313 1000,298.313 1000,112.84 
		907.914,112.84 	"/>
	<path fill-rule="evenodd" clip-rule="evenodd" d="M47.989,133.761c-25.324,0-45.857,15.603-45.857,34.852
		c0,19.247,20.533,34.852,45.857,34.852s45.857-15.605,45.857-34.852C93.847,149.363,73.313,133.761,47.989,133.761L47.989,133.761z
		 M48.638,190.621c-14.687,0-26.597-9.854-26.597-22.008c0-12.157,11.91-22.011,26.597-22.011c14.688,0,26.598,9.854,26.598,22.011
		C75.235,180.768,63.325,190.621,48.638,190.621L48.638,190.621z"/>
	<polygon fill-rule="evenodd" clip-rule="evenodd" points="99.87,202.335 99.87,136.186 143.967,136.186 143.967,149.156 
		116.729,149.156 116.729,160.829 143.967,160.829 143.967,172.505 116.729,172.505 116.729,202.335 99.87,202.335 	"/>
	<polygon fill-rule="evenodd" clip-rule="evenodd" points="0,216.599 0,228.27 14.268,228.27 14.268,281.453 29.83,281.453 
		29.83,228.27 45.395,228.27 45.395,216.599 0,216.599 	"/>
	<polygon fill-rule="evenodd" clip-rule="evenodd" points="49.287,216.599 49.287,281.453 63.554,281.453 63.554,254.216 
		97.275,254.216 97.275,281.453 111.543,281.453 111.543,216.599 97.275,216.599 97.275,242.545 63.554,242.545 63.554,216.599 
		49.287,216.599 	"/>
	<polygon fill-rule="evenodd" clip-rule="evenodd" points="123.216,216.599 123.216,281.453 169.908,281.453 169.908,271.075 
		137.483,271.075 137.483,254.216 169.908,254.216 169.908,242.545 137.483,242.545 137.483,228.27 169.908,228.27 169.908,216.599 
		123.216,216.599 	"/>
</g>
</svg>
