<?xml version="1.0" encoding="UTF-8" standalone="no"?>

<!-- Created with Inkscape (http://www.inkscape.org/) -->

<svg xmlns:rdf="http://www.w3.org/1999/02/22-rdf-syntax-ns#" xmlns="http://www.w3.org/2000/svg" version="1.1" xmlns:cc="http://creativecommons.org/ns#" xmlns:dc="http://purl.org/dc/elements/1.1/" viewBox="0 0 321.5 101.9">

 <metadata>

  <rdf:RDF>

   <cc:Work rdf:about="">

    <dc:format>image/svg+xml</dc:format>

    <dc:type rdf:resource="http://purl.org/dc/dcmitype/StillImage"/>

    <dc:title/>

   </cc:Work>

  </rdf:RDF>

 </metadata>

 <g transform="translate(256.42492,-1174.4465)">

  <g transform="matrix(0.94394533,0,0,0.94394533,101.16691,-10.870756)">

   <g>

    <path d="m-226.7,1353c0,3.934,3.072,7.95,8.03,7.95,4.342,0,8.03-3.053,8.03-7.848,0-3.894-2.561-7.744-7.641-7.744-5.346,0-8.419,4.221-8.419,7.641zm2.581-0.3486c0-2.971,1.986-5.654,5.08-5.654,3.585,0,6.022,3.484,6.022,6.679,0,2.398-1.599,5.614-5.019,5.614-2.93,0-6.084-2.478-6.084-6.639"/>

    <path d="m-203.6,1345c0.2475,0.8198,0.5138,1.66,0.5138,3.853v7.211c0,0.6352-0.0213,2.376-0.5138,4.303h3.278c-0.3475-1.19-0.47-2.254-0.47-3.485v-3.439c1.905-0.022,2.848,0.2436,3.911,0.6947l1.169-2.211h-5.08v-5.453c2.029,0.064,2.704,0.125,4.364,0.7788l1.249-2.252h-8.42"/>

    <path d="m-363.7,1303c0-7.117,0-8.427-0.0942-9.927-0.0933-1.591-0.4688-2.341-2.014-2.667-0.3735-0.095-1.17-0.1426-1.825-0.1426-0.5151,0-0.7964-0.092-0.7964-0.4214,0-0.3271,0.3276-0.4198,1.03-0.4198,2.481,0,5.431,0.1409,6.741,0.1409,1.498,0,10.82,0,11.7-0.048,0.8886-0.093,1.639-0.1875,2.013-0.2812,0.2349-0.046,0.5142-0.1875,0.7495-0.1875,0.2335,0,0.2799,0.1875,0.2799,0.4223,0,0.3277-0.2335,0.8912-0.3736,3.042-0.0474,0.4688-0.1415,2.529-0.2349,3.092-0.0464,0.2324-0.1401,0.5151-0.4673,0.5151-0.3281,0-0.4214-0.2349-0.4214-0.6562,0-0.3277-0.0474-1.124-0.2812-1.685-0.3276-0.8437-0.7964-1.406-3.137-1.688-0.7959-0.094-5.712-0.1875-6.648-0.1875-0.2339,0-0.3276,0.1412-0.3276,0.4688v11.85c0,0.3277,0.0474,0.5162,0.3276,0.5162,1.03,0,6.414,0,7.491-0.095,1.122-0.094,1.826-0.233,2.246-0.7017,0.3291-0.3759,0.5151-0.6098,0.7505-0.6098,0.187,0,0.3271,0.095,0.3271,0.375,0,0.2813-0.2339,1.031-0.375,3.419-0.0937,0.9375-0.1875,2.81-0.1875,3.139,0,0.3736,0,0.8888-0.4209,0.8888-0.3276,0-0.4219-0.1875-0.4219-0.4224-0.0459-0.4664-0.0459-1.078-0.186-1.686-0.2349-0.9351-0.8901-1.639-2.622-1.826-0.8891-0.092-5.524-0.1386-6.648-0.1386-0.2339,0-0.2812,0.1875-0.2812,0.4688v3.699c0,1.591-0.0459,5.9,0,7.257,0.0937,3.23,0.8428,3.934,5.618,3.934,1.217,0,3.184,0,4.401-0.5625,1.218-0.5615,1.779-1.545,2.108-3.464,0.0929-0.5175,0.1861-0.7036,0.5152-0.7036,0.3735,0,0.3735,0.3736,0.3735,0.8424,0,1.078-0.3735,4.263-0.6089,5.199-0.3276,1.218-0.7486,1.218-2.527,1.218-7.07,0-10.21-0.2828-12.97-0.2828-1.076,0-4.026,0.1411-5.899,0.1411-0.6085,0-0.9366-0.1411-0.9366-0.4687,0-0.2325,0.188-0.3736,0.7491-0.3736,0.7026,0,1.264-0.093,1.686-0.1875,0.9375-0.1865,1.171-1.219,1.358-2.576,0.2339-1.968,0.2339-5.666,0.2339-9.973v-8.243"/>

    <path d="m-329.3,1303c0-7.117,0-8.427-0.0933-9.927-0.0942-1.591-0.4679-2.341-2.012-2.667-0.3755-0.095-1.171-0.1426-1.826-0.1426-0.5152,0-0.7969-0.092-0.7969-0.4214,0-0.3271,0.3281-0.4198,1.03-0.4198,2.482,0,5.432,0.1409,6.743,0.1409,1.919,0,4.634-0.1409,6.788-0.1409,5.852,0,7.96,1.965,8.708,2.667,1.03,0.9839,2.341,3.091,2.341,5.573,0,6.65-4.87,11.33-11.52,11.33-0.2339,0-0.749,0-0.9839-0.047-0.2339-0.046-0.5611-0.095-0.5611-0.4222,0-0.3742,0.3272-0.5153,1.311-0.5153,2.622,0,6.272-2.95,6.272-7.725,0-1.545-0.1396-4.683-2.762-7.024-1.686-1.546-3.604-1.826-4.682-1.826-0.7012,0-1.404,0.046-1.825,0.1865-0.2354,0.094-0.375,0.3735-0.375,0.8886v18.73c0,4.306,0,8.005,0.2339,10.02,0.1411,1.312,0.4209,2.344,1.826,2.53,0.6549,0.095,1.685,0.1875,2.387,0.1875,0.5151,0,0.7485,0.1411,0.7485,0.3736,0,0.3276-0.373,0.4687-0.8886,0.4687-3.09,0-6.04-0.1411-7.257-0.1411-1.076,0-4.026,0.1411-5.898,0.1411-0.6094,0-0.9365-0.1411-0.9365-0.4687,0-0.2325,0.1875-0.3736,0.749-0.3736,0.7026,0,1.263-0.093,1.685-0.1875,0.9365-0.1865,1.17-1.219,1.358-2.576,0.233-1.968,0.233-5.666,0.233-9.973v-8.243"/>

    <path d="m-294.5,1303c0-7.117,0-8.427-0.0937-9.927-0.0942-1.591-0.5615-2.388-1.591-2.621-0.5151-0.1416-1.124-0.189-1.687-0.189-0.4672,0-0.7485-0.092-0.7485-0.4672,0-0.2813,0.375-0.374,1.124-0.374,1.778,0,4.728,0.1409,6.086,0.1409,1.17,0,3.932-0.1409,5.713-0.1409,0.6069,0,0.9819,0.093,0.9819,0.374,0,0.375-0.2808,0.4672-0.7495,0.4672-0.4678,0-0.8418,0.047-1.404,0.1426-1.264,0.2324-1.639,1.03-1.733,2.667-0.0932,1.5-0.0932,2.81-0.0932,9.927v8.243c0,4.542,0,8.241,0.1875,10.25,0.1406,1.264,0.4688,2.108,1.873,2.295,0.6558,0.095,1.686,0.1875,2.388,0.1875,0.5138,0,0.749,0.1411,0.749,0.3736,0,0.3276-0.375,0.4687-0.8901,0.4687-3.09,0-6.038-0.1411-7.303-0.1411-1.077,0-4.027,0.1411-5.9,0.1411-0.6084,0-0.936-0.1411-0.936-0.4687,0-0.2325,0.1875-0.3736,0.749-0.3736,0.7021,0,1.265-0.093,1.686-0.1875,0.9361-0.1865,1.217-0.9824,1.358-2.341,0.2339-1.966,0.2339-5.665,0.2339-10.21v-8.243"/>

    <path d="m-271.3,1324c-0.7491-0.3276-0.8888-0.5625-0.8888-1.593,0-2.575,0.1875-5.385,0.2339-6.135,0.0474-0.7011,0.187-1.216,0.562-1.216,0.4219,0,0.4674,0.4198,0.4674,0.7963,0,0.6074,0.1875,1.591,0.4219,2.387,1.03,3.465,3.792,4.729,6.696,4.729,4.214,0,6.274-2.856,6.274-5.339,0-2.292-0.7038-4.493-4.589-7.49l-2.152-1.688c-5.151-4.026-6.929-7.305-6.929-11.1,0-5.151,4.306-8.85,10.81-8.85,3.044,0,5.01,0.4678,6.228,0.7972,0.4212,0.093,0.655,0.2331,0.655,0.5617,0,0.6074-0.1875,1.965-0.1875,5.617,0,1.03-0.14,1.405-0.515,1.405-0.3275,0-0.4675-0.2813-0.4675-0.8428,0-0.4209-0.235-1.872-1.218-3.091-0.7025-0.8893-2.06-2.292-5.104-2.292-3.464,0-5.572,2.012-5.572,4.821,0,2.156,1.078,3.794,4.965,6.744l1.31,0.9834c5.619,4.354,7.679,7.493,7.679,11.94,0,2.714-1.03,5.946-4.401,8.149-2.34,1.496-4.962,1.918-7.444,1.918-2.717,0-4.823-0.3286-6.837-1.217"/>

    <path d="m-220.9,1323c-8.99,0-14.37-7.726-14.37-17.47,0-11.66,6.131-14.66,11.52-14.66,7.678,0,13.72,6.509,13.72,17,0,13.54-7.584,15.13-10.86,15.13zm-1.966,2.341c11.89,0,19.38-8.476,19.38-19.2,0-10.73-7.255-17.51-18.91-17.51-14.04,0-19.34,10.35-19.34,18.36,0,8.289,5.432,18.36,18.87,18.36"/>

    <path d="m-182.7,1302c0-3.699,0-7.772,0.0463-9.365,0-0.5151,0.1412-0.749,0.5612-0.935,0.375-0.1875,2.108-0.3286,3.045-0.3286,3.651,0,8.989,0.561,13.29,4.682,2.015,1.919,4.495,5.759,4.495,11.71,0,4.824-0.9362,9.086-3.932,11.66-2.809,2.436-5.991,3.371-10.77,3.371-3.699,0-5.525-0.9814-6.134-1.872-0.375-0.5152-0.4675-2.388-0.5138-3.56-0.0475-0.8888-0.0937-4.494-0.0937-9.458v-5.901zm-5.852,8.993c0,4.306,0,8.005-0.2338,9.973-0.1888,1.357-0.4212,2.39-1.358,2.576-0.4212,0.095-0.9838,0.1875-1.685,0.1875-0.5612,0-0.7512,0.1411-0.7512,0.3736,0,0.3276,0.3275,0.4687,0.9362,0.4687,1.874,0,4.825-0.1411,5.898-0.1411,2.344,0,6.556,0.564,9.975,0.564,8.661,0,13.53-3.325,15.68-5.528,2.621-2.668,5.104-7.164,5.104-13.06,0-5.571-2.199-9.459-4.541-11.89-5.101-5.339-12.92-5.339-18.78-5.339-2.806,0-5.756,0.1409-7.208,0.1409-1.31,0-4.261-0.1409-6.744-0.1409-0.7,0-1.028,0.093-1.028,0.4198,0,0.3292,0.28,0.4214,0.795,0.4214,0.6562,0,1.451,0.047,1.826,0.1426,1.545,0.3262,1.919,1.076,2.012,2.667,0.0937,1.5,0.0937,2.81,0.0937,9.927v8.243"/>

    <path d="m-141.6,1303c0-7.117,0-8.427-0.095-9.927-0.0925-1.591-0.4662-2.341-2.014-2.667-0.3738-0.095-1.169-0.1426-1.826-0.1426-0.5138,0-0.7938-0.092-0.7938-0.4214,0-0.3271,0.3262-0.4198,1.03-0.4198,2.479,0,5.431,0.1409,6.74,0.1409,1.5,0,10.82,0,11.7-0.048,0.89-0.093,1.638-0.1875,2.014-0.2812,0.2338-0.046,0.5138-0.1875,0.7488-0.1875,0.2338,0,0.28,0.1875,0.28,0.4223,0,0.3277-0.2325,0.8912-0.3725,3.042-0.0487,0.4688-0.1425,2.529-0.235,3.092-0.0475,0.2324-0.14,0.5151-0.4675,0.5151-0.33,0-0.4225-0.2349-0.4225-0.6562,0-0.3277-0.0463-1.124-0.2812-1.685-0.3275-0.8437-0.795-1.406-3.135-1.688-0.7962-0.094-5.712-0.1875-6.651-0.1875-0.2325,0-0.325,0.1412-0.325,0.4688v11.85c0,0.3277,0.0475,0.5162,0.325,0.5162,1.034,0,6.418,0,7.494-0.095,1.124-0.094,1.825-0.233,2.245-0.7017,0.3288-0.3759,0.5162-0.6098,0.7512-0.6098,0.185,0,0.3275,0.095,0.3275,0.375,0,0.2813-0.2338,1.031-0.375,3.419-0.0937,0.9375-0.1875,2.81-0.1875,3.139,0,0.3736,0,0.8888-0.4212,0.8888-0.3275,0-0.4212-0.1875-0.4212-0.4224-0.0463-0.4664-0.0463-1.078-0.1888-1.686-0.2325-0.9351-0.8888-1.639-2.619-1.826-0.8912-0.092-5.526-0.1386-6.649-0.1386-0.2338,0-0.2812,0.1875-0.2812,0.4688v3.699c0,1.591-0.0475,5.9,0,7.257,0.0925,3.23,0.8412,3.934,5.618,3.934,1.215,0,3.185,0,4.4-0.5625,1.218-0.5615,1.78-1.545,2.108-3.464,0.0937-0.5175,0.1875-0.7036,0.5162-0.7036,0.3738,0,0.3738,0.3736,0.3738,0.8424,0,1.078-0.3738,4.263-0.61,5.199-0.325,1.218-0.7475,1.218-2.526,1.218-7.07,0-10.21-0.2828-12.97-0.2828-1.076,0-4.029,0.1411-5.901,0.1411-0.6062,0-0.9338-0.1411-0.9338-0.4687,0-0.2325,0.1875-0.3736,0.7488-0.3736,0.7012,0,1.264-0.093,1.684-0.1875,0.9375-0.1865,1.172-1.219,1.358-2.576,0.2362-1.968,0.2362-5.666,0.2362-9.973v-8.243"/>

    <path d="m-97.64,1303c0-7.117,0-8.427-0.09125-9.927-0.095-1.591-0.5625-2.388-1.594-2.621-0.515-0.1416-1.122-0.189-1.684-0.189-0.4688,0-0.7512-0.092-0.7512-0.4672,0-0.2813,0.3762-0.374,1.126-0.374,1.778,0,4.729,0.1409,6.085,0.1409,1.169,0,3.932-0.1409,5.712-0.1409,0.6088,0,0.9812,0.093,0.9812,0.374,0,0.375-0.2788,0.4672-0.7475,0.4672-0.4675,0-0.8425,0.047-1.404,0.1426-1.265,0.2324-1.64,1.03-1.734,2.667-0.0925,1.5-0.0925,2.81-0.0925,9.927v8.243c0,4.542,0,8.241,0.1862,10.25,0.1388,1.264,0.4675,2.108,1.872,2.295,0.6562,0.095,1.685,0.1875,2.386,0.1875,0.515,0,0.7512,0.1411,0.7512,0.3736,0,0.3276-0.375,0.4687-0.89,0.4687-3.09,0-6.039-0.1411-7.305-0.1411-1.074,0-4.025,0.1411-5.898,0.1411-0.6075,0-0.9362-0.1411-0.9362-0.4687,0-0.2325,0.1875-0.3736,0.7488-0.3736,0.7025,0,1.264-0.093,1.686-0.1875,0.9362-0.1865,1.215-0.9824,1.356-2.341,0.2338-1.966,0.2338-5.665,0.2338-10.21v-8.243"/>

    <path d="m-79.22,1303c0-7.117,0-8.427-0.09375-9.927-0.0925-1.591-0.56-2.388-1.59-2.621-0.515-0.1416-1.125-0.189-1.686-0.189-0.4688,0-0.7488-0.092-0.7488-0.4672,0-0.2813,0.3738-0.374,1.125-0.374,1.779,0,4.728,0.1409,6.085,0.1409,1.17,0,3.932-0.1409,5.712-0.1409,0.6088,0,0.9825,0.093,0.9825,0.374,0,0.375-0.28,0.4672-0.7488,0.4672s-0.845,0.047-1.405,0.1426c-1.266,0.2324-1.639,1.03-1.734,2.667-0.0925,1.5-0.0925,2.81-0.0925,9.927v8.243c0,4.542,0,8.241,0.1875,10.25,0.14,1.264,0.4675,2.108,1.874,2.295,0.655,0.095,1.684,0.1875,2.386,0.1875,0.515,0,0.7488,0.1411,0.7488,0.3736,0,0.3276-0.3738,0.4687-0.89,0.4687-3.089,0-6.039-0.1411-7.301-0.1411-1.078,0-4.026,0.1411-5.9,0.1411-0.6075,0-0.9362-0.1411-0.9362-0.4687,0-0.2325,0.1862-0.3736,0.7475-0.3736,0.7038,0,1.264-0.093,1.688-0.1875,0.9362-0.1865,1.216-0.9824,1.356-2.341,0.2338-1.966,0.2338-5.665,0.2338-10.21v-8.243"/>

    <path d="m-60.3,1303c0-7.117,0-8.427-0.0925-9.927-0.09375-1.591-0.5612-2.388-1.592-2.621-0.5138-0.1416-1.124-0.189-1.684-0.189-0.47,0-0.7512-0.092-0.7512-0.4672,0-0.2813,0.375-0.374,1.125-0.374,1.779,0,4.729,0.1409,6.086,0.1409,1.17,0,3.932-0.1409,5.71-0.1409,0.61,0,0.985,0.093,0.985,0.374,0,0.375-0.28,0.4672-0.7488,0.4672s-0.8438,0.047-1.406,0.1426c-1.264,0.2324-1.64,1.03-1.731,2.667-0.09375,1.5-0.09375,2.81-0.09375,9.927v8.243c0,4.542,0,8.241,0.185,10.25,0.1425,1.264,0.4688,2.108,1.875,2.295,0.6562,0.095,1.685,0.1875,2.388,0.1875,0.515,0,0.75,0.1411,0.75,0.3736,0,0.3276-0.3762,0.4687-0.89,0.4687-3.09,0-6.039-0.1411-7.305-0.1411-1.075,0-4.025,0.1411-5.898,0.1411-0.61,0-0.9375-0.1411-0.9375-0.4687,0-0.2325,0.1875-0.3736,0.7488-0.3736,0.7038,0,1.265-0.093,1.688-0.1875,0.9362-0.1865,1.216-0.9824,1.356-2.341,0.2338-1.966,0.2338-5.665,0.2338-10.21v-8.243"/>

    <path d="m-199.7,1277,149.7,0,0-1.89-149.7,0,0,1.89z"/>

    <path d="m-366.7,1340,317,0,0-1.89-317,0,0,1.89z"/>

    <path d="m-328.5,1260h-23.51c-0.6314,0-1.608,0.4075-2.309,0.7962-2.168,1.186-3.07,3.916-1.86,6.065,0.56,0.9923,1.462,1.765,2.295,2.648,0.0917,0.099,0.2656,0.2525,0.1772,0.436-0.0449,0.1001-0.0855,0.1104-0.1416,0.1314-1.032,0.018-12.83,0-12.95,0-0.1026,0-0.1475,0.054-0.1475,0.2003,0,0.066,0.003,4.987,0.003,5.158,0,0.084,0.006,0.1147,0.1954,0.1147h10.89c4.059,0,8.629,0.6811,9.796-3.337,0.3291-1.135,0.293-2.482-0.2421-3.509-0.3501-0.67-0.7802-1.252-1.362-1.814-0.5308-0.5484-1.103-1.079-1.652-1.651,0.0175,0-0.0474-0.079,0.0869-0.079,0.1734,0,0.6885,0.01,0.8169,0.01,2.26,0,4.431,0.01,6.693,0.01,0,0.01,0.1332-0.034,0.1332,0.1452,0,0.2357,0.004,0.8133,0.004,0.9921v9.133c0,0.09,0.0239,0.1058,0.0951,0.1058h5.805c0.0722,0,0.0644-0.054,0.0644-0.1147v-10.12c0-0.049-0.0195-0.1452,0.0778-0.1452h7.034c0.0591,0,0.0953-0.018,0.0953-0.086v-4.98c0-0.1087-0.0361-0.099-0.0953-0.099"/>

    <path d="m-294.9,1275h7.155c0.1245,0,0.1348-0.03,0.1348-0.1475,0-0.1699-0.005-5.116-0.005-5.192,0-0.074-0.005-0.086-0.1225-0.086h-5.225-1.811c-1.059,0-1.579,0.02-1.915-0.3086-0.0864-0.05-0.0659-0.125,0.0138-0.1762,0.2734-0.2012,0.7372-0.4839,1.09-0.7388,1.114-0.811,1.811-1.926,1.9-3.257,0.1758-2.639-1.551-5.111-4.187-5.483-1.58-0.2225-3.644-0.1812-5.44-0.1812h-7.351c-0.039,0-0.0913,0.017-0.0913,0.094v15.36c0,0.05,0.006,0.1162,0.1074,0.1162,2.175,0,6.341,0.011,6.341-0.01,0.0908,0,0.1274-0.023,0.1274-0.1161v-4.21h0.0484v0.046c0.0366,0.02,0.0679,0.035,0.1001,0.052,0.54,0.5127,1.082,1.022,1.623,1.533,1.079,1.009,2.016,2.018,3.378,2.458,1.179,0.3789,2.742,0.2426,4.128,0.2426zm-6.746-8.809c-0.706,0-1.351-0.01-2.097-0.01-0.1001,0-0.1446-0.075-0.1446-0.2011,0-0.1386,0.01-1.445,0.01-1.585,0-0.1796,0.039-0.2524,0.125-0.2524h2.685c0.625,0,0.8076,0.046,1.089,0.1616,0.3422,0.1388,0.539,0.4224,0.5576,0.7925,0.0615,1.212-1.194,1.075-2.225,1.094"/>

    <path d="m-311.6,1275c0.0171,0,0.001-0.035,0.0195-0.035-0.4165-1.256-0.8315-2.514-1.249-3.772-0.9521-2.871-3.753-11.25-3.87-11.58-0.0274-0.079-0.0761-0.125-0.2388-0.125h-8.714c-0.0952,0-0.2002,0.03-0.23,0.081-0.0464,0.1262-0.8432,2.499-1.128,3.385-0.8301,2.586-1.665,5.172-2.498,7.759-0.2851,0.875-1.174,3.652-1.334,4.195,0,0-0.0375,0.087,0.0425,0.087h5.233c0.4054,0,0.6431,0.042,0.8145-0.1435,0.481-0.5187,0.5146-1.732,0.7822-1.985,0.0586-0.056,0.355-0.046,0.4478-0.046,0.1299,0,4.491-0.01,4.671-0.01,0.1929,0,0.4136,0.039,0.4551,0.075,0.2675,0.2451,0.4111,1.373,0.729,1.949,0.1445,0.2178,0.457,0.1665,0.5786,0.1714h5.197c0.1161,0,0.2905,0,0.2905-0.013zm-8.304-6.523h-2.461c-0.1801,0-0.1524-0.02-0.1524-0.062,0.0294-0.083,0.1129-0.3536,0.1378-0.4321,0.4048-1.208,0.7861-2.374,1.191-3.579,0.005,0.01,0.0249-0.046,0.0425-0.05,0.0215,0,0.0405,0.041,0.0454,0.05,0.2159,0.6665,1.146,3.6,1.269,4.011-0.0176,0.064-0.0719,0.062-0.0719,0.062"/>

    <path d="m-261.6,1274c0.2475-0.7459,3.472-10.75,4.736-14.63,0.0425-0.1325,0.0275-0.145-0.0637-0.145h-6.074c-0.1025,0-0.085,0.011-0.1212,0.115-0.1325,0.3775-0.8112,2.49-1.006,3.109-0.0825,0.2737-0.1525,0.51-0.2538,0.7825,0,0.016-0.0438,0.069-0.06,0.069-0.0312,0-0.06-0.04-0.0788-0.078-0.0737-0.2412-1.172-3.529-1.262-3.772-0.0725-0.2024-0.21-0.2249-0.355-0.2249h-6.289c-0.2206,0-0.2583,0.023-0.287,0.1012-0.1198,0.3237-1.08,3.352-1.196,3.799-0.0136,0.058-0.0528,0.185-0.0937,0.185-0.0439,0-0.0771-0.062-0.105-0.1775-0.1596-0.5375-0.936-3.26-1.115-3.806-0.0156-0.045-0.081-0.1025-0.2602-0.1025-1.251,0-5.701-0.01-6.431-0.01-0.1015,0-0.0786,0.075-0.0751,0.1112,0.0551,0.2,0.4262,1.372,0.6322,1.995,0.5054,1.492,3.42,10.31,4.398,13.24,0.039,0.1128,0.2256,0.087,0.3379,0.087h5.025c0.2789,0,0.2612-0.1201,0.3266-0.3101,0.1275-0.3599,1.326-3.731,1.495-4.314,0.1084-0.3814,0.1938-0.5938,0.3276-0.9903,0-0.014,0.0835-0.085,0.0835-0.1,0.018,0,0.0561,0.086,0.0727,0.086,0.0835,0.31,1.79,5.461,1.867,5.518,0.0151,0.011,0.02,0.1099,0.2364,0.1099h5.156c0.3025,0,0.3125-0.3101,0.4338-0.6403"/>

    <path d="m-209.9,1275c0.405-0.1001,0.8775-0.2822,1.289-0.5512,1.398-0.9073,2.37-2.913,1.981-4.539-0.4862-2.064-1.269-2.966-3.346-4.724-0.3475-0.2666-0.0888-0.2475-0.015-0.2538,0.145,0,6.484-0.01,7.219-0.01,0.2475,0,0.2512,0.04,0.2512-0.2354,0-0.271-0.004-4.53-0.004-4.721,0-0.12-0.0937-0.12-0.1112-0.12h-1.006-6.472c-0.8088,0-1.826,0.011-2.664,0.011-4.155,0-6.248,3.606-4.368,6.978,0.3712,0.6627,1.049,1.235,1.645,1.795,0.2538,0.2628,0.5075,0.5289,0.7575,0.791,0.1862,0.2164,0.3262,0.3653-0.0263,0.3653h-7.611c-0.8475,0-1.27-0.1314-1.446-0.2852-0.0175-0.016-0.035-0.031-0.0513-0.049,0.33-0.2783,0.6612-0.5595,0.99-0.8423,1.848-2.14,1.958-5.524-0.505-7.366-0.7762-0.5763-1.6-1.021-2.581-1.192-0.8112-0.14-1.676-0.205-3.118-0.205-2.89,0-8.924,0.08-9.194,0.08-0.1438,0-0.2275,0-0.2275,0.1575-0.001,1.366,0.002,13.51,0.002,15.1,0,0.054,0,0.1197,0.1088,0.1197h6.4c0.1012,0,0.0687-0.1035,0.0687-0.2198v-4.392h0.0575c0.035,0.035,0.0838,0.045,0.0937,0.068,1.39,1.084,2.296,2.503,3.696,3.479,0.5812,0.4126,1.214,0.6988,1.914,0.8814,0.9438,0.2461,2.072,0.1909,3.161,0.1909h4.331c1.939,0,4.42-0.001,6.356-0.001,1.446,0,2.005-0.1978,2.424-0.3052zm-21.91-11.05c0.4125,0,1.902,0.014,2.198,0.014,0.67,0,1.308-0.014,1.626,0.1162,0.3425,0.1388,0.53,0.4526,0.5475,0.8212,0.0625,1.214-1.194,1.078-2.222,1.094h-2.131c-0.105,0-0.0975-0.016-0.0975-0.1958-0.001-0.3042-0.002-0.9551-0.002-1.592,0-0.2075-0.005-0.2537,0.0825-0.2537"/>

    <path d="m-239.8,1275c-0.37-1.217-0.8012-2.492-1.161-3.581-0.9512-2.87-3.754-11.21-3.869-11.53-0.03-0.078-0.0763-0.1238-0.2412-0.1238h-8.714c-0.0937,0-0.1988,0.029-0.23,0.079-0.0438,0.1288-0.8425,2.459-1.126,3.344-0.8325,2.587-1.666,5.174-2.498,7.76-0.2875,0.872-1.176,3.652-1.335,4.197,0,0-0.0362,0.082,0.0425,0.082h5.235c0.4038,0,0.6888,0,0.8125-0.1435,0.4625-0.5377,0.5162-1.729,0.7838-1.983,0.0563-0.056,0.3525-0.048,0.4462-0.048,0.1312,0,4.49-0.01,4.672-0.01,0.1912,0,0.4138,0.038,0.455,0.075,0.2662,0.2451,0.4112,1.334,0.7275,1.905,0.1462,0.2178,0.43,0.1739,0.55,0.1753h5.348c0.1788,0,0.1588-0.04,0.1012-0.1978zm-8.14-6.317h-2.462c-0.1812,0-0.1525-0.019-0.1525-0.059,0.0312-0.086,0.1138-0.3548,0.14-0.434,0.4038-1.208,0.785-2.371,1.19-3.579,0.005,0.01,0.0238-0.047,0.0437-0.05,0.0175,0,0.0375,0.043,0.0425,0.05,0.2162,0.665,1.148,3.599,1.27,4.013-0.0187,0.061-0.0712,0.059-0.0712,0.059"/>

    <path d="m-367.3,1357c0,1.33-0.082,2.459-0.4098,3.975h3.113c-0.4092-1.639-0.4302-2.132-0.4302-3.319v-3.791c3.175,4.221,4.118,5.327,6.187,7.11h2.11c-1.823-2.192-3.708-4.466-5.08-6.885,0.6962-0.3687,2.908-1.597,2.908-4.097,0-2.07-1.864-4.445-5.817-4.384l-2.991,0.041c0.1636,0.5326,0.4098,1.372,0.4098,3.176v8.174zm2.273-10.08c3.073,0.3086,3.79,2.151,3.79,3.299,0,2.356-2.335,3.012-3.79,3.422v-6.721"/>

    <path d="m-349.9,1345c0.4301,1.333,0.5738,2.849,0.5738,3.894v7.518c0,1.968-0.3071,3.054-0.5738,3.955h8.051l1.126-2.562c-3.257,1.106-4.343,1.106-6.309,1.106v-5.614c1.168,0.082,1.741,0.1637,3.503,0.6764l1.311-2.15h-4.814v-5.369c1.618-0.062,2.52,0.1436,4.24,0.9224l1.168-2.378h-8.276"/>

    <path d="m-335,1345c0.4711,0.5312,0.6553,0.7788,1.126,1.721,0.4712,0.9414,1.004,2.172,1.188,2.644l4.322,11.1h1.742l5.018-11.94c0.5328-1.272,1.148-2.439,2.028-3.465l-3.995-0.06c0.164,0.5537,0.1841,0.7788,0.1841,1.002,0,0.8622-0.4098,1.987-0.7374,2.789l-3.298,7.866-3.196-8.132c-0.3476-0.9224-0.6553-2.112-0.6553-2.705,0-0.2051,0.0205-0.3686,0.1435-0.8198h-3.872"/>

    <path d="m-313,1345c0.4301,1.333,0.5738,2.849,0.5738,3.894v7.518c0,1.968-0.3071,3.054-0.5738,3.955h8.051l1.126-2.562c-3.257,1.106-4.343,1.106-6.309,1.106v-5.614c1.168,0.082,1.741,0.1637,3.503,0.6764l1.311-2.15h-4.814v-5.369c1.618-0.062,2.52,0.1436,4.24,0.9224l1.168-2.378h-8.276"/>

    <path d="m-298,1345c0.9214,0.7363,1.331,1.128,2.068,2.07v9.239c0,0.2876-0.0201,2.458-0.5122,4.058h3.257c-0.4712-1.25-0.6139-3.155-0.6139-4.507v-6.064l6.534,8.359c0.5322,0.6763,1.044,1.391,1.31,2.212h2.847c-0.2251-0.6352-0.5122-1.455-0.5122-3.831v-8.256c0-1.642,0.1846-2.459,0.3896-3.279h-2.95c0.2456,0.8813,0.4302,1.599,0.4302,4.426v6.985l-6.944-8.809c-1.208-1.536-1.352-1.908-1.639-2.603h-3.666"/>

    <path d="m-263.2,1346c-0.9425-0.2276-2.131-0.5127-3.995-0.5127-3.256,0-5.203,0.7563-6.841,2.724-1.27,1.516-1.925,3.503-1.925,5.45,0,2.91,1.577,7.459,8.48,7.459,2.828,0,4.343-0.5937,5.388-1.004-0.2875-1.045-0.2875-1.352-0.2875-2.377v-1.824c0-1.495,0.2662-2.19,0.4312-2.661h-3.749c0.5738,0.7764,1.024,1.391,1.024,3.768v1.7c-0.7162,0.2877-1.311,0.5313-2.704,0.5313-3.953,0-6.227-2.703-6.227-6.064,0-4.116,2.929-6.022,5.531-6.022,2.192,0,3.852,0.8614,4.876,1.394v-2.562"/>

    <path d="m-254.5,1345c0.43,1.333,0.5738,2.849,0.5738,3.894v7.518c0,1.968-0.3075,3.054-0.5738,3.955h8.05l1.126-2.562c-3.256,1.106-4.342,1.106-6.309,1.106v-5.614c1.168,0.082,1.741,0.1637,3.502,0.6764l1.311-2.15h-4.814v-5.369c1.619-0.062,2.519,0.1436,4.24,0.9224l1.168-2.378h-8.275"/>

    <path d="m-177.7,1345-0.82,2.582c2.971-1.065,3.872-1.065,4.896-1.045v9.895c0,1.824-0.205,2.951-0.43,3.914h3.134c-0.3275-1.19-0.43-2.44-0.43-3.668v-10.14c1.782,0,2.336,0.1436,4.015,0.8199l1.065-2.357h-11.43"/>

    <path d="m-159.5,1345c0.245,0.6986,0.5938,1.764,0.5938,3.955v7.499c0,2.294-0.3288,3.236-0.5938,3.955h3.482c-0.2675-0.9014-0.5738-1.844-0.5738-4.283v-2.538h6.574v2.703c0,2.458-0.265,3.176-0.5925,4.119h3.502c-0.3275-0.9014-0.595-1.661-0.595-4.2v-7.108c0-2.356,0.2462-3.094,0.595-4.1h-3.502c0.2662,0.8212,0.5925,1.805,0.5925,3.914v2.725h-6.574v-3.112c0-1.946,0.3475-2.808,0.6138-3.526h-3.522"/>

    <path d="m-139.4,1345c0.4288,1.333,0.5725,2.849,0.5725,3.894v7.518c0,1.968-0.3062,3.054-0.5725,3.955h8.049l1.128-2.562c-3.258,1.106-4.342,1.106-6.309,1.106v-5.614c1.166,0.082,1.74,0.1637,3.501,0.6764l1.311-2.15h-4.812v-5.369c1.618-0.062,2.519,0.1436,4.239,0.9224l1.169-2.378h-8.275"/>

    <path d="m-104.1,1346c-0.7375-0.3076-1.721-0.7377-3.114-0.7377-2.52,0-4.548,2.006-4.548,4.445,0,2.338,1.311,3.155,4.589,5.205,0.45,0.2862,1.29,0.9624,1.29,2.027,0,1.086-0.9625,2.15-2.295,2.15-1.412,0-2.314-1.064-3.01-1.862v3.257c0.7162,0.2051,1.432,0.4101,2.641,0.4101,3.216,0,5.204-1.844,5.204-4.385,0-1.474-0.615-2.683-2.826-3.954-1.925-1.106-3.218-1.863-3.218-3.319,0-1.208,1.045-2.07,2.378-2.07,1.371,0,2.232,0.6764,2.909,1.212v-2.378"/>

    <path d="m-96.44,1345c0.3888,0.9425,0.5938,1.906,0.5938,3.648v7.314c0,2.562-0.2875,3.443-0.5938,4.405h3.461c-0.45-1.619-0.5725-2.5-0.5725-4.241v-7.067c0-2.318,0.285-3.158,0.5725-4.058h-3.461"/>

    <path d="m-85.2,1345-0.8188,2.582c2.97-1.065,3.871-1.065,4.895-1.045v9.895c0,1.824-0.2038,2.951-0.43,3.914h3.134c-0.3262-1.19-0.4288-2.44-0.4288-3.668v-10.14c1.781,0,2.335,0.1436,4.014,0.8199l1.066-2.357h-11.43"/>

    <path d="m-66.93,1345c0.2462,0.6986,0.5938,1.764,0.5938,3.955v7.499c0,2.294-0.3275,3.236-0.5938,3.955h3.482c-0.2662-0.9014-0.5738-1.844-0.5738-4.283v-2.538h6.576v2.703c0,2.458-0.2675,3.176-0.595,4.119h3.502c-0.3275-0.9014-0.5938-1.661-0.5938-4.2v-7.108c0-2.356,0.245-3.094,0.5938-4.1h-3.502c0.2662,0.8212,0.595,1.805,0.595,3.914v2.725h-6.576v-3.112c0-1.946,0.3475-2.808,0.6138-3.526h-3.522"/>

    <path d="m-50.92,1361-0.4688,0,0-1.839-0.6738,0,0-0.3975,1.816,0,0,0.3975-0.6738,0,0,1.839"/>

    <path d="m-47.82,1361-0.4362,0,0-1.868-0.0075,0-0.4175,1.868-0.4562,0-0.4075-1.868-0.0063,0,0,1.868-0.4375,0,0-2.236,0.6812,0,0.4075,1.762,0.005,0,0.3988-1.762,0.6762,0,0,2.236"/>

   </g>

  

  </g>

 </g>

</svg>

