<svg width="52" height="58" viewBox="0 0 52 58" fill="none" xmlns="http://www.w3.org/2000/svg">
<path d="M51.389 37.754L40.529 26.895V15L42.291 13.24C43.273 12.256 43.272 10.656 42.291 9.676C41.338 8.721 39.678 8.721 38.726 9.674L36.963 11.438L25.07 11.436L14.21 0.574001C13.929 0.293001 13.431 0.293001 13.149 0.574001L10.55 3.174C10.435 3.289 10.378 3.436 10.353 3.586C10.351 3.584 10.34 3.584 10.34 3.584L8.95699 12.066C8.93499 12.205 8.96298 12.341 9.01698 12.468C9.01498 12.47 9.00698 12.478 9.00698 12.478L13.339 22.71C9.69799 24.722 7.38198 28.603 7.38298 32.792C7.38298 36.444 9.10399 39.687 11.763 41.796V47.704H6.61598C6.20198 47.704 5.86598 48.04 5.86598 48.454V50.339H4.26999C3.99499 50.339 3.74099 50.491 3.60999 50.734L0.482985 56.531C0.357985 56.763 0.363985 57.045 0.498985 57.271C0.634985 57.498 0.879984 57.636 1.14398 57.636H10.067C10.343 57.636 10.596 57.484 10.727 57.241L11.754 55.337H26.038L27.065 57.241C27.196 57.483 27.45 57.636 27.725 57.636H36.647C36.911 57.636 37.156 57.497 37.292 57.271C37.427 57.044 37.433 56.763 37.308 56.531L34.182 50.734C34.051 50.492 33.798 50.339 33.522 50.339H31.926V48.454C31.926 48.04 31.59 47.704 31.176 47.704H26.029V41.82C27.173 40.916 28.139 39.783 28.886 38.465L39.488 42.955V42.953C39.58 42.992 39.679 43.014 39.78 43.014C39.82 43.014 39.861 43.012 39.9 43.004L48.382 41.623C48.541 41.598 48.673 41.514 48.783 41.402C48.784 41.404 48.79 41.412 48.791 41.414L51.39 38.814C51.682 38.521 51.682 38.047 51.389 37.754ZM39.786 10.734C40.172 10.347 40.843 10.347 41.229 10.734C41.626 11.132 41.627 11.781 41.23 12.179L39.939 13.468L38.496 12.025L39.786 10.734ZM39.029 14.68V25.395L33.33 19.696L38.687 14.339L39.029 14.68ZM37.287 12.938L37.627 13.278L32.27 18.635L26.571 12.936L37.287 12.938ZM11.586 5.27L17.753 11.438L10.58 11.436L11.586 5.27ZM18.792 12.938L18.793 20.219L11.51 12.936L18.792 12.938ZM8.88398 32.793C8.88298 29.203 10.852 25.893 13.938 24.121L14.506 25.461C11.922 27.004 10.331 29.742 10.332 32.793C10.332 34.522 10.853 36.164 11.801 37.564C11.781 37.779 11.764 37.994 11.764 38.212V39.79C9.98798 37.984 8.88398 35.52 8.88398 32.793ZM21.24 42.004C20.826 42.004 20.49 42.34 20.49 42.754V47.705H17.3V42.754C17.3 42.34 16.964 42.004 16.55 42.004C16.136 42.004 15.8 42.34 15.8 42.754V47.705H13.264V38.213C13.264 37.156 13.559 36.168 14.069 35.324C14.983 37.058 16.801 38.246 18.895 38.246C20.988 38.246 22.806 37.058 23.719 35.324C24.231 36.168 24.527 37.156 24.528 38.213V47.705H21.99V42.754C21.99 42.34 21.654 42.004 21.24 42.004ZM18.895 36.746C16.715 36.746 14.943 34.973 14.943 32.793C14.942 31.736 15.354 30.744 16.1 29.998C16.846 29.25 17.839 28.84 18.895 28.84C21.073 28.84 22.846 30.613 22.847 32.791C22.847 34.973 21.074 36.746 18.895 36.746ZM15.039 28.936C14.009 29.967 13.441 31.336 13.442 32.793C13.442 33.057 13.467 33.314 13.504 33.568C13.03 34.115 12.641 34.734 12.35 35.41C12.022 34.586 11.832 33.707 11.832 32.793C11.831 30.348 13.067 28.141 15.094 26.85L15.735 28.364C15.492 28.539 15.254 28.721 15.039 28.936ZM33.072 51.84L35.389 56.137H28.171L27.144 54.233C27.013 53.989 26.759 53.838 26.484 53.838H11.304C11.029 53.838 10.775 53.988 10.644 54.233L9.61699 56.137H2.39899L4.71598 51.84H33.072ZM30.425 49.205V50.34H7.36598V49.205H30.425ZM26.027 39.793V38.213C26.027 37.994 26.011 37.777 25.991 37.563C26.048 37.481 26.107 37.399 26.161 37.313L27.502 37.881C27.083 38.586 26.588 39.225 26.027 39.793ZM25.425 35.373C25.135 34.715 24.748 34.111 24.284 33.574C24.32 33.318 24.347 33.058 24.347 32.791C24.346 29.785 21.901 27.34 18.895 27.34C18.261 27.34 17.651 27.465 17.072 27.672L11.891 15.44L36.526 40.073L25.425 35.373ZM20.293 21.555L20.292 13.977L27.871 21.555H20.293ZM28.91 23.055V30.336L21.628 23.055H28.91ZM39.028 40.453L31.744 33.17L39.028 33.172V40.453ZM30.41 31.67V24.094L37.987 31.672L30.41 31.67ZM40.528 41.383V34.213L46.694 40.379L40.528 41.383ZM48.26 39.822L30.201 21.764L12.141 3.703L13.679 2.166L49.797 38.285L48.26 39.822ZM18.892 30.689C17.734 30.689 16.791 31.632 16.791 32.791C16.791 33.953 17.734 34.896 18.895 34.896C20.056 34.896 20.999 33.953 20.999 32.789C20.996 31.631 20.051 30.689 18.892 30.689ZM18.895 33.396C18.562 33.396 18.291 33.125 18.291 32.791C18.291 32.631 18.354 32.478 18.467 32.365C18.581 32.252 18.733 32.189 18.894 32.189C19.227 32.189 19.498 32.46 19.499 32.791C19.499 33.125 19.229 33.396 18.895 33.396Z" fill="black"/>
</svg>
