<svg width="304" height="255" viewBox="0 0 304 255" fill="none" xmlns="http://www.w3.org/2000/svg">
<path d="M256.268 33.6918C240.235 33.6918 227.176 46.7006 227.176 62.6873C227.176 66.5166 227.941 70.1683 229.307 73.515L220.277 77.4992C218.552 78.2596 217.768 80.2721 218.529 82.0024C219.093 83.2773 220.337 84.0377 221.657 84.0377C222.126 84.0377 222.591 83.9421 223.041 83.7463L232.631 79.5163C237.909 86.8653 246.533 91.6827 256.268 91.6827C272.301 91.6827 285.361 78.6739 285.361 62.6873C285.361 46.7006 272.306 33.6918 256.268 33.6918ZM256.268 84.8573C255.43 84.8573 254.652 84.7025 253.841 84.6114L253.682 81.8612L258.149 80.4725C259.952 79.9124 260.954 78 260.394 76.1969C259.838 74.3984 257.939 73.3966 256.123 73.9476L249.101 76.1286C247.608 76.5976 246.615 78.0228 246.711 79.5891L246.888 82.7127C243.855 81.2966 241.233 79.2021 239.133 76.6477L247.562 72.9322C249.288 72.1718 250.076 70.1592 249.311 68.429C248.546 66.7078 246.538 65.9338 244.812 66.6851L235.609 70.7466C234.616 68.2423 234.024 65.5376 234.024 62.6873C234.024 53.6626 239.493 45.9038 247.284 42.4524L246.164 52.5015C246.05 53.5852 246.451 54.6643 247.257 55.402C248.058 56.1396 249.169 56.4492 250.235 56.2261L256.159 55.024L258.34 63.5387C258.736 65.0823 260.125 66.1068 261.646 66.1068C261.933 66.1068 262.215 66.0749 262.502 66.0021C264.328 65.5331 265.43 63.6708 264.961 61.8449L261.974 50.1839C261.519 48.4217 259.77 47.3198 257.985 47.6841L253.473 48.5993L254.347 40.7175C254.993 40.6584 255.613 40.5217 256.282 40.5217C268.554 40.5217 278.544 50.4662 278.544 62.6873C278.544 74.9083 268.54 84.8573 256.268 84.8573ZM63.5229 142.857C51.5517 141.186 40.9466 138.8 32.4042 135.932C33.5927 125.946 36.0288 116.334 39.7445 107.241C40.4594 105.497 39.6215 103.503 37.873 102.788C36.1244 102.064 34.1345 102.911 33.4196 104.66C29.6812 113.807 27.154 123.442 25.8244 133.427C23.8209 132.571 21.9266 131.693 20.2828 130.773C18.6435 129.858 16.5534 130.44 15.6336 132.089C14.7138 133.733 15.3012 135.813 16.9496 136.738C19.322 138.067 22.0723 139.329 25.1004 140.531C24.8636 143.677 24.7133 146.851 24.7133 150.061C24.7133 151.946 26.2433 153.476 28.1285 153.476C30.0136 153.476 31.5436 151.946 31.5436 150.061C31.5436 147.661 31.6392 145.271 31.7804 142.907C40.4776 145.694 50.937 148.007 62.5758 149.637C62.7397 149.665 62.8945 149.674 63.0539 149.674C64.7296 149.674 66.1912 148.44 66.4326 146.732C66.6967 144.852 65.3944 143.126 63.5229 142.857ZM66.8925 95.594C65.3079 94.5832 63.1905 95.0431 62.175 96.6367C59.6661 100.566 57.0387 109.472 56.2464 115.005C55.9777 116.872 57.2755 118.602 59.1424 118.871C59.3063 118.893 59.4703 118.907 59.6296 118.907C61.3008 118.907 62.7624 117.678 63.0038 115.975C63.7961 110.461 66.3734 102.752 67.9352 100.311C68.9507 98.7176 68.4817 96.6048 66.8925 95.594ZM73.7774 61.2256C69.7748 62.5643 63.5457 65.5877 59.1834 69.6948C57.8082 70.9879 57.7445 73.1462 59.0331 74.5213C59.7025 75.2362 60.6132 75.5959 61.5193 75.5959C62.3617 75.5959 63.1996 75.2908 63.8598 74.667C67.6666 71.0881 73.2492 68.602 75.9448 67.6959C77.7344 67.0994 78.6952 65.1597 78.0987 63.3748C77.5021 61.5899 75.5624 60.6246 73.7774 61.2256ZM87.0645 202.223H87.0053C75.6853 202.428 63.7506 201.112 53.2411 198.676C52.048 195.735 50.937 192.707 49.9808 189.561C49.4298 187.758 47.5264 186.76 45.7187 187.284C43.9155 187.835 42.8955 189.738 43.4419 191.546C43.9474 193.212 44.512 194.838 45.0857 196.454C42.5676 195.658 40.1361 194.82 37.9367 193.886C36.1973 193.14 34.1937 193.968 33.4606 195.694C32.723 197.433 33.5335 199.432 35.2684 200.17C39.1434 201.804 43.5558 203.23 48.255 204.455C53.2456 215.706 59.8436 225.372 67.7303 232.799C68.3906 233.423 69.233 233.723 70.0708 233.723C70.977 233.723 71.8831 233.368 72.557 232.658C73.8502 231.278 73.7865 229.124 72.4113 227.827C66.2869 222.053 60.9911 214.791 56.7017 206.367C65.7222 208.093 75.4394 209.072 84.8652 209.072C85.6165 209.072 86.3678 209.072 87.1101 209.053C88.9952 209.021 90.5024 207.469 90.4706 205.579C90.4478 203.717 88.9269 202.223 87.0645 202.223ZM86.2904 216.462C83.4672 216.343 80.6167 216.097 77.8163 215.742C75.9403 215.519 74.2373 216.835 74.0005 218.702C73.7637 220.569 75.0888 222.281 76.9603 222.517C79.9519 222.9 82.9937 223.16 86.0035 223.282H86.1493C87.9661 223.282 89.4824 221.853 89.5599 220.009C89.6373 218.128 88.1756 216.534 86.2904 216.462ZM146.784 202.451C146.87 202.451 146.957 202.442 147.048 202.442C148.418 202.342 149.803 202.164 151.182 202.041C149.58 205.046 147.872 207.947 146.023 210.67C144.967 212.232 145.363 214.363 146.92 215.414C147.512 215.815 148.182 216.006 148.842 216.006C149.935 216.006 151.014 215.483 151.67 214.513C154.479 210.378 156.997 205.893 159.256 201.172C161.879 200.839 164.501 200.498 167.12 200.079C168.978 199.787 170.253 198.034 169.947 196.167C169.656 194.31 167.948 193.017 166.036 193.34C164.852 193.536 163.664 193.659 162.48 193.832C162.717 193.249 162.967 192.689 163.19 192.097C163.855 190.335 162.967 188.368 161.2 187.698C159.443 187.034 157.471 187.921 156.801 189.693C156.137 191.446 155.422 193.162 154.684 194.852C151.947 195.148 149.229 195.439 146.529 195.635C144.653 195.776 143.237 197.42 143.382 199.3C143.514 201.094 145.008 202.451 146.784 202.451ZM137.431 103.763C135.883 103.763 134.38 104.077 132.973 104.696C126.808 107.401 124.271 115.26 127.318 122.213C129.617 127.449 134.43 130.837 139.58 130.837C141.128 130.837 142.631 130.522 144.038 129.903C150.203 127.194 152.753 119.335 149.703 112.378C147.403 107.141 142.581 103.763 137.431 103.763ZM141.301 123.647C138.624 124.831 135.072 122.855 133.583 119.467C132.049 115.961 133.014 112.136 135.728 110.943C136.27 110.706 136.839 110.588 137.435 110.588C139.844 110.588 142.267 112.414 143.455 115.123C144.994 118.629 144.033 122.454 141.301 123.647ZM213.028 88.163C214.754 87.4026 215.537 85.3855 214.781 83.6598C214.016 81.9341 212.008 81.1646 210.273 81.9159L190.138 90.7994C171.263 63.7527 139.89 45.9994 104.404 45.9994C46.8479 45.9994 0.0196533 92.6845 0.0196533 150.061C0.0196533 207.451 46.8479 254.127 104.404 254.127C161.965 254.127 208.784 207.441 208.784 150.061C208.784 130.522 203.352 112.227 193.913 96.5912L213.028 88.163ZM122.013 245.63C124.194 243.613 126.17 241.4 127.623 239.133C128.643 237.543 128.183 235.431 126.598 234.415C125.013 233.382 122.896 233.851 121.876 235.449C118.802 240.225 112.387 245.143 107.869 247.128C106.708 247.169 105.575 247.301 104.4 247.301C55.2719 247.301 14.6228 210.879 7.92455 163.73C24.6587 177.107 65.449 184.211 104.4 184.211C143.36 184.211 184.145 177.103 200.879 163.721C195.001 205.092 162.985 238.144 122.013 245.63ZM201.954 150.065C201.954 162.988 161.888 177.385 104.4 177.385C46.9117 177.385 6.84536 162.988 6.84536 150.065C6.84536 96.4546 50.6091 52.8339 104.4 52.8339C137.076 52.8339 165.981 68.9845 183.699 93.6406L171.282 99.1183C164.42 86.3235 151.806 77.8771 138.856 77.8771C134.749 77.8771 130.783 78.7058 127.063 80.3404C118.857 83.9467 112.806 91.0453 110.023 100.325C107.3 109.413 108.052 119.535 112.136 128.833C118.511 143.354 132.181 153.111 146.146 153.111C150.249 153.111 154.215 152.283 157.94 150.657C166.15 147.046 172.201 139.948 174.979 130.664C177.388 122.6 177.06 113.725 174.105 105.334L187.51 99.4188C196.608 114.19 201.954 131.492 201.954 150.065ZM156.87 109.199C157.434 110.479 158.678 111.235 159.998 111.235C160.467 111.235 160.932 111.139 161.382 110.943L167.853 108.088C170.171 114.973 170.407 122.176 168.449 128.697C166.264 136.027 161.546 141.601 155.208 144.387C152.371 145.635 149.32 146.272 146.174 146.272C134.872 146.272 123.716 138.158 118.411 126.074C114.978 118.26 114.331 109.809 116.585 102.274C118.78 94.9429 123.488 89.3696 129.831 86.5785C132.677 85.3309 135.714 84.6934 138.874 84.6934C149.193 84.6934 159.324 91.496 165.057 101.855L158.637 104.692C156.893 105.461 156.109 107.474 156.87 109.199ZM206.863 48.868L217.108 54.7508C217.641 55.0559 218.228 55.2062 218.798 55.2062C219.986 55.2062 221.138 54.5915 221.762 53.4941C222.7 51.8595 222.135 49.7695 220.505 48.8315L215.082 45.7171L219.54 42.7893C220.596 42.0972 221.184 40.8769 221.07 39.6156L218.948 16.9447L227.732 30.4999C228.246 31.3013 229.084 31.8522 230.026 32.0116C230.978 32.1755 231.939 31.9297 232.695 31.3423L238.988 26.4475L239.329 29.0064C239.589 30.8778 241.278 32.2074 243.177 31.9342C245.044 31.6838 246.355 29.9626 246.109 28.0958L244.971 19.6539C244.803 18.4428 244.01 17.4092 242.881 16.9493C241.743 16.4939 240.463 16.667 239.493 17.4137L231.443 23.6699L217.122 1.56364C216.266 0.238626 214.622 -0.33054 213.138 0.19309C211.653 0.707614 210.71 2.17378 210.852 3.73556L214.08 38.2087L206.69 43.0579C205.702 43.7091 205.114 44.8292 205.151 46.013C205.183 47.1969 205.834 48.2806 206.863 48.868ZM265.403 104.819L257.22 100.389C255.626 99.5372 253.682 100.052 252.717 101.554L243.669 115.729V104.154C243.669 102.269 242.139 100.739 240.254 100.739H234.689L236.893 96.7961C237.813 95.1523 237.226 93.0715 235.582 92.1471C233.938 91.2228 231.866 91.8148 230.933 93.4585L225.887 102.483C225.295 103.54 225.309 104.833 225.919 105.88C226.534 106.923 227.654 107.569 228.861 107.569H236.829V127.417C236.829 128.933 237.836 130.267 239.293 130.695C239.602 130.791 239.93 130.832 240.245 130.832C241.392 130.832 242.485 130.258 243.127 129.257L256.76 107.911L262.151 110.829C263.827 111.731 265.885 111.107 266.787 109.45C267.675 107.788 267.06 105.716 265.403 104.819ZM303.698 33.3093C303.142 32.0845 301.926 31.3013 300.583 31.3013H286.54C284.655 31.3013 283.125 32.8312 283.125 34.7163C283.125 36.6013 284.655 38.1313 286.54 38.1313H293.033L288.912 42.8212C288.129 43.7136 287.87 44.9521 288.225 46.0904L290.306 52.8066C290.766 54.2682 292.109 55.2062 293.571 55.2062C293.899 55.2062 294.24 55.1561 294.586 55.0514C296.389 54.4913 297.387 52.5789 296.831 50.7758L295.31 45.8901L303.156 36.9702C304.035 35.9639 304.249 34.5296 303.698 33.3093Z" fill="white"/>
</svg>
