<svg xmlns="http://www.w3.org/2000/svg" xmlns:xlink="http://www.w3.org/1999/xlink" version="1.1" x="0px" y="0px" viewBox="0 0 100 125" enable-background="new 0 0 100 100" xml:space="preserve"><path d="M88.371,39.948c-2.827-5.709-7.418-6.579-10.715-0.807c-0.295,0.516-1.076,0.376-1.173-0.212  C74.218,25.178,64.475,15,49.942,15c-14.532,0-24.274,10.177-26.541,23.93c-0.097,0.588-0.877,0.728-1.172,0.212  c-3.297-5.773-7.89-4.901-10.716,0.809c-2.052,4.146-2.681,9.615-2.478,14.099c0.187,4.135,1.26,10.182,4.284,13.563  c1.77,1.98,4.077,2.739,6.395,1.047c2.168-1.583,3.033-3.629,3.861-5.995c6.639,12.718,16.497,26.368,26.366,26.368  c0.004,0,0.008,0,0.013,0c9.873-0.013,19.755-13.689,26.358-26.367c0.828,2.366,1.692,4.412,3.86,5.994  c2.318,1.693,4.626,0.933,6.396-1.049c3.021-3.382,4.095-9.425,4.281-13.559C91.052,49.567,90.424,44.095,88.371,39.948z   M49.941,87.249c-7.222,0-16.105-9.007-24.433-24.741c1.13-3.515,1.591-7.168,1.432-11.356C38.938,44.3,46.526,37.512,49.942,30.545  c3.416,6.967,11.005,13.755,23.003,20.606c-0.158,4.189,0.303,7.845,1.433,11.36C66.075,78.234,57.193,87.239,49.941,87.249z"/><text x="0" y="115" fill="#000000" font-size="5px" font-weight="bold" font-family="'Helvetica Neue', Helvetica, Arial-Unicode, Arial, Sans-serif">Created by Ben King</text><text x="0" y="120" fill="#000000" font-size="5px" font-weight="bold" font-family="'Helvetica Neue', Helvetica, Arial-Unicode, Arial, Sans-serif">from the Noun Project</text></svg>