<svg xmlns="http://www.w3.org/2000/svg" xmlns:xlink="http://www.w3.org/1999/xlink" version="1.1" x="0px" y="0px" viewBox="0 0 100 125" enable-background="new 0 0 100 100" xml:space="preserve"><path d="M67.954,28.846c1.244,0,2.256-1.013,2.256-2.257c0-1.243-1.012-2.256-2.256-2.256s-2.256,1.013-2.256,2.256  C65.698,27.833,66.71,28.846,67.954,28.846z M67.954,25.833c0.417,0,0.756,0.34,0.756,0.756c0,0.418-0.339,0.757-0.756,0.757  s-0.756-0.339-0.756-0.757C67.198,26.173,67.537,25.833,67.954,25.833z M31.672,72.699c-0.818,0-1.484,0.666-1.484,1.484  c0,0.817,0.666,1.481,1.484,1.481c0.818,0,1.484-0.664,1.484-1.481C33.156,73.365,32.49,72.699,31.672,72.699z M73.564,64.357  c-0.818,0-1.484,0.664-1.484,1.481c0,0.818,0.666,1.484,1.484,1.484c0.817,0,1.483-0.666,1.483-1.484  C75.048,65.021,74.383,64.357,73.564,64.357z M77.902,56.367c-1.766,0-3.202,1.438-3.202,3.203c0,1.768,1.437,3.205,3.202,3.205  c1.767,0,3.203-1.438,3.203-3.205C81.105,57.805,79.67,56.367,77.902,56.367z M77.902,61.275c-0.938,0-1.702-0.767-1.702-1.705  c0-0.939,0.764-1.703,1.702-1.703c0.939,0,1.703,0.764,1.703,1.703C79.605,60.509,78.843,61.275,77.902,61.275z M23.673,38.405  c2.452,0.18,4.593-1.668,4.773-4.12c0.18-2.451-1.668-4.592-4.12-4.772c-2.451-0.18-4.592,1.668-4.772,4.12  C19.375,36.083,21.222,38.225,23.673,38.405z M24.217,31.009c1.627,0.119,2.854,1.54,2.734,3.167  c-0.119,1.626-1.541,2.853-3.167,2.733c-1.626-0.119-2.852-1.54-2.732-3.167C21.172,32.115,22.59,30.889,24.217,31.009z   M71.91,33.708c0.818,0,1.484-0.665,1.484-1.483s-0.666-1.484-1.484-1.484s-1.484,0.666-1.484,1.484S71.092,33.708,71.91,33.708z   M31.781,31.408c0.816,0.06,1.529-0.556,1.589-1.372s-0.556-1.529-1.372-1.589c-0.815-0.06-1.527,0.556-1.587,1.372  C30.352,30.635,30.966,31.348,31.781,31.408z M20.087,47.97c0,0.818,0.665,1.484,1.482,1.484c0.818,0,1.484-0.666,1.484-1.484  c0-0.818-0.666-1.484-1.484-1.484C20.752,46.486,20.087,47.152,20.087,47.97z M53.84,66.211c0.085,0.34,0.391,0.566,0.727,0.566  c0.062,0,0.123-0.006,0.184-0.021c0.221-0.055,5.445-1.383,9.225-4.004c0.34-0.236,0.426-0.703,0.188-1.045  c-0.235-0.338-0.7-0.426-1.044-0.188c-3.549,2.463-8.682,3.768-8.732,3.78C53.982,65.4,53.738,65.809,53.84,66.211z M33.677,58.424  c-0.094,0.402,0.158,0.805,0.561,0.898c0.698,0.162,1.478,0.242,2.335,0.242c0.932,0,1.956-0.097,3.063-0.285  c0.408-0.07,0.682-0.459,0.612-0.867s-0.458-0.674-0.867-0.611c-1.902,0.326-3.563,0.348-4.804,0.061  C34.169,57.768,33.77,58.021,33.677,58.424z M81.902,41.68c-1.319-4.165-7.82-5.269-13.729-4.243  c-2.033-2.694-4.638-4.939-7.723-6.539C55.012,28.076,48.8,27.54,42.96,29.391c-5.84,1.85-10.611,5.863-13.433,11.302  c-1.601,3.085-2.438,6.42-2.549,9.793c-5.419,2.563-10.1,7.208-8.78,11.374c1.265,3.992,7.086,6.07,15.133,6.07  c0.258,0,0.531-0.016,0.794-0.02c4.922,5.012,11.737,6.285,15.753,6.285c2.317,0,4.656-0.352,6.937-1.073  c7.957-2.519,13.891-9.14,15.552-17.312C79.361,51.055,83.208,45.802,81.902,41.68z M29.978,43.307  c1.123,1.142,3.185,1.821,6.007,1.946c0.011,0.001,0.022,0.001,0.034,0.001c0.399,0,0.731-0.313,0.749-0.717  c0.019-0.413-0.302-0.765-0.716-0.782c-2.844-0.127-4.801-0.878-5.354-2.017c0.058-0.117,0.102-0.239,0.163-0.354  c1.186-2.287,2.757-4.285,4.606-5.971c0.763,0.664,2.073,1.023,3.8,1.023c0.257,0,0.522-0.008,0.797-0.023  c0.414-0.024,0.729-0.379,0.705-0.793s-0.391-0.73-0.792-0.705c-1.672,0.098-2.789-0.148-3.343-0.492  c2.002-1.576,4.28-2.811,6.781-3.603c2.502-0.792,5.076-1.095,7.62-0.959c-0.48,1.139-2.833,2.995-6.596,4.187  c-0.652,0.207-1.303,0.379-1.934,0.514c-0.405,0.086-0.664,0.484-0.578,0.889c0.075,0.354,0.386,0.595,0.732,0.595  c0.052,0,0.104-0.005,0.157-0.017c0.678-0.145,1.376-0.328,2.075-0.55c3.687-1.168,7.173-3.315,7.677-5.478  c2.479,0.313,4.91,1.042,7.193,2.227c0.118,0.063,0.229,0.139,0.346,0.202c0.354,2.173-3.396,5.572-8.961,8.052  c-0.377,0.168-0.547,0.611-0.379,0.99c0.125,0.279,0.397,0.444,0.686,0.444c0.104,0,0.206-0.021,0.306-0.065  c5.685-2.532,9.341-5.795,9.814-8.568c2.169,1.405,4.024,3.184,5.536,5.229c0.426,1.538-0.771,3.274-1.868,4.471  c-0.28,0.305-0.261,0.779,0.046,1.06c0.145,0.132,0.324,0.197,0.507,0.197c0.202,0,0.404-0.081,0.554-0.243  c1.08-1.178,1.781-2.328,2.119-3.421c0.756,1.32,1.389,2.724,1.859,4.208c0.363,1.148,0.617,2.328,0.783,3.508  c-3.299,3.331-9.832,7.397-18.906,10.271c-9.075,2.875-16.757,3.313-21.373,2.487c-0.543-1.059-1.014-2.17-1.378-3.317  c-0.468-1.479-0.759-2.982-0.902-4.49c1.229,0.947,3.087,1.576,5.521,1.852c0.028,0.002,0.057,0.004,0.085,0.004  c0.376,0,0.701-0.283,0.744-0.666c0.046-0.41-0.25-0.783-0.661-0.828c-3.205-0.36-5.243-1.375-5.769-2.854  C28.528,48.212,29.018,45.699,29.978,43.307z M70.818,41.9c2.363,0.347,2.611,1.531,2.699,1.96c0.156,0.769-0.238,1.805-1.136,2.994  c-0.167-0.849-0.364-1.694-0.628-2.523C71.49,43.496,71.169,42.689,70.818,41.9z M28.022,58.184c0.263,0.83,0.587,1.635,0.939,2.424  c-1.418-0.455-2.337-1.073-2.651-1.793c-0.175-0.399-0.656-1.512,1.078-3.157C27.555,56.504,27.757,57.348,28.022,58.184z   M19.629,61.406c-1-3.158,2.893-6.973,7.352-9.254c0.024,0.592,0.057,1.184,0.127,1.774c-2.793,2.197-2.741,4.187-2.173,5.486  c1.004,2.299,5.05,3.465,10.53,3.465c4.956,0,11.085-0.955,17.189-2.889c12.854-4.072,23.291-11.75,22.332-16.431  c-0.284-1.39-1.387-3.046-4.937-3.235c-0.282-0.523-0.597-1.026-0.917-1.523c4.957-0.702,10.34,0.174,11.34,3.333  c1.922,6.071-10.385,15.613-26.875,20.838C37.109,68.193,21.552,67.477,19.629,61.406z M69.427,60.061  c-0.989,1.385-2.685,2.851-4.913,4.24c-0.353,0.221-0.459,0.684-0.24,1.033c0.143,0.229,0.387,0.354,0.638,0.354  c0.135,0,0.272-0.037,0.396-0.112c0.428-0.267,0.83-0.537,1.221-0.81c-2.596,3.195-6.094,5.637-10.164,6.926  c-4.059,1.285-8.313,1.306-12.261,0.197c3.443-0.021,7.529-0.707,11.683-2.022c2.311-0.732,4.509-1.615,6.535-2.625  c0.371-0.185,0.521-0.636,0.338-1.007c-0.184-0.37-0.635-0.52-1.006-0.338c-1.959,0.976-4.086,1.83-6.32,2.539  c-6.389,2.023-12.782,2.521-16.343,1.271c-0.936-0.554-1.835-1.177-2.688-1.875c5.349-0.312,11.452-1.435,17.754-3.431  c6.299-1.993,11.938-4.586,16.488-7.409C70.246,58.049,69.871,59.072,69.427,60.061z M46.169,39.516  c0.395-0.125,0.613-0.546,0.488-0.941c-0.125-0.394-0.545-0.614-0.941-0.488c-3.762,1.191-6.814,1.505-8.595,0.888  c-0.394-0.137-0.819,0.071-0.955,0.463c-0.136,0.391,0.071,0.818,0.462,0.955c0.8,0.277,1.717,0.393,2.688,0.393  C41.59,40.785,44.153,40.156,46.169,39.516z M43.404,48.817c0.068,0.36,0.383,0.611,0.736,0.611c0.046,0,0.093-0.004,0.14-0.013  c1.646-0.31,3.326-0.734,4.992-1.263c2.949-0.933,5.751-2.162,8.105-3.554c0.355-0.211,0.475-0.67,0.264-1.027  c-0.209-0.356-0.67-0.475-1.027-0.264c-2.256,1.334-4.951,2.516-7.793,3.415c-1.609,0.511-3.229,0.92-4.816,1.218  C43.596,48.017,43.328,48.41,43.404,48.817z M39.103,53.662c-0.413,0.029-0.725,0.387-0.697,0.801  c0.027,0.395,0.356,0.697,0.747,0.697c0.018,0,0.035,0,0.052-0.002c3.503-0.24,7.381-1.008,11.215-2.223  c5.329-1.688,10.137-4.088,13.539-6.762c0.326-0.256,0.383-0.728,0.127-1.054c-0.257-0.326-0.729-0.383-1.053-0.126  c-3.266,2.563-7.905,4.876-13.066,6.511C46.246,52.684,42.489,53.43,39.103,53.662z M59.834,52.758  c0.12,0.289,0.398,0.463,0.693,0.463c0.096,0,0.193-0.018,0.285-0.057c3.74-1.547,6.895-4.285,8.168-5.659  c0.281-0.304,0.264-0.778-0.041-1.06c-0.304-0.282-0.777-0.265-1.06,0.04c-1.19,1.285-4.142,3.845-7.64,5.292  C59.857,51.936,59.676,52.375,59.834,52.758z M41.974,44.068c-0.063-0.41-0.447-0.685-0.854-0.629  c-0.955,0.145-1.886,0.244-2.767,0.295c-0.414,0.023-0.729,0.377-0.706,0.791c0.022,0.398,0.354,0.707,0.748,0.707  c0.014,0,0.029,0,0.043-0.002c0.928-0.053,1.905-0.156,2.906-0.309C41.754,44.859,42.036,44.477,41.974,44.068z"/><text x="0" y="115" fill="#000000" font-size="5px" font-weight="bold" font-family="'Helvetica Neue', Helvetica, Arial-Unicode, Arial, Sans-serif">Created by Sergey Demushkin</text><text x="0" y="120" fill="#000000" font-size="5px" font-weight="bold" font-family="'Helvetica Neue', Helvetica, Arial-Unicode, Arial, Sans-serif">from the Noun Project</text></svg>